<?xml version="1.0" encoding="UTF-8" standalone="no"?>
<!-- Created with Inkscape (http://www.inkscape.org/) -->

<svg
   width="210mm"
   height="297mm"
   viewBox="0 0 210 297"
   version="1.1"
   id="svg5"
   xmlns="http://www.w3.org/2000/svg"
   xmlns:svg="http://www.w3.org/2000/svg">
  <defs
     id="defs2">
    <rect
       x="35.873178"
       y="210.75492"
       width="674.86416"
       height="289.2275"
       id="rect952" />
  </defs>
  <g
     id="layer1">
    <g
       aria-label="ᚦᛖ ᚾᛁᚷᚻᛏ ᛁᛋ ᛚᚩᛜ ᛒᚢᛏ ᚨ ᛞᚨᚢᚾ ᚹᛁᛚᛚ 
ᚳᛟᛗᛖ ᚨᚾᛞ ᛁᛋᚦ ᚦᚫᛏ ᚹᛁᚾ ᚹᛟᚱᚲᛁᚱᚦ 
ᚨ ᚳᚻᚢᚱᚳᚻ ᚩᚱ ᚨᚻᛖᚫᛚᛁᚾᚷ ᚳᚻᚢᚱᚳᚻ 
ᛈᛖᚢ ᛁᛏ ᛗᚨᚢ ᛒᛖ 
ᛒᚢᛏ ᚹᛁᛚᛚ ᛁᛋ ᚨ ᚱᛖᚠᚢᛁᛃᛖ ᚠᛟᚱ ᚨᛚᛚ 
ᛈᛖᛚᛚᛟᚢᛋ"
       id="text790"
       style="font-size:10.5833px;font-family:Krungthep;-inkscape-font-specification:'Krungthep, Normal';stroke-width:0.264583">
      <path
         d="m 11.762993,111.52573 -3.2917783,-1.49861 v 3.67935 z m 0.795815,-0.26355 -4.0875933,2.713 v 1.53479 l 0.2118727,-0.0878 v 0.32039 l -1.0593634,0.41858 v -0.31522 l 0.2118727,-0.0827 v -7.8858 l -0.2118727,0.0827 v -0.31523 l 1.0593634,-0.42374 v 0.31522 l -0.2118727,0.0879 v 1.66914 z"
         id="path1403" />
      <path
         d="m 22.294616,115.74251 -1.059363,0.41858 v -0.31522 l 0.211873,-0.0827 v -7.86512 q -0.857826,0.56327 -1.70015,1.12654 -0.842323,0.5581 -1.700149,1.11621 -0.775144,-0.45992 -1.550288,-0.89917 -0.769976,-0.44442 -1.550288,-0.89917 v 7.1675 l 0.211873,-0.0878 v 0.32039 l -1.059364,0.41858 v -0.31522 l 0.211873,-0.0827 v -7.79278 l -0.124023,-0.0723 0.558104,-0.47543 3.736194,2.17041 3.493316,-2.32027 0.118855,0.14986 h -0.01033 v 8.08734 l 0.211872,-0.0878 z"
         id="path1405" />
      <path
         d="m 34.324852,113.00884 -1.147213,0.75447 -2.010207,-1.52445 v 3.27111 l 0.211873,-0.0878 v 0.32039 l -1.059364,0.41858 v -0.31522 l 0.211873,-0.0827 v -3.99974 l -2.402946,-1.82417 -0.630451,0.43408 -0.118855,-0.20154 1.142045,-0.7493 2.010207,1.51411 v -3.05924 l -0.211873,0.0827 v -0.31523 l 1.059364,-0.42374 v 0.31522 l -0.211873,0.0879 v 3.78787 l 2.402947,1.81901 0.635618,-0.42375 z"
         id="path1407" />
      <path
         d="m 36.970677,115.74251 -1.059364,0.41858 v -0.31522 l 0.211873,-0.0827 v -7.8858 l -0.211873,0.0827 v -0.31523 l 1.059364,-0.42374 v 0.31522 l -0.211873,0.0879 v 7.8858 l 0.211873,-0.0878 z"
         id="path1409" />
      <path
         d="m 48.163757,107.62417 -0.552936,0.47542 -0.604613,-0.28938 -3.317616,3.6225 3.57083,3.87055 0.614948,-0.41857 0.10852,0.20153 -1.142046,0.74931 -3.627674,-3.88606 -3.715523,4.05659 -0.899167,-0.41341 0.563271,-0.47542 0.594277,0.28422 3.312449,-3.607 -3.74653,-4.01525 -0.552936,0.3824 -0.113688,-0.20153 1.136878,-0.74931 3.74653,4.06176 3.725859,-4.06176 z"
         id="path1411" />
      <path
         d="m 53.662111,112.79697 v -1.10071 l -3.06957,-1.92752 v 1.02835 z m 0.847491,2.94554 -1.059364,0.41858 v -0.31522 l 0.211873,-0.0827 v -2.21174 l -3.06957,-1.92753 v 3.88606 l 0.211872,-0.0878 v 0.32039 l -1.059363,0.41858 v -0.31522 l 0.211872,-0.0827 v -7.8858 l -0.211872,0.0827 v -0.31523 l 1.059363,-0.42374 v 0.31522 l -0.211872,0.0879 v 1.32291 l 3.06957,1.99988 v -3.06958 l -0.211873,0.0827 v -0.31523 l 1.059364,-0.42374 v 0.31522 l -0.211873,0.0879 v 7.8858 l 0.211873,-0.0878 z"
         id="path1413" />
      <path
         d="m 65.495975,109.83592 -1.142046,0.7493 -3.48298,-2.24275 v 7.1675 l 0.211873,-0.0878 v 0.32039 l -1.059364,0.41858 v -0.31522 l 0.211873,-0.0827 v -7.66359 l -3.35379,2.45463 -0.899167,-0.59428 0.558104,-0.47542 0.744138,0.36173 3.322784,-2.44429 4.09276,2.68717 0.682127,-0.45475 z"
         id="path1415" />
      <path
         d="m 71.412911,115.74251 -1.059364,0.41858 v -0.31522 l 0.211873,-0.0827 v -7.8858 l -0.211873,0.0827 v -0.31523 l 1.059364,-0.42374 v 0.31522 l -0.211873,0.0879 v 7.8858 l 0.211873,-0.0878 z"
         id="path1417" />
      <path
         d="m 78.07398,115.74251 -1.059363,0.41858 v -0.31522 l 0.211872,-0.0827 v -4.8679 l -3.384795,2.25308 -0.320393,-0.11885 v -5.15213 l -0.211873,0.0827 v -0.31523 l 1.059364,-0.42374 v 0.31522 l -0.211873,0.0879 v 5.05911 l 3.705188,-2.48046 v 5.30715 l 0.211873,-0.0878 z"
         id="path1419" />
      <path
         d="m 88.409237,109.83592 -1.142045,0.7493 -3.524322,-2.21174 v 7.13649 l 0.211873,-0.0878 v 0.32039 l -1.059364,0.41858 v -0.31522 l 0.211873,-0.0827 v -7.78244 l -0.124023,-0.0827 0.558104,-0.47543 4.087593,2.6665 0.666623,-0.45475 z"
         id="path1421" />
      <path
         d="m 96.527574,107.67585 -0.563271,0.47542 -0.738971,-0.35657 0.02067,-0.0258 -2.888704,1.92753 -2.098056,-1.32291 v 1.15238 l 2.382276,1.55545 2.878368,-1.91202 0.899167,0.41341 -0.563271,0.47542 -0.738971,-0.35656 0.02067,-0.0258 -2.888703,1.92752 -1.989536,-1.25056 v 5.15729 l 0.211872,-0.0878 v 0.32039 l -1.059363,0.41858 v -0.31522 l 0.211873,-0.0827 v -7.78244 l -0.124023,-0.0827 0.558103,-0.47543 2.692334,1.757 2.878368,-1.91719 z"
         id="path1423" />
      <path
         d="m 105.09033,111.9288 -3.57599,-3.92739 -3.14192,3.29178 3.52432,3.97907 z m 0.60462,-0.32556 -3.65352,3.82922 0.0775,0.0878 -0.49093,0.43409 -3.979068,-4.35115 0.563271,-0.47542 0.01034,0.0103 3.152252,-3.29178 -0.14469,-0.1602 0.5581,-0.47542 3.7672,4.23229 z"
         id="path1425" />
      <path
         d="m 114.70728,113.41191 -3.2401,-1.46244 v 3.31245 z m 0,-3.71552 -3.2401,-1.45727 v 2.99205 l 0.31006,0.14987 z m 0.84749,3.50365 -4.72321,2.68717 v -7.93748 l -0.12402,-0.0517 0.5581,-0.47543 4.28913,2.06189 -3.53465,2.0102 z"
         id="path1427" />
      <path
         d="m 122.09182,110.21832 -0.3824,0.25321 v 5.03844 l 0.21187,-0.0878 v 0.32039 l -1.05936,0.41858 v -0.31522 l 0.21187,-0.0827 V 110.301 l -3.06957,-1.92752 v 7.13649 l 0.21187,-0.0878 v 0.32039 l -1.05936,0.41858 v -0.31522 l 0.21187,-0.0827 v -7.78244 l -0.12402,-0.0827 0.5581,-0.47543 z"
         id="path1429" />
      <path
         d="m 132.7578,109.83592 -1.14204,0.7493 -3.48298,-2.24275 v 7.1675 l 0.21187,-0.0878 v 0.32039 l -1.05936,0.41858 v -0.31522 l 0.21187,-0.0827 v -7.66359 l -3.35379,2.45463 -0.89917,-0.59428 0.55811,-0.47542 0.74414,0.36173 3.32278,-2.44429 4.09276,2.68717 0.68213,-0.45475 z"
         id="path1431" />
      <path
         d="m 141.50143,108.94708 -1.14204,0.74931 -2.09806,-1.32291 v 1.15238 l 2.38228,1.55545 -0.005,0.0103 0.64078,-0.43925 0.11369,0.20154 -1.14204,0.7493 -1.98954,-1.25056 v 5.15729 l 0.21187,-0.0878 v 0.32039 l -1.05936,0.41858 v -0.31522 l 0.21187,-0.0827 v -7.78244 l -0.12402,-0.0827 0.5581,-0.47543 2.69234,1.757 0.63561,-0.43408 z"
         id="path1433" />
      <path
         d="m 150.59129,111.79445 -3.06957,-3.29178 v 6.64557 z m 3.70519,2.98172 v -6.70758 l -3.07991,3.36412 z m 0.84749,0.96634 -1.05936,0.41858 v -0.31522 l 0.21187,-0.0827 -3.55533,-3.81371 -3.21943,3.5605 0.21187,-0.0878 v 0.32039 l -1.05936,0.41858 v -0.31522 l 0.21187,-0.0827 v -7.8858 l -0.21187,0.0827 v -0.31523 l 1.05936,-0.42374 v 0.31522 l -0.0827,0.0362 3.4158,3.70003 3.0179,-3.31245 v -0.31523 l 1.05936,-0.42374 v 0.31522 l -0.21187,0.0879 v 7.8858 l 0.21187,-0.0878 z"
         id="path1435" />
      <path
         d="m 161.05057,108.94708 -1.14205,0.74931 -2.09806,-1.32291 v 1.15238 l 2.38228,1.55545 -0.005,0.0103 0.64079,-0.43925 0.11369,0.20154 -1.14205,0.7493 -1.98954,-1.25056 v 5.15729 l 0.21188,-0.0878 v 0.32039 l -1.05937,0.41858 v -0.31522 l 0.21188,-0.0827 v -7.78244 l -0.12403,-0.0827 0.55811,-0.47543 2.69233,1.757 0.63562,-0.43408 z"
         id="path1437" />
      <path
         d="m 167.52044,110.21832 -0.38241,0.25321 v 5.03844 l 0.21187,-0.0878 v 0.32039 l -1.05936,0.41858 v -0.31522 l 0.21187,-0.0827 V 110.301 l -3.06957,-1.92752 v 7.13649 l 0.21188,-0.0878 v 0.32039 l -1.05937,0.41858 v -0.31522 l 0.21188,-0.0827 v -7.78244 l -0.12403,-0.0827 0.55811,-0.47543 z"
         id="path1439" />
      <path
         d="m 175.74212,113.00884 -1.14721,0.75447 -2.01021,-1.52445 v 3.27111 l 0.21187,-0.0878 v 0.32039 l -1.05936,0.41858 v -0.31522 l 0.21187,-0.0827 v -3.99974 l -2.40294,-1.82417 -0.63045,0.43408 -0.11886,-0.20154 1.14205,-0.7493 2.0102,1.51411 v -3.05924 l -0.21187,0.0827 v -0.31523 l 1.05936,-0.42374 v 0.31522 l -0.21187,0.0879 v 3.78787 l 2.40295,1.81901 0.63562,-0.42375 z"
         id="path1441" />
      <path
         d="m 184.66662,109.74807 -3.29178,-1.49862 v 3.67935 z m 0.79581,-0.26355 -0.56327,0.37207 h -0.0103 l -3.51399,2.33576 v 3.31762 l 0.21187,-0.0878 v 0.32039 l -1.05936,0.41858 v -0.31522 l 0.21187,-0.0827 v -7.81345 l -0.12402,-0.0517 0.5581,-0.47543 z"
         id="path1443" />
      <path
         d="m 188.05142,115.74251 -1.05936,0.41858 v -0.31522 l 0.21187,-0.0827 v -7.8858 l -0.21187,0.0827 v -0.31523 l 1.05936,-0.42374 v 0.31522 l -0.21187,0.0879 v 7.8858 l 0.21187,-0.0878 z"
         id="path1445" />
      <path
         d="m 195.16207,109.83592 -1.14205,0.7493 -3.52432,-2.21174 v 7.13649 l 0.21187,-0.0878 v 0.32039 l -1.05936,0.41858 v -0.31522 l 0.21187,-0.0827 v -7.78244 l -0.12402,-0.0827 0.5581,-0.47543 4.0876,2.6665 0.66662,-0.45475 z"
         id="path1447" />
      <path
         d="m 201.64743,109.83592 -1.14204,0.7493 -3.52432,-2.21174 v 7.13649 l 0.21187,-0.0878 v 0.32039 l -1.05936,0.41858 v -0.31522 l 0.21187,-0.0827 v -7.78244 l -0.12402,-0.0827 0.5581,-0.47543 4.08759,2.6665 0.66663,-0.45475 z"
         id="path1449" />
      <path
         d="m 12.863698,128.97345 -1.142046,0.75447 -3.4519747,-3.11091 v 2.82669 l 0.2118727,-0.0879 v 0.3204 l -1.0593635,0.41857 v -0.31522 l 0.2118727,-0.0827 v -7.8858 l -0.2118727,0.0827 v -0.31522 L 8.48155,121.15483 v 0.31523 l -0.2118727,0.0879 v 4.08242 l 3.8447147,3.55533 0.635618,-0.42375 z"
         id="path1451" />
      <path
         d="m 19.416248,124.84968 -2.604484,-2.85769 -2.061883,2.1704 2.557976,2.8887 z m 0.604613,-0.33072 -2.563143,2.68716 1.787999,2.03088 0.614947,-0.41858 0.113688,0.20154 -1.142046,0.7493 -1.860345,-2.05154 -2.129062,2.22208 -0.899168,-0.41341 0.563272,-0.47543 0.60978,0.29456 1.715652,-1.788 -2.749178,-3.03856 3.090241,-3.1936 z"
         id="path1453" />
      <path
         d="m 25.477875,123.95052 -2.888704,-1.67431 v 3.59666 z m 3.612171,1.30224 v -3.42097 l -2.754345,1.819 z m 0.84749,4.42349 -1.059363,0.41857 v -0.31522 l 0.211873,-0.0827 v -3.65351 l -3.400299,-1.96887 -3.100576,2.05155 v 3.31761 l 0.211873,-0.0879 v 0.3204 l -1.059364,0.41857 v -0.31522 l 0.211873,-0.0827 v -7.79278 l -0.124023,-0.0724 0.558104,-0.47542 3.736194,2.1704 3.493316,-2.32026 0.118855,0.14986 h -0.01034 v 8.08733 l 0.211872,-0.0879 z"
         id="path1455" />
      <path
         d="m 40.107425,129.67625 -1.059363,0.41857 v -0.31522 l 0.211872,-0.0827 v -7.86513 q -0.857826,0.56327 -1.700149,1.12654 -0.842323,0.55811 -1.700149,1.11621 -0.775144,-0.45992 -1.550288,-0.89917 -0.769977,-0.44441 -1.550288,-0.89916 v 7.16749 l 0.211872,-0.0879 v 0.3204 l -1.059363,0.41857 v -0.31522 l 0.211873,-0.0827 v -7.79278 l -0.124023,-0.0724 0.558103,-0.47542 3.736194,2.1704 3.493316,-2.32026 0.118856,0.14986 h -0.01034 v 8.08733 l 0.211873,-0.0879 z"
         id="path1457" />
      <path
         d="m 49.491834,122.88082 -1.142045,0.7493 -2.098057,-1.32291 v 1.15238 l 2.382276,1.55546 -0.0052,0.0103 0.640785,-0.43925 0.113688,0.20154 -1.142045,0.74931 -1.989537,-1.25057 v 5.15729 l 0.211873,-0.0879 v 0.3204 l -1.059363,0.41857 v -0.31522 l 0.211872,-0.0827 v -7.78245 l -0.124023,-0.0827 0.558104,-0.47542 2.692333,1.75699 0.635619,-0.43408 z"
         id="path1459" />
      <path
         d="m 57.67219,126.94257 -1.147213,0.75448 -2.010207,-1.52445 v 3.2711 l 0.211873,-0.0879 v 0.3204 l -1.059364,0.41857 v -0.31522 l 0.211873,-0.0827 v -3.99975 l -2.402947,-1.82417 -0.63045,0.43408 -0.118856,-0.20153 1.142046,-0.74931 2.010207,1.51411 v -3.05923 l -0.211873,0.0827 v -0.31522 l 1.059364,-0.42375 v 0.31523 l -0.211873,0.0879 v 3.78787 l 2.402946,1.819 0.635618,-0.42375 z"
         id="path1461" />
      <path
         d="m 63.17571,125.72818 -3.06957,-3.29178 v 6.64557 z m 3.705189,2.98172 v -6.70758 l -3.079906,3.36413 z m 0.84749,0.96635 -1.059363,0.41857 v -0.31522 l 0.211873,-0.0827 -3.555328,-3.81371 -3.219431,3.56049 0.211873,-0.0879 v 0.3204 l -1.059364,0.41857 v -0.31522 l 0.211873,-0.0827 v -7.8858 l -0.211873,0.0827 v -0.31522 l 1.059364,-0.42375 v 0.31523 l -0.08268,0.0362 3.415801,3.70002 3.017894,-3.31245 v -0.31522 l 1.059363,-0.42375 v 0.31523 l -0.211872,0.0879 v 7.88579 l 0.211872,-0.0879 z"
         id="path1463" />
      <path
         d="m 74.332615,129.67625 -1.059363,0.41857 v -0.31522 l 0.211873,-0.0827 v -7.8858 l -0.211873,0.0827 v -0.31522 l 1.059363,-0.42375 v 0.31523 l -0.211872,0.0879 v 7.88579 l 0.211872,-0.0879 z"
         id="path1465" />
      <path
         d="m 80.993688,129.67625 -1.059363,0.41857 v -0.31522 l 0.211873,-0.0827 v -4.86791 l -3.384796,2.25309 -0.320393,-0.11886 v -5.15212 l -0.211873,0.0827 v -0.31522 l 1.059364,-0.42375 v 0.31523 l -0.211873,0.0879 v 5.0591 l 3.705189,-2.48046 v 5.30715 l 0.211872,-0.0879 z"
         id="path1467" />
      <path
         d="m 86.641907,125.45946 -3.291778,-1.49861 v 3.67935 z m 0.795814,-0.26355 -4.087592,2.71301 v 1.53478 l 0.211872,-0.0879 v 0.3204 l -1.059363,0.41857 v -0.31522 l 0.211873,-0.0827 v -7.8858 l -0.211873,0.0827 v -0.31522 l 1.059363,-0.42375 v 0.31523 l -0.211872,0.0879 v 1.66914 z"
         id="path1469" />
      <path
         d="m 96.439728,125.45946 -3.291778,-1.49861 v 3.67935 z m 0.795814,-0.26355 -4.087592,2.71301 v 1.53478 l 0.211872,-0.0879 v 0.3204 l -1.059363,0.41857 v -0.31522 l 0.211873,-0.0827 v -7.8858 l -0.211873,0.0827 v -0.31522 l 1.059363,-0.42375 v 0.31523 l -0.211872,0.0879 v 1.66914 z"
         id="path1471" />
      <path
         d="m 103.9948,125.98139 -1.14205,0.74931 -3.524319,-2.20141 v 4.91441 l 0.211873,-0.0879 v 0.3204 l -1.059364,0.41857 v -0.31522 l 0.211873,-0.0827 v -7.78245 l -0.124023,-0.0827 0.558103,-0.47542 4.087597,2.66649 0.66662,-0.45475 0.11369,0.20154 -1.14205,0.74931 -3.524319,-2.21175 v 1.39526 l 3.886059,2.53214 0.66662,-0.45475 z"
         id="path1473" />
      <path
         d="m 114.42824,123.76965 -1.14205,0.74931 -3.48298,-2.24275 v 7.16749 l 0.21187,-0.0879 v 0.3204 l -1.05936,0.41857 v -0.31522 l 0.21187,-0.0827 v -7.66359 l -3.35379,2.45462 -0.89916,-0.59428 0.5581,-0.47542 0.74414,0.36173 3.32278,-2.44428 4.09276,2.68716 0.68213,-0.45475 z"
         id="path1475" />
      <path
         d="m 123.09951,123.6818 -3.29178,-1.49861 v 3.67935 z m 0.79582,-0.26355 -0.56328,0.37207 h -0.0103 l -3.51399,2.33577 v 3.31761 l 0.21188,-0.0879 v 0.3204 l -1.05937,0.41857 v -0.31522 l 0.21187,-0.0827 v -7.81345 l -0.12402,-0.0517 0.55811,-0.47542 z"
         id="path1477" />
      <path
         d="m 126.48431,129.67625 -1.05936,0.41857 v -0.31522 l 0.21187,-0.0827 v -7.8858 l -0.21187,0.0827 v -0.31522 l 1.05936,-0.42375 v 0.31523 l -0.21187,0.0879 v 7.88579 l 0.21187,-0.0879 z"
         id="path1479" />
      <path
         d="m 135.02639,126.94257 -1.14721,0.75448 -2.01021,-1.52445 v 3.2711 l 0.21187,-0.0879 v 0.3204 l -1.05936,0.41857 v -0.31522 l 0.21187,-0.0827 v -3.99975 l -2.40294,-1.82417 -0.63045,0.43408 -0.11886,-0.20153 1.14205,-0.74931 2.0102,1.51411 v -3.05923 l -0.21187,0.0827 v -0.31522 l 1.05936,-0.42375 v 0.31523 l -0.21187,0.0879 v 3.78787 l 2.40295,1.819 0.63562,-0.42375 z"
         id="path1481" />
      <path
         d="m 143.95089,123.6818 -3.29178,-1.49861 v 3.67935 z m 0.79581,-0.26355 -0.56327,0.37207 h -0.0103 l -3.51399,2.33577 v 3.31761 l 0.21187,-0.0879 v 0.3204 l -1.05936,0.41857 v -0.31522 l 0.21187,-0.0827 v -7.81345 l -0.12402,-0.0517 0.5581,-0.47542 z"
         id="path1483" />
      <path
         d="m 151.4336,124.84968 -2.60448,-2.85769 -2.06188,2.1704 2.55797,2.8887 z m 0.60462,-0.33072 -2.56315,2.68716 1.788,2.03088 0.61495,-0.41858 0.11369,0.20154 -1.14205,0.7493 -1.86034,-2.05154 -2.12907,2.22208 -0.89916,-0.41341 0.56327,-0.47543 0.60978,0.29456 1.71565,-1.788 -2.74918,-3.03856 3.09024,-3.1936 z"
         id="path1485" />
      <path
         d="m 157.60375,123.6818 -3.29178,-1.49861 v 3.67935 z m 1.05937,5.29165 -1.14205,0.75447 -3.2091,-2.8887 v 2.60448 l 0.21188,-0.0879 v 0.3204 l -1.05937,0.41857 v -0.31522 l 0.21188,-0.0827 v -7.81345 l -0.12403,-0.0517 0.55811,-0.47542 4.28913,2.06188 -3.91706,2.60448 3.4313,3.17293 0.63045,-0.42375 z"
         id="path1487" />
      <path
         d="m 163.88759,122.86015 -0.5581,0.47542 -0.62012,-0.29972 -2.13939,2.24791 2.51663,2.84737 0.58911,-0.40308 0.11369,0.20154 -1.14205,0.7493 -2.61998,-3.14191 2.96621,-3.09024 z"
         id="path1489" />
      <path
         d="m 166.67294,129.67625 -1.05936,0.41857 v -0.31522 l 0.21187,-0.0827 v -7.8858 l -0.21187,0.0827 v -0.31522 l 1.05936,-0.42375 v 0.31523 l -0.21187,0.0879 v 7.88579 l 0.21187,-0.0879 z"
         id="path1491" />
      <path
         d="m 172.52786,123.6818 -3.29178,-1.49861 v 3.67935 z m 1.05936,5.29165 -1.14205,0.75447 -3.20909,-2.8887 v 2.60448 l 0.21187,-0.0879 v 0.3204 l -1.05936,0.41857 v -0.31522 l 0.21187,-0.0827 v -7.81345 l -0.12402,-0.0517 0.5581,-0.47542 4.28913,2.06188 -3.91706,2.60448 3.4313,3.17293 0.63045,-0.42375 z"
         id="path1493" />
      <path
         d="m 179.1941,125.45946 -3.29178,-1.49861 v 3.67935 z m 0.79581,-0.26355 -4.08759,2.71301 v 1.53478 l 0.21187,-0.0879 v 0.3204 l -1.05936,0.41857 v -0.31522 l 0.21187,-0.0827 v -7.8858 l -0.21187,0.0827 v -0.31522 l 1.05936,-0.42375 v 0.31523 l -0.21187,0.0879 v 1.66914 z"
         id="path1495" />
      <path
         d="m 11.711317,136.81455 -1.142046,0.74931 -2.0980563,-1.32291 v 1.15238 l 2.3822763,1.55545 -0.0052,0.0103 0.640786,-0.43925 0.113688,0.20154 -1.142046,0.7493 -1.9895363,-1.25056 v 5.15729 l 0.2118727,-0.0879 v 0.32039 l -1.0593634,0.41858 v -0.31523 l 0.2118727,-0.0827 v -7.78244 l -0.1240231,-0.0827 0.5581037,-0.47542 2.6923337,1.75699 0.635618,-0.43408 z"
         id="path1497" />
      <path
         d="m 21.922547,142.90718 -1.142046,0.75448 -3.451974,-3.11091 v 2.82669 l 0.211872,-0.0879 v 0.32039 l -1.059363,0.41858 v -0.31523 l 0.211873,-0.0827 v -7.8858 l -0.211873,0.0827 v -0.31522 l 1.059363,-0.42375 v 0.31523 l -0.211872,0.0879 v 4.08242 l 3.844714,3.55533 0.635618,-0.42374 z"
         id="path1499" />
      <path
         d="m 27.234868,140.66443 v -1.1007 l -3.069571,-1.92753 v 1.02836 z m 0.84749,2.94555 -1.059363,0.41858 v -0.31523 l 0.211873,-0.0827 v -2.21174 l -3.069571,-1.92753 v 3.88606 l 0.211873,-0.0879 v 0.32039 l -1.059363,0.41858 v -0.31523 l 0.211872,-0.0827 v -7.8858 l -0.211872,0.0827 v -0.31522 l 1.059363,-0.42375 v 0.31523 l -0.211873,0.0879 v 1.32291 l 3.069571,1.99987 v -3.06957 l -0.211873,0.0827 v -0.31522 l 1.059363,-0.42375 v 0.31523 l -0.211872,0.0879 v 7.8858 l 0.211872,-0.0879 z"
         id="path1501" />
      <path
         d="m 34.913961,138.08579 -0.382405,0.25321 v 5.03844 l 0.211873,-0.0879 v 0.32039 l -1.059364,0.41858 v -0.31523 l 0.211873,-0.0827 v -5.46218 l -3.06957,-1.92752 v 7.13649 l 0.211873,-0.0879 v 0.32039 l -1.059364,0.41858 v -0.31523 l 0.211873,-0.0827 v -7.78244 l -0.124023,-0.0827 0.558103,-0.47542 z"
         id="path1503" />
      <path
         d="m 40.448491,137.61553 -3.291779,-1.49861 v 3.67935 z m 1.059363,5.29165 -1.142045,0.75448 -3.209097,-2.88871 v 2.60449 l 0.211873,-0.0879 v 0.32039 l -1.059363,0.41858 v -0.31523 l 0.211872,-0.0827 v -7.81345 l -0.124023,-0.0517 0.558104,-0.47542 4.28913,2.06188 -3.917061,2.60449 3.431304,3.17292 0.630451,-0.42374 z"
         id="path1505" />
      <path
         d="m 48.215432,142.90718 -1.142046,0.75448 -3.451975,-3.11091 v 2.82669 l 0.211873,-0.0879 v 0.32039 l -1.059363,0.41858 v -0.31523 l 0.211872,-0.0827 v -7.8858 l -0.211872,0.0827 v -0.31522 l 1.059363,-0.42375 v 0.31523 l -0.211873,0.0879 v 4.08242 l 3.844715,3.55533 0.635618,-0.42374 z"
         id="path1507" />
      <path
         d="m 53.527753,140.66443 v -1.1007 l -3.06957,-1.92753 v 1.02836 z m 0.847491,2.94555 -1.059363,0.41858 v -0.31523 l 0.211872,-0.0827 v -2.21174 l -3.06957,-1.92753 v 3.88606 l 0.211873,-0.0879 v 0.32039 l -1.059364,0.41858 v -0.31523 l 0.211873,-0.0827 v -7.8858 l -0.211873,0.0827 v -0.31522 l 1.059364,-0.42375 v 0.31523 l -0.211873,0.0879 v 1.32291 l 3.06957,1.99987 v -3.06957 l -0.211872,0.0827 v -0.31522 l 1.059363,-0.42375 v 0.31523 l -0.211873,0.0879 v 7.8858 l 0.211873,-0.0879 z"
         id="path1509" />
      <path
         d="m 66.64319,135.54332 -0.563271,0.47542 -0.738971,-0.35657 0.02067,-0.0258 -2.888703,1.92753 -2.098056,-1.32291 v 1.15238 l 2.382276,1.55545 2.878368,-1.91202 0.899167,0.41341 -0.563272,0.47542 -0.73897,-0.35656 0.02067,-0.0258 -2.888703,1.92752 -1.989536,-1.25056 v 5.15729 l 0.211872,-0.0879 v 0.32039 l -1.059363,0.41858 v -0.31523 l 0.211873,-0.0827 v -7.78244 l -0.124024,-0.0827 0.558104,-0.47542 2.692334,1.75699 2.878368,-1.91718 z"
         id="path1511" />
      <path
         d="m 71.831486,137.61553 -3.291778,-1.49861 v 3.67935 z m 1.059364,5.29165 -1.142046,0.75448 -3.209096,-2.88871 v 2.60449 l 0.211873,-0.0879 v 0.32039 l -1.059364,0.41858 v -0.31523 l 0.211873,-0.0827 v -7.81345 l -0.124023,-0.0517 0.558103,-0.47542 4.289131,2.06188 -3.917061,2.60449 3.431304,3.17292 0.63045,-0.42374 z"
         id="path1513" />
      <path
         d="m 81.970373,136.81455 -1.142046,0.74931 -2.098056,-1.32291 v 1.15238 l 2.382276,1.55545 -0.0052,0.0103 0.640786,-0.43925 0.113688,0.20154 -1.142046,0.7493 -1.989536,-1.25056 v 5.15729 l 0.211873,-0.0879 v 0.32039 l -1.059364,0.41858 v -0.31523 l 0.211873,-0.0827 v -7.78244 l -0.124023,-0.0827 0.558103,-0.47542 2.692334,1.75699 0.635618,-0.43408 z"
         id="path1515" />
      <path
         d="m 87.535902,140.66443 v -1.1007 l -3.069571,-1.92753 v 1.02836 z m 0.84749,2.94555 -1.059363,0.41858 v -0.31523 l 0.211873,-0.0827 v -2.21174 l -3.069571,-1.92753 v 3.88606 l 0.211873,-0.0879 v 0.32039 l -1.059363,0.41858 v -0.31523 l 0.211872,-0.0827 v -7.8858 l -0.211872,0.0827 v -0.31522 l 1.059363,-0.42375 v 0.31523 l -0.211873,0.0879 v 1.32291 l 3.069571,1.99987 v -3.06957 l -0.211873,0.0827 v -0.31522 l 1.059363,-0.42375 v 0.31523 l -0.211872,0.0879 v 7.8858 l 0.211872,-0.0879 z"
         id="path1517" />
      <path
         d="m 98.589462,143.60998 -1.059364,0.41858 v -0.31523 l 0.211873,-0.0827 v -7.86513 q -0.857826,0.56327 -1.700149,1.12655 -0.842324,0.5581 -1.70015,1.1162 -0.775144,-0.45992 -1.550288,-0.89916 -0.769976,-0.44442 -1.550288,-0.89917 v 7.1675 l 0.211873,-0.0879 v 0.32039 l -1.059363,0.41858 v -0.31523 l 0.211872,-0.0827 v -7.79278 l -0.124023,-0.0724 0.558104,-0.47542 3.736194,2.1704 3.493316,-2.32026 0.118855,0.14986 h -0.01033 v 8.08734 l 0.211873,-0.0879 z"
         id="path1519" />
      <path
         d="m 105.78279,139.91513 -1.14204,0.7493 -3.52432,-2.20141 v 4.91442 l 0.21187,-0.0879 v 0.32039 l -1.05937,0.41858 v -0.31523 l 0.21188,-0.0827 v -7.78244 l -0.12403,-0.0827 0.55811,-0.47542 4.08759,2.6665 0.66662,-0.45475 0.11369,0.20153 -1.14204,0.74931 -3.52432,-2.21174 v 1.39525 l 3.88605,2.53214 0.66662,-0.45475 z"
         id="path1521" />
      <path
         d="m 112.34051,137.70338 -1.14204,0.74931 -3.52433,-2.21174 v 7.13649 l 0.21188,-0.0879 v 0.32039 l -1.05937,0.41858 v -0.31523 l 0.21188,-0.0827 v -7.78244 l -0.12403,-0.0827 0.55811,-0.47542 4.08759,2.6665 0.66662,-0.45475 z"
         id="path1523" />
      <path
         d="m 114.7848,143.60998 -1.05936,0.41858 v -0.31523 l 0.21187,-0.0827 v -7.8858 l -0.21187,0.0827 v -0.31522 l 1.05936,-0.42375 v 0.31523 l -0.21187,0.0879 v 7.8858 l 0.21187,-0.0879 z"
         id="path1525" />
      <path
         d="m 123.32689,140.87631 -1.14721,0.75447 -2.01021,-1.52445 v 3.27111 l 0.21187,-0.0879 v 0.32039 l -1.05936,0.41858 v -0.31523 l 0.21187,-0.0827 v -3.99974 l -2.40294,-1.82417 -0.63045,0.43408 -0.11886,-0.20154 1.14205,-0.74931 2.0102,1.51412 v -3.05924 l -0.21187,0.0827 v -0.31522 l 1.05936,-0.42375 v 0.31523 l -0.21187,0.0879 v 3.78787 l 2.40295,1.819 0.63562,-0.42374 z"
         id="path1527" />
      <path
         d="m 134.09622,135.49164 -0.55293,0.47542 -0.60462,-0.28939 -3.31761,3.62251 3.57083,3.87055 0.61495,-0.41858 0.10852,0.20154 -1.14205,0.74931 -3.62767,-3.88606 -3.71553,4.05659 -0.89916,-0.41341 0.56327,-0.47542 0.59427,0.28422 3.31245,-3.60701 -3.74653,-4.01524 -0.55293,0.3824 -0.11369,-0.20154 1.13688,-0.7493 3.74653,4.06175 3.72586,-4.06175 z"
         id="path1529" />
      <path
         d="m 144.24027,142.90718 -1.14205,0.75448 -3.45197,-3.11091 v 2.82669 l 0.21187,-0.0879 v 0.32039 l -1.05936,0.41858 v -0.31523 l 0.21187,-0.0827 v -7.8858 l -0.21187,0.0827 v -0.31522 l 1.05936,-0.42375 v 0.31523 l -0.21187,0.0879 v 4.08242 l 3.84471,3.55533 0.63562,-0.42374 z"
         id="path1531" />
      <path
         d="m 149.55259,140.66443 v -1.1007 l -3.06957,-1.92753 v 1.02836 z m 0.8475,2.94555 -1.05937,0.41858 v -0.31523 l 0.21187,-0.0827 v -2.21174 l -3.06957,-1.92753 v 3.88606 l 0.21188,-0.0879 v 0.32039 l -1.05937,0.41858 v -0.31523 l 0.21188,-0.0827 v -7.8858 l -0.21188,0.0827 v -0.31522 l 1.05937,-0.42375 v 0.31523 l -0.21188,0.0879 v 1.32291 l 3.06957,1.99987 v -3.06957 l -0.21187,0.0827 v -0.31522 l 1.05937,-0.42375 v 0.31523 l -0.21188,0.0879 v 7.8858 l 0.21188,-0.0879 z"
         id="path1533" />
      <path
         d="m 157.23169,138.08579 -0.3824,0.25321 v 5.03844 l 0.21187,-0.0879 v 0.32039 l -1.05936,0.41858 v -0.31523 l 0.21187,-0.0827 v -5.46218 l -3.06957,-1.92752 v 7.13649 l 0.21187,-0.0879 v 0.32039 l -1.05936,0.41858 v -0.31523 l 0.21187,-0.0827 v -7.78244 l -0.12402,-0.0827 0.5581,-0.47542 z"
         id="path1535" />
      <path
         d="m 162.76621,137.61553 -3.29178,-1.49861 v 3.67935 z m 1.05937,5.29165 -1.14205,0.75448 -3.2091,-2.88871 v 2.60449 l 0.21188,-0.0879 v 0.32039 l -1.05937,0.41858 v -0.31523 l 0.21188,-0.0827 v -7.81345 l -0.12403,-0.0517 0.55811,-0.47542 4.28913,2.06188 -3.91706,2.60449 3.4313,3.17292 0.63045,-0.42374 z"
         id="path1537" />
      <path
         d="m 170.53316,142.90718 -1.14204,0.75448 -3.45198,-3.11091 v 2.82669 l 0.21187,-0.0879 v 0.32039 l -1.05936,0.41858 v -0.31523 l 0.21187,-0.0827 v -7.8858 l -0.21187,0.0827 v -0.31522 l 1.05936,-0.42375 v 0.31523 l -0.21187,0.0879 v 4.08242 l 3.84472,3.55533 0.63561,-0.42374 z"
         id="path1539" />
      <path
         d="m 175.84547,140.66443 v -1.1007 l -3.06957,-1.92753 v 1.02836 z m 0.84749,2.94555 -1.05936,0.41858 v -0.31523 l 0.21187,-0.0827 v -2.21174 l -3.06957,-1.92753 v 3.88606 l 0.21187,-0.0879 v 0.32039 l -1.05936,0.41858 v -0.31523 l 0.21187,-0.0827 v -7.8858 l -0.21187,0.0827 v -0.31522 l 1.05936,-0.42375 v 0.31523 l -0.21187,0.0879 v 1.32291 l 3.06957,1.99987 v -3.06957 l -0.21187,0.0827 v -0.31522 l 1.05936,-0.42375 v 0.31523 l -0.21187,0.0879 v 7.8858 l 0.21187,-0.0879 z"
         id="path1541" />
      <path
         d="m 14.481165,149.47705 -0.558104,0.47542 -0.728635,-0.3824 -2.883536,1.92752 -2.0980566,-1.32291 v 7.0073 l 2.7336746,-1.819 2.733675,1.72082 0.589109,-0.39791 0.113688,0.20154 -1.142046,0.7493 -2.687166,-1.75699 -2.8783678,1.91719 -0.1395259,-0.1602 0.041341,-0.031 v -7.82379 l -0.124023,-0.0827 0.5581037,-0.47542 2.692334,1.75699 2.878368,-1.91719 z"
         id="path1543" />
      <path
         d="m 24.041274,157.54371 -1.059363,0.41858 v -0.31522 l 0.211873,-0.0827 v -7.86513 q -0.857827,0.56327 -1.70015,1.12654 -0.842323,0.5581 -1.700149,1.11621 -0.775144,-0.45992 -1.550288,-0.89917 -0.769976,-0.44442 -1.550288,-0.89917 v 7.1675 l 0.211873,-0.0879 v 0.32039 l -1.059364,0.41858 v -0.31522 l 0.211873,-0.0827 v -7.79279 l -0.124023,-0.0723 0.558104,-0.47542 3.736194,2.1704 3.493315,-2.32027 0.118856,0.14987 h -0.01033 v 8.08733 l 0.211872,-0.0879 z"
         id="path1545" />
      <path
         d="m 30.836703,152.01952 -0.382404,0.25322 v 5.03843 l 0.211873,-0.0879 v 0.32039 l -1.059364,0.41858 v -0.31522 l 0.211873,-0.0827 v -5.46219 l -3.06957,-1.92752 v 7.13649 l 0.211872,-0.0879 v 0.32039 l -1.059363,0.41858 v -0.31522 l 0.211873,-0.0827 v -7.78245 l -0.124023,-0.0827 0.558103,-0.47542 z"
         id="path1547" />
      <path
         d="m 37.110203,157.54371 -1.059363,0.41858 v -0.31522 l 0.211872,-0.0827 v -7.8858 l -0.211872,0.0827 v -0.31523 l 1.059363,-0.42374 v 0.31522 l -0.211873,0.0878 v 7.8858 l 0.211873,-0.0879 z"
         id="path1549" />
      <path
         d="m 48.096578,151.63712 -1.142046,0.7493 -3.48298,-2.24275 v 7.1675 l 0.211873,-0.0879 v 0.32039 l -1.059364,0.41858 v -0.31522 l 0.211873,-0.0827 v -7.6636 l -3.35379,2.45463 -0.899167,-0.59428 0.558104,-0.47542 0.744138,0.36173 3.322784,-2.44428 4.09276,2.68716 0.682127,-0.45475 z"
         id="path1551" />
      <path
         d="m 56.690343,151.81798 -2.888704,-1.67431 v 3.59667 z m 3.612171,1.30225 v -3.42097 l -2.754345,1.819 z m 0.847491,4.42348 -1.059364,0.41858 v -0.31522 l 0.211873,-0.0827 v -3.65352 l -3.400299,-1.96886 -3.100576,2.05155 v 3.31761 l 0.211873,-0.0879 v 0.32039 l -1.059363,0.41858 v -0.31522 l 0.211872,-0.0827 v -7.79279 l -0.124023,-0.0723 0.558104,-0.47542 3.736194,2.1704 3.493316,-2.32027 0.118855,0.14987 h -0.01033 v 8.08733 l 0.211873,-0.0879 z"
         id="path1553" />
      <path
         d="m 67.010091,150.74829 -1.142045,0.7493 -2.098057,-1.32291 v 1.15238 l 2.382276,1.55546 -0.0052,0.0103 0.640786,-0.43925 0.113687,0.20154 -1.142045,0.74931 -1.989537,-1.25057 v 5.15729 l 0.211873,-0.0879 v 0.32039 l -1.059363,0.41858 v -0.31522 l 0.211872,-0.0827 v -7.78245 l -0.124023,-0.0827 0.558104,-0.47542 2.692334,1.75699 0.635618,-0.43408 z"
         id="path1555" />
      <path
         d="m 73.479959,152.01952 -0.382405,0.25322 v 5.03843 l 0.211873,-0.0879 v 0.32039 l -1.059363,0.41858 v -0.31522 l 0.211872,-0.0827 v -5.46219 l -3.06957,-1.92752 v 7.13649 l 0.211873,-0.0879 v 0.32039 l -1.059364,0.41858 v -0.31522 l 0.211873,-0.0827 v -7.78245 l -0.124023,-0.0827 0.558104,-0.47542 z"
         id="path1557" />
      <path
         d="m 82.461297,155.21312 -3.240102,-1.46244 v 3.31245 z m 0,-3.71553 -3.240102,-1.45727 v 2.99206 l 0.310057,0.14986 z m 0.847491,3.50365 -4.723211,2.68717 v -7.93748 l -0.124023,-0.0517 0.558103,-0.47542 4.289131,2.06188 -3.534657,2.01021 z"
         id="path1559" />
      <path
         d="m 93.220298,157.54371 -1.059363,0.41858 v -0.31522 l 0.211872,-0.0827 v -7.86513 q -0.857826,0.56327 -1.700149,1.12654 -0.842323,0.5581 -1.700149,1.11621 -0.775144,-0.45992 -1.550288,-0.89917 -0.769977,-0.44442 -1.550288,-0.89917 v 7.1675 l 0.211872,-0.0879 v 0.32039 l -1.059363,0.41858 v -0.31522 l 0.211873,-0.0827 v -7.79279 l -0.124023,-0.0723 0.558103,-0.47542 3.736195,2.1704 3.493315,-2.32027 0.118856,0.14987 h -0.01034 v 8.08733 l 0.211873,-0.0879 z"
         id="path1561" />
      <path
         d="m 11.592461,169.14685 -3.2401017,-1.46244 v 3.31245 z m 0,-3.71552 -3.2401017,-1.45728 v 2.99206 l 0.3100576,0.14986 z m 0.847491,3.50365 -4.7232108,2.68716 v -7.93747 l -0.124023,-0.0517 0.5581037,-0.47542 4.2891301,2.06188 -3.5346566,2.01021 z"
         id="path1563" />
      <path
         d="m 18.977,165.95326 -0.382404,0.25321 v 5.03844 l 0.211872,-0.0879 v 0.32039 l -1.059363,0.41858 v -0.31523 l 0.211872,-0.0827 v -5.46218 l -3.06957,-1.92753 v 7.1365 l 0.211873,-0.0879 v 0.32039 l -1.059364,0.41858 v -0.31523 l 0.211873,-0.0827 v -7.78245 l -0.124023,-0.0827 0.558104,-0.47542 z"
         id="path1565" />
      <path
         d="m 29.642982,165.57085 -1.142046,0.74931 -3.48298,-2.24275 v 7.1675 l 0.211873,-0.0879 v 0.32039 l -1.059364,0.41858 v -0.31523 l 0.211873,-0.0827 v -7.66359 l -3.35379,2.45462 -0.899167,-0.59428 0.558104,-0.47542 0.744138,0.36174 3.322784,-2.44429 4.09276,2.68717 0.682127,-0.45476 z"
         id="path1567" />
      <path
         d="m 38.314259,165.483 -3.291778,-1.49861 v 3.67935 z m 0.795815,-0.26355 -0.563272,0.37207 h -0.01033 l -3.513986,2.33577 v 3.31762 l 0.211873,-0.0879 v 0.32039 l -1.059364,0.41858 v -0.31523 l 0.211873,-0.0827 v -7.81345 l -0.124023,-0.0517 0.558103,-0.47542 z"
         id="path1569" />
      <path
         d="m 41.699055,171.47745 -1.059363,0.41858 v -0.31523 l 0.211872,-0.0827 v -7.8858 l -0.211872,0.0827 v -0.31522 l 1.059363,-0.42375 v 0.31523 l -0.211873,0.0878 v 7.8858 l 0.211873,-0.0879 z"
         id="path1571" />
      <path
         d="m 48.809712,165.57085 -1.142046,0.74931 -3.524321,-2.21175 v 7.1365 l 0.211872,-0.0879 v 0.32039 l -1.059363,0.41858 v -0.31523 l 0.211873,-0.0827 v -7.78245 l -0.124023,-0.0827 0.558103,-0.47542 4.087593,2.6665 0.666624,-0.45476 z"
         id="path1573" />
      <path
         d="m 55.295082,165.57085 -1.142045,0.74931 -3.524322,-2.21175 v 7.1365 l 0.211873,-0.0879 v 0.32039 l -1.059363,0.41858 v -0.31523 l 0.211872,-0.0827 v -7.78245 l -0.124023,-0.0827 0.558104,-0.47542 4.087593,2.6665 0.666624,-0.45476 z"
         id="path1575" />
      <path
         d="m 61.263691,171.47745 -1.059363,0.41858 v -0.31523 l 0.211873,-0.0827 v -7.8858 l -0.211873,0.0827 v -0.31522 l 1.059363,-0.42375 v 0.31523 l -0.211872,0.0878 v 7.8858 l 0.211872,-0.0879 z"
         id="path1577" />
      <path
         d="m 67.924761,171.47745 -1.059364,0.41858 v -0.31523 l 0.211873,-0.0827 v -4.86791 l -3.384796,2.25309 -0.320393,-0.11886 v -5.15212 l -0.211872,0.0827 v -0.31522 l 1.059363,-0.42375 v 0.31523 l -0.211872,0.0878 v 5.0591 l 3.705188,-2.48046 v 5.30716 l 0.211873,-0.0879 z"
         id="path1579" />
      <path
         d="m 77.045622,164.68202 -1.142046,0.74931 -2.098056,-1.32292 v 1.15238 l 2.382275,1.55546 -0.0052,0.0103 0.640786,-0.43924 0.113687,0.20153 -1.142045,0.74931 -1.989536,-1.25057 v 5.1573 l 0.211872,-0.0879 v 0.32039 l -1.059363,0.41858 v -0.31523 l 0.211872,-0.0827 v -7.78245 l -0.124023,-0.0827 0.558104,-0.47542 2.692334,1.75699 0.635618,-0.43408 z"
         id="path1581" />
      <path
         d="m 86.063134,165.483 -3.291779,-1.49861 v 3.67935 z m 1.059363,5.29165 -1.142045,0.75448 -3.209097,-2.88871 v 2.60449 l 0.211873,-0.0879 v 0.32039 l -1.059363,0.41858 v -0.31523 l 0.211872,-0.0827 v -7.81345 l -0.124023,-0.0517 0.558104,-0.47542 4.28913,2.06188 -3.917061,2.60449 3.431304,3.17292 0.630451,-0.42375 z"
         id="path1583" />
      <path
         d="m 96.987495,171.47745 -1.059364,0.41858 v -0.31523 l 0.211873,-0.0827 v -7.86513 q -0.857826,0.56327 -1.700149,1.12654 -0.842323,0.55811 -1.700149,1.11621 -0.775145,-0.45992 -1.550289,-0.89917 -0.769976,-0.44441 -1.550288,-0.89916 v 7.1675 l 0.211873,-0.0879 v 0.32039 l -1.059363,0.41858 v -0.31523 l 0.211872,-0.0827 v -7.79278 l -0.124023,-0.0724 0.558104,-0.47542 3.736194,2.1704 3.493316,-2.32026 0.118855,0.14986 h -0.01033 v 8.08734 l 0.211873,-0.0879 z"
         id="path1585" />
      <path
         d="m 104.7441,163.35911 -0.56327,0.47542 -0.60461,-0.29456 -4.149604,4.439 v 3.26594 l 0.211873,-0.0879 v 0.32039 l -1.059363,0.41858 v -0.31523 l 0.211872,-0.0827 v -7.8858 l -0.211872,0.0827 v -0.31522 l 1.059363,-0.42375 v 0.31523 l -0.211873,0.0878 v 2.26342 l 2.454624,-2.67683 0.89917,0.41341 -0.56328,0.47542 -0.59944,-0.28939 -2.191074,2.39261 v 1.72082 l 4.418324,-4.71287 z"
         id="path1587" />
      <path
         d="m 110.88324,165.95326 -0.3824,0.25321 v 5.03844 l 0.21187,-0.0879 v 0.32039 l -1.05936,0.41858 v -0.31523 l 0.21187,-0.0827 v -5.46218 l -3.06957,-1.92753 v 7.1365 l 0.21187,-0.0879 v 0.32039 l -1.05936,0.41858 v -0.31523 l 0.21187,-0.0827 v -7.78245 l -0.12402,-0.0827 0.5581,-0.47542 z"
         id="path1589" />
      <path
         d="m 113.63242,171.47745 -1.05936,0.41858 v -0.31523 l 0.21187,-0.0827 v -7.8858 l -0.21187,0.0827 v -0.31522 l 1.05936,-0.42375 v 0.31523 l -0.21187,0.0878 v 7.8858 l 0.21187,-0.0879 z"
         id="path1591" />
      <path
         d="m 119.14628,163.53997 -0.56327,0.47543 -0.61495,-0.29973 -2.14456,2.24792 2.5218,2.84736 0.58394,-0.40307 0.11885,0.20154 -1.14204,0.7493 -2.62515,-3.14192 2.96621,-3.09024 z m 2.65099,5.11079 -2.96622,3.09024 -0.89916,-0.41341 0.56327,-0.47542 0.61495,0.29972 2.14456,-2.24792 -2.5218,-2.84736 -0.58394,0.40307 -0.11886,-0.20153 1.14205,-0.74931 z"
         id="path1593" />
      <path
         d="m 131.68294,171.47745 -1.05936,0.41858 v -0.31523 l 0.21187,-0.0827 v -7.86513 q -0.85782,0.56327 -1.70015,1.12654 -0.84232,0.55811 -1.70014,1.11621 -0.77515,-0.45992 -1.55029,-0.89917 -0.76998,-0.44441 -1.55029,-0.89916 v 7.1675 l 0.21187,-0.0879 v 0.32039 l -1.05936,0.41858 v -0.31523 l 0.21187,-0.0827 v -7.79278 l -0.12402,-0.0724 0.5581,-0.47542 3.7362,2.1704 3.49331,-2.32026 0.11886,0.14986 h -0.0103 v 8.08734 l 0.21187,-0.0879 z"
         id="path1595" />
      <path
         d="m 142.96387,163.35911 -0.56327,0.47542 -0.60461,-0.29456 -4.14961,4.439 v 3.26594 l 0.21187,-0.0879 v 0.32039 l -1.05936,0.41858 v -0.31523 l 0.21187,-0.0827 v -7.8858 l -0.21187,0.0827 v -0.31522 l 1.05936,-0.42375 v 0.31523 l -0.21187,0.0878 v 2.26342 l 2.45462,-2.67683 0.89917,0.41341 -0.56327,0.47542 -0.59945,-0.28939 -2.19107,2.39261 v 1.72082 l 4.41832,-4.71287 z"
         id="path1597" />
      <path
         d="m 149.43891,166.65089 -2.60448,-2.8577 -2.06188,2.1704 2.55797,2.8887 z m 0.60462,-0.33073 -2.56315,2.68716 1.788,2.03088 0.61495,-0.41858 0.11369,0.20154 -1.14205,0.74931 -1.86034,-2.05155 -2.12907,2.22208 -0.89916,-0.41341 0.56327,-0.47542 0.60978,0.29455 1.71565,-1.788 -2.74918,-3.03856 3.09024,-3.1936 z"
         id="path1599" />
      <path
         d="m 155.60905,165.483 -3.29178,-1.49861 v 3.67935 z m 1.05936,5.29165 -1.14204,0.75448 -3.2091,-2.88871 v 2.60449 l 0.21187,-0.0879 v 0.32039 l -1.05936,0.41858 v -0.31523 l 0.21187,-0.0827 v -7.81345 l -0.12402,-0.0517 0.5581,-0.47542 4.28913,2.06188 -3.91706,2.60449 3.4313,3.17292 0.63046,-0.42375 z"
         id="path1601" />
      <path
         d="m 165.74794,164.68202 -1.14205,0.74931 -2.09805,-1.32292 v 1.15238 l 2.38227,1.55546 -0.005,0.0103 0.64079,-0.43924 0.11369,0.20153 -1.14205,0.74931 -1.98953,-1.25057 v 5.1573 l 0.21187,-0.0879 v 0.32039 l -1.05936,0.41858 v -0.31523 l 0.21187,-0.0827 v -7.78245 l -0.12403,-0.0827 0.55811,-0.47542 2.69233,1.75699 0.63562,-0.43408 z"
         id="path1603" />
      <path
         d="m 172.49686,165.57085 -1.14204,0.74931 -3.52433,-2.21175 v 7.1365 l 0.21188,-0.0879 v 0.32039 l -1.05937,0.41858 v -0.31523 l 0.21188,-0.0827 v -7.78245 l -0.12403,-0.0827 0.55811,-0.47542 4.08759,2.6665 0.66662,-0.45476 z"
         id="path1605" />
      <path
         d="m 178.98223,165.57085 -1.14205,0.74931 -3.52432,-2.21175 v 7.1365 l 0.21187,-0.0879 v 0.32039 l -1.05936,0.41858 v -0.31523 l 0.21187,-0.0827 v -7.78245 l -0.12402,-0.0827 0.5581,-0.47542 4.0876,2.6665 0.66662,-0.45476 z"
         id="path1607" />
      <path
         d="m 14.481165,177.34452 -0.558104,0.47542 -0.728635,-0.38241 -2.883536,1.92753 -2.0980566,-1.32291 v 7.0073 l 2.7336746,-1.81901 2.733675,1.72082 0.589109,-0.3979 0.113688,0.20153 -1.142046,0.74931 -2.687166,-1.75699 -2.8783678,1.91719 -0.1395259,-0.1602 0.041341,-0.031 v -7.82378 l -0.124023,-0.0827 0.5581037,-0.47543 2.692334,1.757 2.878368,-1.91719 z"
         id="path1609" />
      <path
         d="m 24.041274,185.41118 -1.059363,0.41858 v -0.31522 l 0.211873,-0.0827 v -7.86512 q -0.857827,0.56327 -1.70015,1.12654 -0.842323,0.5581 -1.700149,1.11621 -0.775144,-0.45992 -1.550288,-0.89917 -0.769976,-0.44442 -1.550288,-0.89917 v 7.1675 l 0.211873,-0.0879 v 0.32039 l -1.059364,0.41858 v -0.31522 l 0.211873,-0.0827 v -7.79278 l -0.124023,-0.0723 0.558104,-0.47543 3.736194,2.17041 3.493315,-2.32027 0.118856,0.14986 h -0.01033 v 8.08734 l 0.211872,-0.0879 z"
         id="path1611" />
      <path
         d="m 31.115755,179.50459 -1.142045,0.7493 -3.524322,-2.21174 v 7.13649 l 0.211873,-0.0879 v 0.32039 l -1.059363,0.41858 v -0.31522 l 0.211872,-0.0827 v -7.78244 l -0.124023,-0.0827 0.558104,-0.47543 4.087593,2.6665 0.666624,-0.45475 z"
         id="path1613" />
      <path
         d="m 37.601128,179.50459 -1.142046,0.7493 -3.524321,-2.21174 v 7.13649 l 0.211873,-0.0879 v 0.32039 l -1.059364,0.41858 v -0.31522 l 0.211873,-0.0827 v -7.78244 l -0.124023,-0.0827 0.558103,-0.47543 4.087593,2.6665 0.666624,-0.45475 z"
         id="path1615" />
      <path
         d="m 44.143342,180.58462 -2.604483,-2.8577 -2.061884,2.17041 2.557976,2.8887 z m 0.604613,-0.33073 -2.563143,2.68717 1.787999,2.03087 0.614947,-0.41857 0.113688,0.20153 -1.142045,0.74931 -1.860346,-2.05155 -2.129062,2.22208 -0.899167,-0.41341 0.563271,-0.47542 0.60978,0.29455 1.715652,-1.78799 -2.749177,-3.03857 3.09024,-3.19359 z"
         id="path1617" />
      <path
         d="m 51.29017,179.88699 -0.382404,0.25321 v 5.03844 l 0.211872,-0.0879 v 0.32039 l -1.059363,0.41858 v -0.31522 l 0.211872,-0.0827 v -5.46218 l -3.06957,-1.92752 v 7.13649 l 0.211873,-0.0879 v 0.32039 l -1.059364,0.41858 v -0.31522 l 0.211873,-0.0827 v -7.78244 l -0.124023,-0.0827 0.558104,-0.47543 z"
         id="path1619" />
      <path
         d="m 57.63085,185.41118 -1.059364,0.41858 v -0.31522 l 0.211873,-0.0827 v -4.8679 l -3.384796,2.25308 -0.320393,-0.11885 v -5.15213 l -0.211872,0.0827 v -0.31523 l 1.059363,-0.42374 v 0.31522 l -0.211872,0.0879 v 5.05911 l 3.705188,-2.48046 v 5.30715 l 0.211873,-0.0879 z"
         id="path1621" />
    </g>
    <g
       aria-label="ᚢᚴᛁ ᛟᚠ ᚢᚾᛁᛋᛏ ᛋᛁᛚᛏᛁᚾ ᚢᛋ ᚦᛖᚱ ᚲᚢᚱᛗᛟᚢᛞᛖ ᚹᚢᛏᚻᛖᚱᛋᛏ ᛋᛖ ᛟᛚᚢᛉ ᛏᚻᛖ ᛃᚢᛏᛋᛖ ᚠᚱᛖᛅᚢ ᛋᛖᛚ ᛟᚠ ᚦᛖ ᛃᚢᛏᛏᛖᛋ ᚢᛋ ᛞᛁᚷᚾᛖᛋ ᚨᚠᚠᚱᛟᚾᛏ ᚦᛖ ᚠᛚᛖᚨᚢ"
       transform="matrix(0.26458333,0,0,0.26458333,1.0772135,-48.833678)"
       id="text950"
       style="font-size:40px;font-family:Krungthep;-inkscape-font-specification:'Krungthep, Normal';white-space:pre;shape-inside:url(#rect952);display:inline">
      <path
         d="m 57.533203,232.91809 -1.445312,0.95703 v 19.04297 l 0.800781,-0.33203 v 1.21093 l -4.003906,1.58203 v -1.1914 l 0.800781,-0.3125 v -20.64453 l -11.601563,-7.28516 v 26.97266 l 0.800782,-0.33203 v 1.21093 l -4.003907,1.58203 v -1.1914 l 0.800782,-0.3125 v -29.41406 l -0.46875,-0.3125 2.109375,-1.79688 z"
         id="path1171" />
      <path
         d="m 83.607422,223.30871 -2.128906,1.79688 -2.265625,-1.09375 -13.085938,14.14062 v 14.76563 l 0.800781,-0.33203 v 1.21093 l -4.003906,1.58203 v -1.1914 l 0.800781,-0.3125 v -29.80469 l -0.800781,0.3125 v -1.19141 l 4.003906,-1.60156 v 1.19141 l -0.800781,0.33203 v 13.82812 l 14.082031,-15.19531 z"
         id="path1173" />
      <path
         d="m 93.001953,253.79699 -4.003906,1.58203 v -1.1914 l 0.800781,-0.3125 v -29.80469 l -0.800781,0.3125 v -1.19141 l 4.003906,-1.60156 v 1.19141 l -0.800781,0.33203 v 29.80469 l 0.800781,-0.33203 z"
         id="path1175" />
      <path
         d="m 133.41211,235.55481 -9.84375,-10.80079 -7.79297,8.20313 9.66797,10.91797 z m 2.28516,-1.25 -9.6875,10.15625 6.75781,7.67578 2.32422,-1.58203 0.42968,0.76171 -4.3164,2.83204 -7.03125,-7.75391 -8.04688,8.39844 -3.39843,-1.5625 2.1289,-1.79688 2.30469,1.11328 6.48437,-6.75781 -10.39062,-11.48437 11.67969,-12.07032 z"
         id="path1177" />
      <path
         d="m 164.05664,223.1134 -2.12891,1.79687 -2.28515,-1.11328 -15.6836,16.77735 v 12.34375 l 0.80079,-0.33203 v 1.21093 l -4.00391,1.58203 v -1.1914 l 0.80078,-0.3125 v -29.80469 l -0.80078,0.3125 v -1.19141 l 4.00391,-1.60156 v 1.19141 l -0.80079,0.33203 v 8.55469 l 9.27735,-10.11719 3.39844,1.5625 -2.12891,1.79687 -2.26563,-1.09375 -8.28125,9.04297 v 6.50391 l 16.69922,-17.8125 z"
         id="path1179" />
      <path
         d="m 200.58008,232.91809 -1.44531,0.95703 v 19.04297 l 0.80078,-0.33203 v 1.21093 l -4.00391,1.58203 v -1.1914 l 0.80078,-0.3125 v -20.64453 l -11.60156,-7.28516 v 26.97266 l 0.80078,-0.33203 v 1.21093 l -4.00391,1.58203 v -1.1914 l 0.80079,-0.3125 v -29.41406 l -0.46875,-0.3125 2.10937,-1.79688 z"
         id="path1181" />
      <path
         d="m 231.6543,243.46496 -4.33594,2.85156 -7.59766,-5.76171 v 12.36328 l 0.80078,-0.33203 v 1.21093 l -4.0039,1.58203 v -1.1914 l 0.80078,-0.3125 v -15.11719 l -9.08203,-6.89453 -2.38281,1.64062 -0.44922,-0.76171 4.3164,-2.83204 7.59766,5.72266 v -11.5625 l -0.80078,0.3125 v -1.19141 l 4.0039,-1.60156 v 1.19141 l -0.80078,0.33203 v 14.31641 l 9.08203,6.875 2.40235,-1.60157 z"
         id="path1183" />
      <path
         d="m 241.6543,253.79699 -4.00391,1.58203 v -1.1914 l 0.80078,-0.3125 v -29.80469 l -0.80078,0.3125 v -1.19141 l 4.00391,-1.60156 v 1.19141 l -0.80078,0.33203 v 29.80469 l 0.80078,-0.33203 z"
         id="path1185" />
      <path
         d="m 266.83008,253.79699 -4.00391,1.58203 v -1.1914 l 0.80078,-0.3125 v -18.39844 l -12.79297,8.51563 -1.21093,-0.44922 v -19.47266 l -0.80078,0.3125 v -1.19141 l 4.0039,-1.60156 v 1.19141 l -0.80078,0.33203 v 19.12109 l 14.00391,-9.375 v 20.0586 l 0.80078,-0.33203 z"
         id="path1187" />
      <path
         d="m 307.2207,231.47277 -4.3164,2.83204 -13.16407,-8.47657 v 27.08985 l 0.80079,-0.33203 v 1.21093 l -4.00391,1.58203 v -1.1914 l 0.80078,-0.3125 v -28.96485 l -12.67578,9.27735 -3.39844,-2.2461 2.10938,-1.79687 2.8125,1.36719 12.55859,-9.23828 15.46875,10.15625 2.57813,-1.71875 z"
         id="path1189" />
      <path
         d="m 343.1582,253.79699 -4.0039,1.58203 v -1.1914 l 0.80078,-0.3125 v -18.39844 l -12.79297,8.51563 -1.21094,-0.44922 v -19.47266 l -0.80078,0.3125 v -1.19141 l 4.00391,-1.60156 v 1.19141 l -0.80078,0.33203 v 19.12109 l 14.0039,-9.375 v 20.0586 l 0.80078,-0.33203 z"
         id="path1191" />
      <path
         d="m 353.62695,253.79699 -4.0039,1.58203 v -1.1914 l 0.80078,-0.3125 v -29.80469 l -0.80078,0.3125 v -1.19141 l 4.0039,-1.60156 v 1.19141 l -0.80078,0.33203 v 29.80469 l 0.80078,-0.33203 z"
         id="path1193" />
      <path
         d="m 380.50195,231.47277 -4.3164,2.83204 -13.32032,-8.35938 v 26.97266 l 0.80079,-0.33203 v 1.21093 l -4.00391,1.58203 v -1.1914 l 0.80078,-0.3125 v -29.41406 l -0.46875,-0.3125 2.10938,-1.79688 15.44921,10.07813 2.51954,-1.71875 z"
         id="path1195" />
      <path
         d="m 419.66211,231.47277 -4.31641,2.83204 -13.16406,-8.47657 v 27.08985 l 0.80078,-0.33203 v 1.21093 l -4.0039,1.58203 v -1.1914 l 0.80078,-0.3125 v -28.96485 l -12.67578,9.27735 -3.39844,-2.2461 2.10937,-1.79687 2.8125,1.36719 12.5586,-9.23828 15.46875,10.15625 2.57812,-1.71875 z"
         id="path1197" />
      <path
         d="m 428.70508,253.79699 -4.00391,1.58203 v -1.1914 l 0.80078,-0.3125 v -29.80469 l -0.80078,0.3125 v -1.19141 l 4.00391,-1.60156 v 1.19141 l -0.80078,0.33203 v 29.80469 l 0.80078,-0.33203 z"
         id="path1199" />
      <path
         d="m 460.99023,243.46496 -4.33593,2.85156 -7.59766,-5.76171 v 12.36328 l 0.80078,-0.33203 v 1.21093 l -4.0039,1.58203 v -1.1914 l 0.80078,-0.3125 v -15.11719 l -9.08203,-6.89453 -2.38282,1.64062 -0.44922,-0.76171 4.31641,-2.83204 7.59766,5.72266 v -11.5625 l -0.80078,0.3125 v -1.19141 l 4.0039,-1.60156 v 1.19141 l -0.80078,0.33203 v 14.31641 l 9.08203,6.875 2.40235,-1.60157 z"
         id="path1201" />
      <path
         d="m 498.5293,232.91809 -1.44532,0.95703 v 19.04297 l 0.80079,-0.33203 v 1.21093 l -4.00391,1.58203 v -1.1914 l 0.80078,-0.3125 v -20.64453 l -11.60156,-7.28516 v 26.97266 l 0.80078,-0.33203 v 1.21093 l -4.00391,1.58203 v -1.1914 l 0.80078,-0.3125 v -29.41406 l -0.46875,-0.3125 2.10938,-1.79688 z"
         id="path1203" />
      <path
         d="m 522.49414,253.79699 -4.00391,1.58203 v -1.1914 l 0.80079,-0.3125 v -18.39844 l -12.79297,8.51563 -1.21094,-0.44922 v -19.47266 l -0.80078,0.3125 v -1.19141 l 4.0039,-1.60156 v 1.19141 l -0.80078,0.33203 v 19.12109 l 14.00391,-9.375 v 20.0586 l 0.80078,-0.33203 z"
         id="path1205" />
      <path
         d="m 557.16211,237.85949 -12.44141,-5.66406 v 13.90625 z m 3.00781,-0.99609 -15.44922,10.25391 v 5.80078 l 0.80078,-0.33203 v 1.21093 l -4.0039,1.58203 v -1.1914 l 0.80078,-0.3125 v -29.80469 l -0.80078,0.3125 v -1.19141 l 4.0039,-1.60156 v 1.19141 l -0.80078,0.33203 v 6.30859 z"
         id="path1207" />
      <path
         d="m 596.9668,253.79699 -4.00391,1.58203 v -1.1914 l 0.80078,-0.3125 v -29.72656 q -3.24219,2.1289 -6.42578,4.25781 -3.18359,2.10937 -6.42578,4.21875 -2.92969,-1.73828 -5.85938,-3.39844 -2.91015,-1.67969 -5.85937,-3.39844 v 27.08985 l 0.80078,-0.33203 v 1.21093 l -4.00391,1.58203 v -1.1914 l 0.80079,-0.3125 v -29.45313 l -0.46875,-0.27343 2.10937,-1.79688 14.12109,8.20313 13.20313,-8.76954 0.44922,0.56641 h -0.0391 v 30.56641 l 0.80078,-0.33203 z"
         id="path1209" />
      <path
         d="m 618.95898,231.14074 -12.4414,-5.66406 v 13.90625 z m 4.00391,20 -4.31641,2.85157 -12.1289,-10.91797 v 9.84375 l 0.80078,-0.33203 v 1.21093 l -4.00391,1.58203 v -1.1914 l 0.80078,-0.3125 v -29.53125 l -0.46875,-0.19531 2.10938,-1.79688 16.21094,7.79297 -14.80469,9.84375 12.96875,11.99219 2.38281,-1.60157 z"
         id="path1211" />
      <path
         d="m 52.748047,280.69836 -2.109375,1.79688 -2.34375,-1.13282 -8.085938,8.4961 9.511719,10.76172 2.226563,-1.52344 0.429687,0.76172 -4.316406,2.83203 -9.902344,-11.875 11.210938,-11.67969 z"
         id="path1213" />
      <path
         d="m 77.494141,285.58117 -1.445313,0.95703 v 19.04297 l 0.800781,-0.33203 v 1.21094 l -4.003906,1.58203 v -1.19141 l 0.800781,-0.3125 v -20.64453 l -11.601562,-7.28515 v 26.97265 l 0.800781,-0.33203 v 1.21094 l -4.003906,1.58203 v -1.19141 l 0.800781,-0.3125 v -29.41406 l -0.46875,-0.3125 2.109375,-1.79687 z"
         id="path1215" />
      <path
         d="m 98.412109,283.80383 -12.441406,-5.66406 v 13.90625 z m 4.003911,20 -4.316411,2.85156 -12.128906,-10.91797 v 9.84375 l 0.800781,-0.33203 v 1.21094 l -4.003906,1.58203 v -1.19141 l 0.800781,-0.3125 v -29.53125 l -0.46875,-0.19531 2.109375,-1.79687 16.210936,7.79297 -14.804686,9.84375 12.96875,11.99218 2.382816,-1.60156 z"
         id="path1217" />
      <path
         d="m 122.8457,284.81945 -10.91797,-6.32812 v 13.59375 z m 13.65235,4.92188 v -12.92969 l -10.41016,6.875 z m 3.20312,16.71875 -4.0039,1.58203 v -1.19141 l 0.80078,-0.3125 v -13.80859 l -12.85157,-7.44141 -11.71875,7.75391 v 12.53906 l 0.80079,-0.33203 v 1.21094 l -4.00391,1.58203 v -1.19141 l 0.80078,-0.3125 v -29.45312 l -0.46875,-0.27344 2.10938,-1.79687 14.12109,8.20312 13.20312,-8.76953 0.44922,0.56641 h -0.0391 v 30.5664 l 0.80078,-0.33203 z"
         id="path1219" />
      <path
         d="m 166.6543,288.21789 -9.84375,-10.80078 -7.79297,8.20313 9.66797,10.91796 z m 2.28515,-1.25 -9.6875,10.15625 6.75782,7.67578 2.32421,-1.58203 0.42969,0.76172 -4.3164,2.83203 -7.03125,-7.7539 -8.04688,8.39843 -3.39844,-1.5625 2.12891,-1.79687 2.30469,1.11328 6.48437,-6.75781 -10.39062,-11.48438 11.67968,-12.07031 z"
         id="path1221" />
      <path
         d="m 193.66602,285.58117 -1.44532,0.95703 v 19.04297 l 0.80078,-0.33203 v 1.21094 l -4.0039,1.58203 v -1.19141 l 0.80078,-0.3125 v -20.64453 l -11.60156,-7.28515 v 26.97265 l 0.80078,-0.33203 v 1.21094 l -4.00391,1.58203 v -1.19141 l 0.80078,-0.3125 v -29.41406 l -0.46875,-0.3125 2.10938,-1.79687 z"
         id="path1223" />
      <path
         d="m 214.85742,291.5382 -11.60156,-12.4414 v 25.11719 z m 14.00391,11.26954 v -25.35157 l -11.64063,12.71485 z m 3.20312,3.65234 -4.0039,1.58203 v -1.19141 l 0.80078,-0.3125 -13.4375,-14.41406 -12.16797,13.45703 0.80078,-0.33203 v 1.21094 l -4.00391,1.58203 v -1.19141 l 0.80079,-0.3125 v -29.80468 l -0.80079,0.3125 v -1.19141 l 4.00391,-1.60156 v 1.1914 l -0.3125,0.13672 12.91016,13.98438 11.40625,-12.51953 v -1.19141 l 4.0039,-1.60156 v 1.1914 l -0.80078,0.33204 v 29.80468 l 0.80078,-0.33203 z"
         id="path1225" />
      <path
         d="m 270.67773,306.46008 -4.0039,1.58203 v -1.19141 l 0.80078,-0.3125 v -29.72656 q -3.24219,2.12891 -6.42578,4.25781 -3.1836,2.10938 -6.42578,4.21875 -2.92969,-1.73828 -5.85938,-3.39843 -2.91015,-1.67969 -5.85937,-3.39844 v 27.08984 l 0.80078,-0.33203 v 1.21094 l -4.00391,1.58203 v -1.19141 l 0.80078,-0.3125 v -29.45312 l -0.46875,-0.27344 2.10938,-1.79687 14.12109,8.20312 13.20313,-8.76953 0.44922,0.56641 h -0.0391 v 30.5664 l 0.80078,-0.33203 z"
         id="path1227" />
      <path
         d="m 305.87305,283.80383 -12.44141,-5.66406 v 13.90625 z m 3.00781,-0.99609 -2.12891,1.40625 h -0.0391 l -13.28125,8.82812 v 12.53906 l 0.80078,-0.33203 v 1.21094 l -4.0039,1.58203 v -1.19141 l 0.80078,-0.3125 v -29.53125 l -0.46875,-0.19531 2.10937,-1.79687 z"
         id="path1229" />
      <path
         d="m 332.88477,285.58117 -1.44532,0.95703 v 19.04297 l 0.80078,-0.33203 v 1.21094 l -4.0039,1.58203 v -1.19141 l 0.80078,-0.3125 v -20.64453 l -11.60156,-7.28515 v 26.97265 l 0.80078,-0.33203 v 1.21094 l -4.00391,1.58203 v -1.19141 l 0.80078,-0.3125 v -29.41406 l -0.46875,-0.3125 2.10938,-1.79687 z"
         id="path1231" />
      <path
         d="m 373.19727,284.13586 -4.31641,2.83203 -13.16406,-8.47656 v 27.08984 l 0.80078,-0.33203 v 1.21094 l -4.00391,1.58203 v -1.19141 l 0.80078,-0.3125 v -28.96484 l -12.67578,9.27734 -3.39844,-2.24609 2.10938,-1.79687 2.8125,1.36718 12.55859,-9.23828 15.46875,10.15625 2.57813,-1.71875 z"
         id="path1233" />
      <path
         d="m 393.04102,295.32727 v -4.16016 l -11.60157,-7.28516 v 3.88672 z m 3.20312,11.13281 -4.00391,1.58203 v -1.19141 l 0.80079,-0.3125 v -8.35937 l -11.60157,-7.28516 v 14.6875 l 0.80078,-0.33203 v 1.21094 l -4.0039,1.58203 v -1.19141 l 0.80078,-0.3125 v -29.80468 l -0.80078,0.3125 v -1.19141 l 4.0039,-1.60156 v 1.1914 l -0.80078,0.33204 v 5 l 11.60157,7.55859 v -11.60156 l -0.80079,0.3125 v -1.19141 l 4.00391,-1.60156 v 1.1914 l -0.80078,0.33204 v 29.80468 l 0.80078,-0.33203 z"
         id="path1235" />
      <path
         d="m 434.81836,306.46008 -4.00391,1.58203 v -1.19141 l 0.80078,-0.3125 v -29.72656 q -3.24218,2.12891 -6.42578,4.25781 -3.18359,2.10938 -6.42578,4.21875 -2.92969,-1.73828 -5.85937,-3.39843 -2.91016,-1.67969 -5.85938,-3.39844 v 27.08984 l 0.80078,-0.33203 v 1.21094 l -4.0039,1.58203 v -1.19141 l 0.80078,-0.3125 v -29.45312 l -0.46875,-0.27344 2.10937,-1.79687 14.1211,8.20312 13.20312,-8.76953 0.44922,0.56641 h -0.0391 v 30.5664 l 0.80078,-0.33203 z"
         id="path1237" />
      <path
         d="m 456.81055,283.80383 -12.44141,-5.66406 v 13.90625 z m 4.0039,20 -4.3164,2.85156 -12.12891,-10.91797 v 9.84375 l 0.80078,-0.33203 v 1.21094 l -4.0039,1.58203 v -1.19141 l 0.80078,-0.3125 v -29.53125 l -0.46875,-0.19531 2.10937,-1.79687 16.21094,7.79297 -14.80469,9.84375 12.96875,11.99218 2.38281,-1.60156 z"
         id="path1239" />
      <path
         d="m 484.70117,306.46008 -4.0039,1.58203 v -1.19141 l 0.80078,-0.3125 v -18.39843 l -12.79297,8.51562 -1.21094,-0.44922 v -19.47265 l -0.80078,0.3125 v -1.19141 l 4.00391,-1.60156 v 1.1914 l -0.80079,0.33204 v 19.12109 l 14.00391,-9.375 v 20.05859 l 0.80078,-0.33203 z"
         id="path1241" />
      <path
         d="m 525.0918,284.13586 -4.31641,2.83203 -13.16406,-8.47656 v 27.08984 l 0.80078,-0.33203 v 1.21094 l -4.00391,1.58203 v -1.19141 l 0.80078,-0.3125 v -28.96484 l -12.67578,9.27734 -3.39843,-2.24609 2.10937,-1.79687 2.8125,1.36718 12.55859,-9.23828 15.46875,10.15625 2.57813,-1.71875 z"
         id="path1243" />
      <path
         d="m 561.0293,306.46008 -4.00391,1.58203 v -1.19141 l 0.80078,-0.3125 v -18.39843 l -12.79297,8.51562 -1.21093,-0.44922 v -19.47265 l -0.80079,0.3125 v -1.19141 l 4.00391,-1.60156 v 1.1914 l -0.80078,0.33204 v 19.12109 l 14.00391,-9.375 v 20.05859 l 0.80078,-0.33203 z"
         id="path1245" />
      <path
         d="m 598.4707,306.46008 -4.0039,1.58203 v -1.19141 l 0.80078,-0.3125 v -29.72656 q -3.24219,2.12891 -6.42578,4.25781 -3.1836,2.10938 -6.42578,4.21875 -2.92969,-1.73828 -5.85938,-3.39843 -2.91016,-1.67969 -5.85937,-3.39844 v 27.08984 l 0.80078,-0.33203 v 1.21094 l -4.00391,1.58203 v -1.19141 l 0.80078,-0.3125 v -29.45312 l -0.46875,-0.27344 2.10938,-1.79687 14.12109,8.20312 13.20313,-8.76953 0.44921,0.56641 h -0.0391 v 30.5664 l 0.80078,-0.33203 z"
         id="path1247" />
      <path
         d="m 58.802734,340.88098 -9.84375,-10.80078 -7.792968,8.20312 9.667968,10.91797 z m 2.285157,-1.25 -9.6875,10.15625 6.757812,7.67578 2.324219,-1.58203 0.429687,0.76172 -4.316406,2.83203 -7.03125,-7.75391 -8.046875,8.39844 -3.398437,-1.5625 2.128906,-1.79688 2.304687,1.11328 6.484375,-6.75781 -10.390625,-11.48437 11.679688,-12.07032 z"
         id="path1249" />
      <path
         d="m 86.869141,336.79895 -4.316407,2.83203 -13.320312,-8.35938 v 26.97266 l 0.800781,-0.33203 v 1.21093 l -4.003906,1.58204 v -1.19141 l 0.800781,-0.3125 v -29.41406 l -0.46875,-0.3125 2.109375,-1.79688 15.449219,10.07813 2.519531,-1.71875 z"
         id="path1251" />
      <path
         d="m 110.32617,338.24426 -1.44531,0.95703 v 19.04297 l 0.80078,-0.33203 v 1.21093 l -4.00391,1.58204 v -1.19141 l 0.80079,-0.3125 V 338.55676 L 94.876953,331.2716 v 26.97266 l 0.800781,-0.33203 v 1.21093 l -4.003906,1.58204 v -1.19141 l 0.800781,-0.3125 v -29.41406 l -0.46875,-0.3125 2.109375,-1.79688 z"
         id="path1253" />
      <path
         d="m 151.79102,328.63488 -2.10938,1.79688 -2.28516,-1.09375 -13.08593,14.14062 v 14.76563 l 0.80078,-0.33203 v 1.21093 l -4.00391,1.58204 v -1.19141 l 0.80078,-0.3125 v -14.60938 l -14.14062,-14.76562 -2.08985,1.44531 -0.44921,-0.76172 4.3164,-2.83203 12.36328,13.24219 V 329.3966 l -0.80078,0.3125 v -1.1914 l 4.00391,-1.60157 v 1.19141 l -0.80078,0.33203 v 13.82813 l 14.08203,-15.19532 z"
         id="path1255" />
      <path
         d="m 204.44727,336.79895 -4.31641,2.83203 -13.16406,-8.47657 v 27.08985 l 0.80078,-0.33203 v 1.21093 l -4.00391,1.58204 v -1.19141 l 0.80078,-0.3125 v -28.96484 l -12.67578,9.27734 -3.39844,-2.24609 2.10938,-1.79688 2.8125,1.36719 12.55859,-9.23828 15.46875,10.15625 2.57813,-1.71875 z"
         id="path1257" />
      <path
         d="m 224.29102,347.99035 v -4.16015 l -11.60157,-7.28516 v 3.88672 z m 3.20312,11.13281 -4.00391,1.58204 v -1.19141 l 0.80079,-0.3125 v -8.35938 l -11.60157,-7.28515 v 14.6875 l 0.80078,-0.33203 v 1.21093 l -4.0039,1.58204 v -1.19141 l 0.80078,-0.3125 V 329.3966 l -0.80078,0.3125 v -1.1914 l 4.0039,-1.60157 v 1.19141 l -0.80078,0.33203 v 5 l 11.60157,7.55859 V 329.3966 l -0.80079,0.3125 v -1.1914 l 4.00391,-1.60157 v 1.19141 l -0.80078,0.33203 v 29.80469 l 0.80078,-0.33203 z"
         id="path1259" />
      <path
         d="m 266.06836,359.12316 -4.00391,1.58204 v -1.19141 l 0.80078,-0.3125 v -29.72656 q -3.24218,2.1289 -6.42578,4.25781 -3.18359,2.10937 -6.42578,4.21875 -2.92969,-1.73828 -5.85937,-3.39844 -2.91016,-1.67969 -5.85938,-3.39844 v 27.08985 l 0.80078,-0.33203 v 1.21093 l -4.0039,1.58204 v -1.19141 l 0.80078,-0.3125 v -29.45313 l -0.46875,-0.27343 2.10937,-1.79688 14.1211,8.20313 13.20312,-8.76953 0.44922,0.5664 h -0.0391 v 30.56641 l 0.80078,-0.33203 z"
         id="path1261" />
      <path
         d="m 300.0918,329.12316 -2.12891,1.79688 -2.32422,-1.13281 -8.10547,8.49609 9.53125,10.76172 2.20703,-1.52344 0.44922,0.76172 -4.3164,2.83203 -9.92188,-11.875 11.21094,-11.67969 z m 10.01953,19.31641 -11.21094,11.67969 -3.39844,-1.5625 2.12891,-1.79688 2.32422,1.13282 8.10547,-8.4961 -9.53125,-10.76172 -2.20703,1.52344 -0.44922,-0.76172 4.3164,-2.83203 z"
         id="path1263" />
      <path
         d="m 334.7207,338.24426 -1.44531,0.95703 v 19.04297 l 0.80078,-0.33203 v 1.21093 l -4.0039,1.58204 v -1.19141 l 0.80078,-0.3125 v -20.64453 l -11.60157,-7.28516 v 26.97266 l 0.80079,-0.33203 v 1.21093 l -4.00391,1.58204 v -1.19141 l 0.80078,-0.3125 v -29.41406 l -0.46875,-0.3125 2.10938,-1.79688 z"
         id="path1265" />
      <path
         d="m 375.0332,336.79895 -4.3164,2.83203 -13.16407,-8.47657 v 27.08985 l 0.80079,-0.33203 v 1.21093 l -4.00391,1.58204 v -1.19141 l 0.80078,-0.3125 v -28.96484 l -12.67578,9.27734 -3.39844,-2.24609 2.10938,-1.79688 2.8125,1.36719 12.55859,-9.23828 15.46875,10.15625 2.57813,-1.71875 z"
         id="path1267" />
      <path
         d="m 397.65039,359.12316 -4.00391,1.58204 v -1.19141 l 0.80079,-0.3125 v -18.39844 l -12.79297,8.51563 -1.21094,-0.44922 V 329.3966 l -0.80078,0.3125 v -1.1914 l 4.0039,-1.60157 v 1.19141 l -0.80078,0.33203 v 19.12109 l 14.00391,-9.375 v 20.0586 l 0.80078,-0.33203 z"
         id="path1269" />
      <path
         d="m 435.0918,359.12316 -4.00391,1.58204 v -1.19141 l 0.80078,-0.3125 v -29.72656 q -3.24219,2.1289 -6.42578,4.25781 -3.18359,2.10937 -6.42578,4.21875 -2.92969,-1.73828 -5.85938,-3.39844 -2.91015,-1.67969 -5.85937,-3.39844 v 27.08985 l 0.80078,-0.33203 v 1.21093 l -4.00391,1.58204 v -1.19141 l 0.80079,-0.3125 v -29.45313 l -0.46875,-0.27343 2.10937,-1.79688 14.12109,8.20313 13.20313,-8.76953 0.44922,0.5664 h -0.0391 v 30.56641 l 0.80078,-0.33203 z"
         id="path1271" />
      <path
         d="m 477.72852,328.43957 -2.12891,1.79688 -2.28516,-1.11329 -15.68359,16.77735 v 12.34375 l 0.80078,-0.33203 v 1.21093 l -4.00391,1.58204 v -1.19141 l 0.80079,-0.3125 V 329.3966 l -0.80079,0.3125 v -1.1914 l 4.00391,-1.60157 v 1.19141 l -0.80078,0.33203 v 8.55469 l 9.27734,-10.11719 3.39844,1.5625 -2.12891,1.79688 -2.26562,-1.09375 -8.28125,9.04296 v 6.50391 l 16.69922,-17.8125 z"
         id="path1273" />
      <path
         d="m 497.24023,336.46691 -12.4414,-5.66406 v 13.90625 z m 4.00391,20 -4.31641,2.85157 -12.1289,-10.91797 v 9.84375 l 0.80078,-0.33203 v 1.21093 l -4.00391,1.58204 v -1.19141 l 0.80078,-0.3125 v -29.53125 l -0.46875,-0.19531 2.10938,-1.79688 16.21094,7.79297 -14.80469,9.84375 12.96875,11.99219 2.38281,-1.60156 z"
         id="path1275" />
      <path
         d="m 538.5293,359.12316 -4.00391,1.58204 v -1.19141 l 0.80078,-0.3125 v -29.72656 q -3.24219,2.1289 -6.42578,4.25781 -3.18359,2.10937 -6.42578,4.21875 -2.92969,-1.73828 -5.85938,-3.39844 -2.91015,-1.67969 -5.85937,-3.39844 v 27.08985 l 0.80078,-0.33203 v 1.21093 l -4.00391,1.58204 v -1.19141 l 0.80079,-0.3125 v -29.45313 l -0.46875,-0.27343 2.10937,-1.79688 14.12109,8.20313 13.20313,-8.76953 0.44922,0.5664 h -0.0391 v 30.56641 l 0.80078,-0.33203 z"
         id="path1277" />
      <path
         d="m 570.63867,338.06848 -2.1289,1.79687 -2.79297,-1.34765 -7.01172,4.58984 v 15.13672 l 0.80078,-0.33203 v 1.21093 l -4.00391,1.58204 v -1.19141 l 0.80078,-0.3125 V 344.7091 l -8.55468,5.64453 -3.39844,-1.5625 2.12891,-1.79687 2.79296,1.36719 7.03125,-4.64844 V 329.3966 l -0.80078,0.3125 v -1.1914 l 4.00391,-1.60157 v 1.19141 l -0.80078,0.33203 v 13.67188 l 8.53515,-5.60547 z"
         id="path1279" />
      <path
         d="m 594.56445,338.24426 -1.44531,0.95703 v 19.04297 l 0.80078,-0.33203 v 1.21093 l -4.0039,1.58204 v -1.19141 l 0.80078,-0.3125 v -20.64453 l -11.60157,-7.28516 v 26.97266 l 0.80079,-0.33203 v 1.21093 l -4.00391,1.58204 v -1.19141 l 0.80078,-0.3125 v -29.41406 l -0.46875,-0.3125 2.10938,-1.79688 z"
         id="path1281" />
      <path
         d="m 631.84961,359.12316 -4.00391,1.58204 v -1.19141 l 0.80078,-0.3125 v -18.39844 l -12.79296,8.51563 -1.21094,-0.44922 V 329.3966 l -0.80078,0.3125 v -1.1914 l 4.0039,-1.60157 v 1.19141 l -0.80078,0.33203 v 19.12109 l 14.00391,-9.375 v 20.0586 l 0.80078,-0.33203 z"
         id="path1283" />
      <path
         d="m 669.29102,359.12316 -4.00391,1.58204 v -1.19141 l 0.80078,-0.3125 v -29.72656 q -3.24219,2.1289 -6.42578,4.25781 -3.18359,2.10937 -6.42578,4.21875 -2.92969,-1.73828 -5.85938,-3.39844 -2.91015,-1.67969 -5.85937,-3.39844 v 27.08985 l 0.80078,-0.33203 v 1.21093 l -4.00391,1.58204 v -1.19141 l 0.80078,-0.3125 v -29.45313 l -0.46875,-0.27343 2.10938,-1.79688 14.12109,8.20313 13.20313,-8.76953 0.44922,0.5664 h -0.0391 v 30.56641 l 0.80079,-0.33203 z"
         id="path1285" />
      <path
         d="m 696.0293,336.79895 -4.31641,2.83203 -13.32031,-8.35938 v 26.97266 l 0.80078,-0.33203 v 1.21093 l -4.00391,1.58204 v -1.19141 l 0.80078,-0.3125 v -29.41406 l -0.46875,-0.3125 2.10938,-1.79688 15.44922,10.07813 2.51953,-1.71875 z"
         id="path1287" />
      <path
         d="m 58.802734,393.54406 -9.84375,-10.80078 -7.792968,8.20313 9.667968,10.91797 z m 2.285157,-1.25 -9.6875,10.15625 6.757812,7.67578 2.324219,-1.58203 0.429687,0.76172 -4.316406,2.83203 -7.03125,-7.7539 -8.046875,8.39843 -3.398437,-1.5625 2.128906,-1.79687 2.304687,1.11328 6.484375,-6.75781 -10.390625,-11.48438 11.679688,-12.07031 z"
         id="path1289" />
      <path
         d="m 89.447266,381.10266 -2.128907,1.79687 -2.285156,-1.11328 -15.683594,16.77734 v 12.34375 l 0.800782,-0.33203 v 1.21094 l -4.003907,1.58203 v -1.1914 l 0.800782,-0.3125 v -29.80469 l -0.800782,0.3125 v -1.19141 l 4.003907,-1.60156 v 1.19141 l -0.800782,0.33203 v 8.55468 l 9.277344,-10.11718 3.398438,1.5625 -2.128907,1.79687 -2.265625,-1.09375 -8.28125,9.04297 v 6.50391 l 16.699219,-17.8125 z"
         id="path1291" />
      <path
         d="m 122.63086,395.84875 -12.44141,-5.66406 v 13.90625 z m 3.00781,-0.99609 -15.44922,10.2539 v 5.80078 l 0.80078,-0.33203 v 1.21094 l -4.0039,1.58203 v -1.1914 l 0.80078,-0.3125 v -29.80469 l -0.80078,0.3125 v -1.19141 l 4.0039,-1.60156 v 1.19141 l -0.80078,0.33203 v 6.30859 z"
         id="path1293" />
      <path
         d="m 162.43555,411.78625 -4.00391,1.58203 v -1.1914 l 0.80078,-0.3125 v -29.72657 q -3.24219,2.12891 -6.42578,4.25782 -3.18359,2.10937 -6.42578,4.21875 -2.92969,-1.73829 -5.85938,-3.39844 -2.91015,-1.67969 -5.85937,-3.39844 v 27.08984 l 0.80078,-0.33203 v 1.21094 l -4.00391,1.58203 v -1.1914 l 0.80079,-0.3125 v -29.45313 l -0.46875,-0.27344 2.10937,-1.79687 14.12109,8.20312 13.20313,-8.76953 0.44922,0.56641 h -0.0391 v 30.5664 l 0.80078,-0.33203 z"
         id="path1295" />
      <path
         d="m 196.45898,381.78625 -2.1289,1.79688 -2.32422,-1.13282 -8.10547,8.4961 9.53125,10.76172 2.20703,-1.52344 0.44922,0.76172 -4.31641,2.83203 -9.92187,-11.875 11.21094,-11.67969 z m 10.01954,19.31641 -11.21094,11.67968 -3.39844,-1.5625 2.12891,-1.79687 2.32422,1.13281 8.10546,-8.49609 -9.53125,-10.76172 -2.20703,1.52344 -0.44922,-0.76172 4.31641,-2.83203 z"
         id="path1297" />
      <path
         d="m 231.08789,390.90734 -1.44531,0.95704 v 19.04296 l 0.80078,-0.33203 v 1.21094 l -4.00391,1.58203 v -1.1914 l 0.80078,-0.3125 v -20.64454 l -11.60156,-7.28515 v 26.97265 l 0.80078,-0.33203 v 1.21094 l -4.0039,1.58203 v -1.1914 l 0.80078,-0.3125 v -29.41407 l -0.46875,-0.3125 2.10937,-1.79687 z"
         id="path1299" />
      <path
         d="m 271.40039,389.46203 -4.31641,2.83203 -13.16406,-8.47656 v 27.08984 l 0.80078,-0.33203 v 1.21094 l -4.0039,1.58203 v -1.1914 l 0.80078,-0.3125 v -28.96485 l -12.67578,9.27735 -3.39844,-2.2461 2.10937,-1.79687 2.8125,1.36718 12.5586,-9.23828 15.46875,10.15625 2.57812,-1.71875 z"
         id="path1301" />
      <path
         d="m 310.36523,389.46203 -4.3164,2.83203 -13.16406,-8.47656 v 27.08984 l 0.80078,-0.33203 v 1.21094 l -4.00391,1.58203 v -1.1914 l 0.80078,-0.3125 v -28.96485 l -12.67578,9.27735 -3.39844,-2.2461 2.10938,-1.79687 2.8125,1.36718 12.55859,-9.23828 15.46875,10.15625 2.57813,-1.71875 z"
         id="path1303" />
      <path
         d="m 346.38086,411.78625 -4.00391,1.58203 v -1.1914 l 0.80078,-0.3125 v -29.72657 q -3.24218,2.12891 -6.42578,4.25782 -3.18359,2.10937 -6.42578,4.21875 -2.92969,-1.73829 -5.85937,-3.39844 -2.91016,-1.67969 -5.85938,-3.39844 v 27.08984 l 0.80078,-0.33203 v 1.21094 l -4.0039,1.58203 v -1.1914 l 0.80078,-0.3125 v -29.45313 l -0.46875,-0.27344 2.10937,-1.79687 14.1211,8.20312 13.20312,-8.76953 0.44922,0.56641 h -0.0391 v 30.5664 l 0.80078,-0.33203 z"
         id="path1305" />
      <path
         d="m 371.41992,411.78625 -4.0039,1.58203 v -1.1914 l 0.80078,-0.3125 v -18.39844 l -12.79297,8.51562 -1.21094,-0.44922 v -19.47265 l -0.80078,0.3125 v -1.19141 l 4.00391,-1.60156 v 1.19141 l -0.80079,0.33203 v 19.12109 l 14.00391,-9.375 v 20.05859 l 0.80078,-0.33203 z"
         id="path1307" />
      <path
         d="m 409.42773,390.90734 -1.44531,0.95704 v 19.04296 l 0.80078,-0.33203 v 1.21094 l -4.0039,1.58203 v -1.1914 l 0.80078,-0.3125 v -20.64454 l -11.60156,-7.28515 v 26.97265 l 0.80078,-0.33203 v 1.21094 l -4.00391,1.58203 v -1.1914 l 0.80078,-0.3125 v -29.41407 l -0.46875,-0.3125 2.10938,-1.79687 z"
         id="path1309" />
      <path
         d="m 433.39258,411.78625 -4.00391,1.58203 v -1.1914 l 0.80078,-0.3125 v -18.39844 l -12.79297,8.51562 -1.21093,-0.44922 v -19.47265 l -0.80078,0.3125 v -1.19141 l 4.0039,-1.60156 v 1.19141 l -0.80078,0.33203 v 19.12109 l 14.00391,-9.375 v 20.05859 l 0.80078,-0.33203 z"
         id="path1311" />
      <path
         d="m 467.98242,396.86438 -11.60156,-12.44141 v 25.11719 z m 14.00391,11.26953 v -25.35157 l -11.64063,12.71485 z m 3.20312,3.65234 -4.0039,1.58203 v -1.1914 l 0.80078,-0.3125 -13.4375,-14.41407 -12.16797,13.45703 0.80078,-0.33203 v 1.21094 l -4.00391,1.58203 v -1.1914 l 0.80079,-0.3125 v -29.80469 l -0.80079,0.3125 v -1.19141 l 4.00391,-1.60156 v 1.19141 l -0.3125,0.13671 12.91016,13.98438 11.40625,-12.51953 v -1.19141 l 4.0039,-1.60156 v 1.19141 l -0.80078,0.33203 v 29.80468 l 0.80078,-0.33203 z"
         id="path1313" />
      <path
         d="m 496.83008,411.78625 -4.00391,1.58203 v -1.1914 l 0.80078,-0.3125 v -29.80469 l -0.80078,0.3125 v -1.19141 l 4.00391,-1.60156 v 1.19141 l -0.80078,0.33203 v 29.80468 l 0.80078,-0.33203 z"
         id="path1315" />
      <path
         d="m 539.13477,381.10266 -2.08985,1.79687 -2.28515,-1.09375 -12.53907,13.69141 13.4961,14.6289 2.32422,-1.58203 0.41015,0.76172 -4.3164,2.83203 -13.71094,-14.6875 -14.04297,15.33203 -3.39844,-1.5625 2.12891,-1.79687 2.24609,1.07422 12.51953,-13.63281 -14.16015,-15.17579 -2.08985,1.44532 -0.42968,-0.76172 4.29687,-2.83203 14.16016,15.35156 14.08203,-15.35156 z"
         id="path1317" />
      <path
         d="m 569.79883,401.45422 -4.33594,2.85156 -7.59766,-5.76172 v 12.36328 l 0.80079,-0.33203 v 1.21094 l -4.00391,1.58203 v -1.1914 l 0.80078,-0.3125 v -15.11719 l -9.08203,-6.89453 -2.38281,1.64062 -0.44922,-0.76172 4.3164,-2.83203 7.59766,5.72266 v -11.5625 l -0.80078,0.3125 v -1.19141 l 4.00391,-1.60156 v 1.19141 l -0.80079,0.33203 v 14.3164 l 9.08204,6.875 2.40234,-1.60156 z"
         id="path1319" />
      <path
         d="m 606.77148,411.78625 -4.0039,1.58203 v -1.1914 l 0.80078,-0.3125 v -29.72657 q -3.24219,2.12891 -6.42578,4.25782 -3.1836,2.10937 -6.42578,4.21875 -2.92969,-1.73829 -5.85938,-3.39844 -2.91015,-1.67969 -5.85937,-3.39844 v 27.08984 l 0.80078,-0.33203 v 1.21094 l -4.00391,1.58203 v -1.1914 l 0.80078,-0.3125 v -29.45313 l -0.46875,-0.27344 2.10938,-1.79687 14.12109,8.20312 13.20313,-8.76953 0.44922,0.56641 h -0.0391 v 30.5664 l 0.80078,-0.33203 z"
         id="path1321" />
      <path
         d="m 631.81055,411.78625 -4.00391,1.58203 v -1.1914 l 0.80078,-0.3125 v -18.39844 l -12.79297,8.51562 -1.21093,-0.44922 v -19.47265 l -0.80079,0.3125 v -1.19141 l 4.00391,-1.60156 v 1.19141 l -0.80078,0.33203 v 19.12109 l 14.00391,-9.375 v 20.05859 l 0.80078,-0.33203 z"
         id="path1323" />
      <path
         d="m 53.998047,438.76574 -4.316406,2.83203 -7.929688,-5 v 4.35547 l 9.003906,5.87891 -0.01953,0.0391 2.421875,-1.66015 0.429688,0.76171 -4.316407,2.83204 -7.519531,-4.72657 v 19.49219 l 0.800781,-0.33203 v 1.21094 l -4.003906,1.58203 v -1.19141 l 0.800781,-0.3125 V 435.1134 l -0.46875,-0.3125 2.109375,-1.79688 10.175782,6.64063 2.402343,-1.64063 z"
         id="path1325" />
      <path
         d="m 82.083984,433.76574 -2.128906,1.79688 -2.285156,-1.11328 -15.683594,16.77734 v 12.34375 l 0.800781,-0.33203 v 1.21094 l -4.003906,1.58203 v -1.19141 l 0.800781,-0.3125 v -29.80469 l -0.800781,0.3125 v -1.1914 l 4.003906,-1.60156 v 1.1914 l -0.800781,0.33203 v 8.55469 l 9.277344,-10.11719 3.398437,1.5625 -2.128906,1.79688 -2.265625,-1.09375 -8.28125,9.04297 v 6.5039 l 16.699219,-17.8125 z"
         id="path1327" />
      <path
         d="m 108.91992,433.76574 -2.1289,1.79688 -2.28516,-1.11328 -15.683594,16.77734 v 12.34375 l 0.800781,-0.33203 v 1.21094 l -4.003906,1.58203 v -1.19141 l 0.800781,-0.3125 v -29.80469 l -0.800781,0.3125 v -1.1914 l 4.003906,-1.60156 v 1.1914 l -0.800781,0.33203 v 8.55469 l 9.277343,-10.11719 3.398441,1.5625 -2.128909,1.79688 -2.265625,-1.09375 -8.28125,9.04297 v 6.5039 l 16.699214,-17.8125 z"
         id="path1329" />
      <path
         d="m 128.43164,441.79309 -12.44141,-5.66407 v 13.90625 z m 4.00391,20 -4.31641,2.85156 -12.12891,-10.91797 v 9.84375 l 0.80079,-0.33203 v 1.21094 l -4.00391,1.58203 v -1.19141 l 0.80078,-0.3125 v -29.53125 l -0.46875,-0.19531 2.10938,-1.79688 16.21093,7.79297 -14.80468,9.84375 12.96875,11.99219 2.38281,-1.60156 z"
         id="path1331" />
      <path
         d="m 158.23633,446.20715 -9.84375,-10.80078 -7.79297,8.20312 9.66797,10.91797 z m 2.28515,-1.25 -9.6875,10.15625 6.75782,7.67578 2.32422,-1.58203 0.42968,0.76172 -4.3164,2.83203 -7.03125,-7.75391 -8.04688,8.39844 -3.39844,-1.5625 2.12891,-1.79687 2.30469,1.11328 6.48437,-6.75782 -10.39062,-11.48437 11.67969,-12.07031 z"
         id="path1333" />
      <path
         d="m 191.71289,454.11731 -4.33594,2.85156 -7.59765,-5.76172 v 12.36328 l 0.80078,-0.33203 v 1.21094 l -4.00391,1.58203 v -1.19141 l 0.80078,-0.3125 v -15.11719 l -9.08203,-6.89453 -2.38281,1.64063 -0.44922,-0.76172 4.31641,-2.83203 7.59765,5.72265 v -11.5625 l -0.80078,0.3125 v -1.1914 l 4.00391,-1.60156 v 1.1914 l -0.80078,0.33203 v 14.31641 l 9.08203,6.875 2.40234,-1.60156 z"
         id="path1335" />
      <path
         d="m 231.63477,442.12512 -4.31641,2.83203 -13.16406,-8.47656 v 27.08984 l 0.80078,-0.33203 v 1.21094 l -4.00391,1.58203 v -1.19141 l 0.80078,-0.3125 v -28.96484 l -12.67578,9.27734 -3.39844,-2.24609 2.10938,-1.79688 2.8125,1.36719 12.55859,-9.23828 15.46875,10.15625 2.57813,-1.71875 z"
         id="path1337" />
      <path
         d="m 264.87695,448.51184 -12.4414,-5.66407 v 13.90625 z m 3.00782,-0.9961 -15.44922,10.25391 v 5.80078 l 0.80078,-0.33203 v 1.21094 l -4.00391,1.58203 v -1.19141 l 0.80078,-0.3125 v -29.80469 l -0.80078,0.3125 v -1.1914 l 4.00391,-1.60156 v 1.1914 l -0.80078,0.33203 v 6.3086 z"
         id="path1339" />
      <path
         d="m 304.68164,464.44934 -4.00391,1.58203 v -1.19141 l 0.80079,-0.3125 V 434.8009 q -3.24219,2.12891 -6.42579,4.25781 -3.18359,2.10938 -6.42578,4.21875 -2.92968,-1.73828 -5.85937,-3.39844 -2.91016,-1.67968 -5.85938,-3.39843 v 27.08984 l 0.80078,-0.33203 v 1.21094 l -4.0039,1.58203 v -1.19141 l 0.80078,-0.3125 v -29.45312 l -0.46875,-0.27344 2.10937,-1.79688 14.1211,8.20313 13.20312,-8.76953 0.44922,0.5664 h -0.0391 v 30.56641 l 0.80078,-0.33203 z"
         id="path1341" />
      <path
         d="m 347.31836,433.76574 -2.12891,1.79688 -2.28515,-1.11328 -15.6836,16.77734 v 12.34375 l 0.80078,-0.33203 v 1.21094 l -4.0039,1.58203 v -1.19141 l 0.80078,-0.3125 v -29.80469 l -0.80078,0.3125 v -1.1914 l 4.0039,-1.60156 v 1.1914 l -0.80078,0.33203 v 8.55469 l 9.27735,-10.11719 3.39843,1.5625 -2.1289,1.79688 -2.26563,-1.09375 -8.28125,9.04297 v 6.5039 l 16.69922,-17.8125 z"
         id="path1343" />
      <path
         d="m 371.57617,442.12512 -4.3164,2.83203 -13.32032,-8.35938 v 26.97266 l 0.80078,-0.33203 v 1.21094 l -4.0039,1.58203 v -1.19141 l 0.80078,-0.3125 V 435.1134 l -0.46875,-0.3125 2.10937,-1.79688 15.44922,10.07813 2.51953,-1.71875 z"
         id="path1345" />
      <path
         d="m 407.78711,464.44934 -4.00391,1.58203 v -1.19141 l 0.80078,-0.3125 V 434.8009 q -3.24218,2.12891 -6.42578,4.25781 -3.18359,2.10938 -6.42578,4.21875 -2.92969,-1.73828 -5.85937,-3.39844 -2.91016,-1.67968 -5.85938,-3.39843 v 27.08984 l 0.80078,-0.33203 v 1.21094 l -4.0039,1.58203 v -1.19141 l 0.80078,-0.3125 v -29.45312 l -0.46875,-0.27344 2.10937,-1.79688 14.1211,8.20313 13.20312,-8.76953 0.44922,0.5664 h -0.0391 v 30.56641 l 0.80078,-0.33203 z"
         id="path1347" />
      <path
         d="m 429.93555,438.76574 -4.31641,2.83203 -7.92969,-5 v 4.35547 l 9.00391,5.87891 -0.0195,0.0391 2.42187,-1.66015 0.42969,0.76171 -4.31641,2.83204 -7.51953,-4.72657 v 19.49219 l 0.80078,-0.33203 v 1.21094 l -4.0039,1.58203 v -1.19141 l 0.80078,-0.3125 V 435.1134 l -0.46875,-0.3125 2.10937,-1.79688 10.17579,6.64063 2.40234,-1.64063 z"
         id="path1349" />
      <path
         d="m 454.38867,443.57043 -1.44531,0.95703 v 19.04297 l 0.80078,-0.33203 v 1.21094 l -4.00391,1.58203 v -1.19141 l 0.80079,-0.3125 v -20.64453 l -11.60157,-7.28516 v 26.97266 l 0.80078,-0.33203 v 1.21094 l -4.0039,1.58203 v -1.19141 l 0.80078,-0.3125 V 435.1134 l -0.46875,-0.3125 2.10937,-1.79688 z"
         id="path1351" />
    </g>
  </g>
</svg>
