solid CATIA STL
  facet normal  -0.000000e+000  1.000000e+000  0.000000e+000
    outer loop
      vertex  9.000000e+000  0.000000e+000  3.000000e+000
      vertex  9.000000e+000  0.000000e+000  9.000000e+000
      vertex  1.300000e+001  0.000000e+000  9.000000e+000
    endloop
  endfacet
  facet normal  0.000000e+000  1.000000e+000  0.000000e+000
    outer loop
      vertex  9.000000e+000  0.000000e+000  3.000000e+000
      vertex  1.300000e+001  0.000000e+000  9.000000e+000
      vertex  1.300000e+001  0.000000e+000  5.000000e+000
    endloop
  endfacet
  facet normal  -0.000000e+000  1.000000e+000  0.000000e+000
    outer loop
      vertex  9.000000e+000  0.000000e+000  3.000000e+000
      vertex  1.300000e+001  0.000000e+000  5.000000e+000
      vertex  2.300000e+001  0.000000e+000  5.000000e+000
    endloop
  endfacet
  facet normal  0.000000e+000  1.000000e+000  0.000000e+000
    outer loop
      vertex  9.000000e+000  0.000000e+000  3.000000e+000
      vertex  2.300000e+001  0.000000e+000  5.000000e+000
      vertex  2.700000e+001  0.000000e+000  0.000000e+000
    endloop
  endfacet
  facet normal  0.000000e+000  1.000000e+000  0.000000e+000
    outer loop
      vertex  9.000000e+000  0.000000e+000  3.000000e+000
      vertex  2.700000e+001  0.000000e+000  0.000000e+000
      vertex  0.000000e+000  0.000000e+000  0.000000e+000
    endloop
  endfacet
  facet normal  0.000000e+000  1.000000e+000  0.000000e+000
    outer loop
      vertex  9.000000e+000  0.000000e+000  3.000000e+000
      vertex  0.000000e+000  0.000000e+000  0.000000e+000
      vertex  0.000000e+000  0.000000e+000  3.000000e+000
    endloop
  endfacet
  facet normal  0.000000e+000  1.000000e+000  0.000000e+000
    outer loop
      vertex  2.300000e+001  0.000000e+000  9.000000e+000
      vertex  2.700000e+001  0.000000e+000  9.000000e+000
      vertex  2.300000e+001  0.000000e+000  5.000000e+000
    endloop
  endfacet
  facet normal  -0.000000e+000  1.000000e+000  0.000000e+000
    outer loop
      vertex  2.300000e+001  0.000000e+000  5.000000e+000
      vertex  2.700000e+001  0.000000e+000  9.000000e+000
      vertex  2.700000e+001  0.000000e+000  0.000000e+000
    endloop
  endfacet
  facet normal  -0.000000e+000 -1.000000e+000  0.000000e+000
    outer loop
      vertex  1.100000e+001 -2.000000e+000  3.000000e+000
      vertex  1.300000e+001 -2.000000e+000  9.000000e+000
      vertex  1.100000e+001 -2.000000e+000  9.000000e+000
    endloop
  endfacet
  facet normal  0.000000e+000 -1.000000e+000  0.000000e+000
    outer loop
      vertex  1.300000e+001 -2.000000e+000  9.000000e+000
      vertex  1.100000e+001 -2.000000e+000  3.000000e+000
      vertex  1.300000e+001 -2.000000e+000  5.000000e+000
    endloop
  endfacet
  facet normal  0.000000e+000 -1.000000e+000  -0.000000e+000
    outer loop
      vertex  1.300000e+001 -2.000000e+000  5.000000e+000
      vertex  1.100000e+001 -2.000000e+000  3.000000e+000
      vertex  2.500000e+001 -2.000000e+000  3.000000e+000
    endloop
  endfacet
  facet normal  0.000000e+000 -1.000000e+000  0.000000e+000
    outer loop
      vertex  1.300000e+001 -2.000000e+000  5.000000e+000
      vertex  2.500000e+001 -2.000000e+000  3.000000e+000
      vertex  2.300000e+001 -2.000000e+000  5.000000e+000
    endloop
  endfacet
  facet normal  0.000000e+000 -1.000000e+000  0.000000e+000
    outer loop
      vertex  2.300000e+001 -2.000000e+000  5.000000e+000
      vertex  2.500000e+001 -2.000000e+000  3.000000e+000
      vertex  2.500000e+001 -2.000000e+000  9.000000e+000
    endloop
  endfacet
  facet normal  -0.000000e+000 -1.000000e+000  0.000000e+000
    outer loop
      vertex  2.300000e+001 -2.000000e+000  5.000000e+000
      vertex  2.500000e+001 -2.000000e+000  9.000000e+000
      vertex  2.300000e+001 -2.000000e+000  9.000000e+000
    endloop
  endfacet
  facet normal  0.000000e+000  0.000000e+000  1.000000e+000
    outer loop
      vertex  2.300000e+001  0.000000e+000  9.000000e+000
      vertex  2.300000e+001 -2.000000e+000  9.000000e+000
      vertex  2.700000e+001  0.000000e+000  9.000000e+000
    endloop
  endfacet
  facet normal  0.000000e+000  0.000000e+000  1.000000e+000
    outer loop
      vertex  2.700000e+001  0.000000e+000  9.000000e+000
      vertex  2.300000e+001 -2.000000e+000  9.000000e+000
      vertex  2.500000e+001 -2.000000e+000  9.000000e+000
    endloop
  endfacet
  facet normal  -0.000000e+000  0.000000e+000  1.000000e+000
    outer loop
      vertex  2.700000e+001  0.000000e+000  9.000000e+000
      vertex  2.500000e+001 -2.000000e+000  9.000000e+000
      vertex  2.700000e+001 -3.550000e+001  9.000000e+000
    endloop
  endfacet
  facet normal  0.000000e+000  0.000000e+000  1.000000e+000
    outer loop
      vertex  2.700000e+001 -3.550000e+001  9.000000e+000
      vertex  2.500000e+001 -2.000000e+000  9.000000e+000
      vertex  2.500000e+001 -3.350000e+001  9.000000e+000
    endloop
  endfacet
  facet normal  0.000000e+000  0.000000e+000  1.000000e+000
    outer loop
      vertex  2.700000e+001 -3.550000e+001  9.000000e+000
      vertex  2.500000e+001 -3.350000e+001  9.000000e+000
      vertex  9.000000e+000 -3.550000e+001  9.000000e+000
    endloop
  endfacet
  facet normal  0.000000e+000  0.000000e+000  1.000000e+000
    outer loop
      vertex  9.000000e+000 -3.550000e+001  9.000000e+000
      vertex  2.500000e+001 -3.350000e+001  9.000000e+000
      vertex  1.100000e+001 -3.350000e+001  9.000000e+000
    endloop
  endfacet
  facet normal  0.000000e+000  0.000000e+000  1.000000e+000
    outer loop
      vertex  9.000000e+000 -3.550000e+001  9.000000e+000
      vertex  1.100000e+001 -3.350000e+001  9.000000e+000
      vertex  9.000000e+000  0.000000e+000  9.000000e+000
    endloop
  endfacet
  facet normal  0.000000e+000  0.000000e+000  1.000000e+000
    outer loop
      vertex  9.000000e+000  0.000000e+000  9.000000e+000
      vertex  1.100000e+001 -3.350000e+001  9.000000e+000
      vertex  1.100000e+001 -2.000000e+000  9.000000e+000
    endloop
  endfacet
  facet normal  0.000000e+000  -0.000000e+000  1.000000e+000
    outer loop
      vertex  9.000000e+000  0.000000e+000  9.000000e+000
      vertex  1.100000e+001 -2.000000e+000  9.000000e+000
      vertex  1.300000e+001  0.000000e+000  9.000000e+000
    endloop
  endfacet
  facet normal  0.000000e+000  0.000000e+000  1.000000e+000
    outer loop
      vertex  1.300000e+001  0.000000e+000  9.000000e+000
      vertex  1.100000e+001 -2.000000e+000  9.000000e+000
      vertex  1.300000e+001 -2.000000e+000  9.000000e+000
    endloop
  endfacet
  facet normal -1.000000e+000  0.000000e+000  0.000000e+000
    outer loop
      vertex  2.300000e+001  0.000000e+000  9.000000e+000
      vertex  2.300000e+001  0.000000e+000  5.000000e+000
      vertex  2.300000e+001 -2.000000e+000  9.000000e+000
    endloop
  endfacet
  facet normal -1.000000e+000  0.000000e+000  0.000000e+000
    outer loop
      vertex  2.300000e+001 -2.000000e+000  9.000000e+000
      vertex  2.300000e+001  0.000000e+000  5.000000e+000
      vertex  2.300000e+001 -2.000000e+000  5.000000e+000
    endloop
  endfacet
  facet normal  0.000000e+000  0.000000e+000  1.000000e+000
    outer loop
      vertex  1.300000e+001 -2.000000e+000  5.000000e+000
      vertex  2.300000e+001 -2.000000e+000  5.000000e+000
      vertex  1.300000e+001  0.000000e+000  5.000000e+000
    endloop
  endfacet
  facet normal  -0.000000e+000  0.000000e+000  1.000000e+000
    outer loop
      vertex  1.300000e+001  0.000000e+000  5.000000e+000
      vertex  2.300000e+001 -2.000000e+000  5.000000e+000
      vertex  2.300000e+001  0.000000e+000  5.000000e+000
    endloop
  endfacet
  facet normal  1.000000e+000  0.000000e+000  0.000000e+000
    outer loop
      vertex  1.300000e+001  0.000000e+000  5.000000e+000
      vertex  1.300000e+001  0.000000e+000  9.000000e+000
      vertex  1.300000e+001 -2.000000e+000  5.000000e+000
    endloop
  endfacet
  facet normal  1.000000e+000  0.000000e+000  0.000000e+000
    outer loop
      vertex  1.300000e+001 -2.000000e+000  5.000000e+000
      vertex  1.300000e+001  0.000000e+000  9.000000e+000
      vertex  1.300000e+001 -2.000000e+000  9.000000e+000
    endloop
  endfacet
  facet normal  0.000000e+000  0.000000e+000  1.000000e+000
    outer loop
      vertex  7.500000e+000 -2.975000e+001  3.000000e+000
      vertex  5.427051e+000 -8.603169e+000  3.000000e+000
      vertex  6.927051e+000 -2.798664e+001  3.000000e+000
    endloop
  endfacet
  facet normal  0.000000e+000  0.000000e+000  1.000000e+000
    outer loop
      vertex  3.572949e+000 -2.689683e+001  3.000000e+000
      vertex  3.572949e+000 -8.603169e+000  3.000000e+000
      vertex  2.072949e+000 -2.798664e+001  3.000000e+000
    endloop
  endfacet
  facet normal  0.000000e+000  -0.000000e+000  1.000000e+000
    outer loop
      vertex  1.500000e+000 -2.975000e+001  3.000000e+000
      vertex  2.072949e+000 -2.798664e+001  3.000000e+000
      vertex  3.572949e+000 -8.603169e+000  3.000000e+000
    endloop
  endfacet
  facet normal  0.000000e+000  0.000000e+000  1.000000e+000
    outer loop
      vertex  9.000000e+000 -3.550000e+001  3.000000e+000
      vertex  7.500000e+000 -5.750000e+000  3.000000e+000
      vertex  6.927051e+000 -7.513356e+000  3.000000e+000
    endloop
  endfacet
  facet normal  0.000000e+000  0.000000e+000  1.000000e+000
    outer loop
      vertex  9.000000e+000 -3.550000e+001  3.000000e+000
      vertex  6.927051e+000 -7.513356e+000  3.000000e+000
      vertex  5.427051e+000 -8.603169e+000  3.000000e+000
    endloop
  endfacet
  facet normal  0.000000e+000  0.000000e+000  1.000000e+000
    outer loop
      vertex  9.000000e+000 -3.550000e+001  3.000000e+000
      vertex  5.427051e+000 -8.603169e+000  3.000000e+000
      vertex  7.500000e+000 -2.975000e+001  3.000000e+000
    endloop
  endfacet
  facet normal  0.000000e+000  0.000000e+000  1.000000e+000
    outer loop
      vertex  9.000000e+000 -3.550000e+001  3.000000e+000
      vertex  7.500000e+000 -2.975000e+001  3.000000e+000
      vertex  6.927051e+000 -3.151336e+001  3.000000e+000
    endloop
  endfacet
  facet normal  0.000000e+000  0.000000e+000  1.000000e+000
    outer loop
      vertex  9.000000e+000 -3.550000e+001  3.000000e+000
      vertex  6.927051e+000 -3.151336e+001  3.000000e+000
      vertex  5.427051e+000 -3.260317e+001  3.000000e+000
    endloop
  endfacet
  facet normal  0.000000e+000  0.000000e+000  1.000000e+000
    outer loop
      vertex  9.000000e+000 -3.550000e+001  3.000000e+000
      vertex  5.427051e+000 -3.260317e+001  3.000000e+000
      vertex  3.572949e+000 -3.260317e+001  3.000000e+000
    endloop
  endfacet
  facet normal  0.000000e+000  0.000000e+000  1.000000e+000
    outer loop
      vertex  9.000000e+000 -3.550000e+001  3.000000e+000
      vertex  3.572949e+000 -3.260317e+001  3.000000e+000
      vertex  0.000000e+000 -3.550000e+001  3.000000e+000
    endloop
  endfacet
  facet normal  0.000000e+000  0.000000e+000  1.000000e+000
    outer loop
      vertex  0.000000e+000 -3.550000e+001  3.000000e+000
      vertex  3.572949e+000 -3.260317e+001  3.000000e+000
      vertex  2.072949e+000 -3.151336e+001  3.000000e+000
    endloop
  endfacet
  facet normal  0.000000e+000  0.000000e+000  1.000000e+000
    outer loop
      vertex  0.000000e+000 -3.550000e+001  3.000000e+000
      vertex  2.072949e+000 -3.151336e+001  3.000000e+000
      vertex  1.500000e+000 -2.975000e+001  3.000000e+000
    endloop
  endfacet
  facet normal  0.000000e+000  -0.000000e+000  1.000000e+000
    outer loop
      vertex  0.000000e+000 -3.550000e+001  3.000000e+000
      vertex  1.500000e+000 -2.975000e+001  3.000000e+000
      vertex  3.572949e+000 -8.603169e+000  3.000000e+000
    endloop
  endfacet
  facet normal  0.000000e+000  0.000000e+000  1.000000e+000
    outer loop
      vertex  0.000000e+000 -3.550000e+001  3.000000e+000
      vertex  3.572949e+000 -8.603169e+000  3.000000e+000
      vertex  2.072949e+000 -7.513356e+000  3.000000e+000
    endloop
  endfacet
  facet normal  0.000000e+000  0.000000e+000  1.000000e+000
    outer loop
      vertex  0.000000e+000 -3.550000e+001  3.000000e+000
      vertex  2.072949e+000 -7.513356e+000  3.000000e+000
      vertex  1.500000e+000 -5.750000e+000  3.000000e+000
    endloop
  endfacet
  facet normal  0.000000e+000  0.000000e+000  1.000000e+000
    outer loop
      vertex  0.000000e+000  0.000000e+000  3.000000e+000
      vertex  0.000000e+000 -3.550000e+001  3.000000e+000
      vertex  1.500000e+000 -5.750000e+000  3.000000e+000
    endloop
  endfacet
  facet normal  0.000000e+000  -0.000000e+000  1.000000e+000
    outer loop
      vertex  0.000000e+000  0.000000e+000  3.000000e+000
      vertex  1.500000e+000 -5.750000e+000  3.000000e+000
      vertex  2.072949e+000 -3.986644e+000  3.000000e+000
    endloop
  endfacet
  facet normal  0.000000e+000  -0.000000e+000  1.000000e+000
    outer loop
      vertex  0.000000e+000  0.000000e+000  3.000000e+000
      vertex  2.072949e+000 -3.986644e+000  3.000000e+000
      vertex  3.572949e+000 -2.896831e+000  3.000000e+000
    endloop
  endfacet
  facet normal  0.000000e+000  -0.000000e+000  1.000000e+000
    outer loop
      vertex  0.000000e+000  0.000000e+000  3.000000e+000
      vertex  3.572949e+000 -2.896831e+000  3.000000e+000
      vertex  5.427051e+000 -2.896831e+000  3.000000e+000
    endloop
  endfacet
  facet normal  0.000000e+000  -0.000000e+000  1.000000e+000
    outer loop
      vertex  0.000000e+000  0.000000e+000  3.000000e+000
      vertex  5.427051e+000 -2.896831e+000  3.000000e+000
      vertex  9.000000e+000  0.000000e+000  3.000000e+000
    endloop
  endfacet
  facet normal  -0.000000e+000  0.000000e+000  1.000000e+000
    outer loop
      vertex  9.000000e+000  0.000000e+000  3.000000e+000
      vertex  5.427051e+000 -2.896831e+000  3.000000e+000
      vertex  6.927051e+000 -3.986644e+000  3.000000e+000
    endloop
  endfacet
  facet normal  -0.000000e+000  0.000000e+000  1.000000e+000
    outer loop
      vertex  9.000000e+000  0.000000e+000  3.000000e+000
      vertex  6.927051e+000 -3.986644e+000  3.000000e+000
      vertex  7.500000e+000 -5.750000e+000  3.000000e+000
    endloop
  endfacet
  facet normal  -0.000000e+000  0.000000e+000  1.000000e+000
    outer loop
      vertex  9.000000e+000  0.000000e+000  3.000000e+000
      vertex  7.500000e+000 -5.750000e+000  3.000000e+000
      vertex  9.000000e+000 -3.550000e+001  3.000000e+000
    endloop
  endfacet
  facet normal  0.000000e+000  0.000000e+000  1.000000e+000
    outer loop
      vertex  3.572949e+000 -8.603169e+000  3.000000e+000
      vertex  3.572949e+000 -2.689683e+001  3.000000e+000
      vertex  5.427051e+000 -8.603169e+000  3.000000e+000
    endloop
  endfacet
  facet normal  0.000000e+000  0.000000e+000  1.000000e+000
    outer loop
      vertex  5.427051e+000 -8.603169e+000  3.000000e+000
      vertex  3.572949e+000 -2.689683e+001  3.000000e+000
      vertex  5.427051e+000 -2.689683e+001  3.000000e+000
    endloop
  endfacet
  facet normal  -0.000000e+000  0.000000e+000  1.000000e+000
    outer loop
      vertex  5.427051e+000 -8.603169e+000  3.000000e+000
      vertex  5.427051e+000 -2.689683e+001  3.000000e+000
      vertex  6.927051e+000 -2.798664e+001  3.000000e+000
    endloop
  endfacet
  facet normal  0.000000e+000  0.000000e+000 -1.000000e+000
    outer loop
      vertex  6.927051e+000 -3.986644e+000  0.000000e+000
      vertex  5.427051e+000 -2.896831e+000  0.000000e+000
      vertex  2.700000e+001  0.000000e+000  0.000000e+000
    endloop
  endfacet
  facet normal  -0.000000e+000  0.000000e+000 -1.000000e+000
    outer loop
      vertex  3.572949e+000 -8.603169e+000  0.000000e+000
      vertex  2.072949e+000 -2.798664e+001  0.000000e+000
      vertex  1.500000e+000 -2.975000e+001  0.000000e+000
    endloop
  endfacet
  facet normal  -0.000000e+000  0.000000e+000 -1.000000e+000
    outer loop
      vertex  0.000000e+000  0.000000e+000  0.000000e+000
      vertex  2.700000e+001  0.000000e+000  0.000000e+000
      vertex  5.427051e+000 -2.896831e+000  0.000000e+000
    endloop
  endfacet
  facet normal  0.000000e+000  0.000000e+000 -1.000000e+000
    outer loop
      vertex  0.000000e+000  0.000000e+000  0.000000e+000
      vertex  5.427051e+000 -2.896831e+000  0.000000e+000
      vertex  3.572949e+000 -2.896831e+000  0.000000e+000
    endloop
  endfacet
  facet normal  -0.000000e+000  0.000000e+000 -1.000000e+000
    outer loop
      vertex  0.000000e+000  0.000000e+000  0.000000e+000
      vertex  3.572949e+000 -2.896831e+000  0.000000e+000
      vertex  2.072949e+000 -3.986644e+000  0.000000e+000
    endloop
  endfacet
  facet normal  -0.000000e+000  0.000000e+000 -1.000000e+000
    outer loop
      vertex  0.000000e+000  0.000000e+000  0.000000e+000
      vertex  2.072949e+000 -3.986644e+000  0.000000e+000
      vertex  1.500000e+000 -5.750000e+000  0.000000e+000
    endloop
  endfacet
  facet normal  -0.000000e+000  0.000000e+000 -1.000000e+000
    outer loop
      vertex  0.000000e+000  0.000000e+000  0.000000e+000
      vertex  1.500000e+000 -5.750000e+000  0.000000e+000
      vertex  0.000000e+000 -3.550000e+001  0.000000e+000
    endloop
  endfacet
  facet normal  0.000000e+000  -0.000000e+000 -1.000000e+000
    outer loop
      vertex  0.000000e+000 -3.550000e+001  0.000000e+000
      vertex  1.500000e+000 -5.750000e+000  0.000000e+000
      vertex  2.072949e+000 -7.513356e+000  0.000000e+000
    endloop
  endfacet
  facet normal  0.000000e+000  -0.000000e+000 -1.000000e+000
    outer loop
      vertex  0.000000e+000 -3.550000e+001  0.000000e+000
      vertex  2.072949e+000 -7.513356e+000  0.000000e+000
      vertex  3.572949e+000 -8.603169e+000  0.000000e+000
    endloop
  endfacet
  facet normal  0.000000e+000  0.000000e+000 -1.000000e+000
    outer loop
      vertex  0.000000e+000 -3.550000e+001  0.000000e+000
      vertex  3.572949e+000 -8.603169e+000  0.000000e+000
      vertex  1.500000e+000 -2.975000e+001  0.000000e+000
    endloop
  endfacet
  facet normal  0.000000e+000  -0.000000e+000 -1.000000e+000
    outer loop
      vertex  0.000000e+000 -3.550000e+001  0.000000e+000
      vertex  1.500000e+000 -2.975000e+001  0.000000e+000
      vertex  2.072949e+000 -3.151336e+001  0.000000e+000
    endloop
  endfacet
  facet normal  0.000000e+000  -0.000000e+000 -1.000000e+000
    outer loop
      vertex  0.000000e+000 -3.550000e+001  0.000000e+000
      vertex  2.072949e+000 -3.151336e+001  0.000000e+000
      vertex  3.572949e+000 -3.260317e+001  0.000000e+000
    endloop
  endfacet
  facet normal  0.000000e+000  -0.000000e+000 -1.000000e+000
    outer loop
      vertex  0.000000e+000 -3.550000e+001  0.000000e+000
      vertex  3.572949e+000 -3.260317e+001  0.000000e+000
      vertex  5.427051e+000 -3.260317e+001  0.000000e+000
    endloop
  endfacet
  facet normal  0.000000e+000  -0.000000e+000 -1.000000e+000
    outer loop
      vertex  0.000000e+000 -3.550000e+001  0.000000e+000
      vertex  5.427051e+000 -3.260317e+001  0.000000e+000
      vertex  2.700000e+001 -3.550000e+001  0.000000e+000
    endloop
  endfacet
  facet normal  0.000000e+000  0.000000e+000 -1.000000e+000
    outer loop
      vertex  2.700000e+001 -3.550000e+001  0.000000e+000
      vertex  5.427051e+000 -3.260317e+001  0.000000e+000
      vertex  6.927051e+000 -3.151336e+001  0.000000e+000
    endloop
  endfacet
  facet normal  0.000000e+000  0.000000e+000 -1.000000e+000
    outer loop
      vertex  2.700000e+001 -3.550000e+001  0.000000e+000
      vertex  6.927051e+000 -3.151336e+001  0.000000e+000
      vertex  7.500000e+000 -2.975000e+001  0.000000e+000
    endloop
  endfacet
  facet normal  0.000000e+000  0.000000e+000 -1.000000e+000
    outer loop
      vertex  2.700000e+001 -3.550000e+001  0.000000e+000
      vertex  7.500000e+000 -2.975000e+001  0.000000e+000
      vertex  6.927051e+000 -2.798664e+001  0.000000e+000
    endloop
  endfacet
  facet normal  0.000000e+000  0.000000e+000 -1.000000e+000
    outer loop
      vertex  2.700000e+001 -3.550000e+001  0.000000e+000
      vertex  6.927051e+000 -2.798664e+001  0.000000e+000
      vertex  5.427051e+000 -2.689683e+001  0.000000e+000
    endloop
  endfacet
  facet normal  0.000000e+000  0.000000e+000 -1.000000e+000
    outer loop
      vertex  2.700000e+001 -3.550000e+001  0.000000e+000
      vertex  5.427051e+000 -2.689683e+001  0.000000e+000
      vertex  5.427051e+000 -8.603169e+000  0.000000e+000
    endloop
  endfacet
  facet normal  0.000000e+000  0.000000e+000 -1.000000e+000
    outer loop
      vertex  2.700000e+001 -3.550000e+001  0.000000e+000
      vertex  5.427051e+000 -8.603169e+000  0.000000e+000
      vertex  6.927051e+000 -7.513356e+000  0.000000e+000
    endloop
  endfacet
  facet normal  0.000000e+000  0.000000e+000 -1.000000e+000
    outer loop
      vertex  2.700000e+001 -3.550000e+001  0.000000e+000
      vertex  6.927051e+000 -7.513356e+000  0.000000e+000
      vertex  7.500000e+000 -5.750000e+000  0.000000e+000
    endloop
  endfacet
  facet normal  0.000000e+000  0.000000e+000 -1.000000e+000
    outer loop
      vertex  2.700000e+001 -3.550000e+001  0.000000e+000
      vertex  7.500000e+000 -5.750000e+000  0.000000e+000
      vertex  6.927051e+000 -3.986644e+000  0.000000e+000
    endloop
  endfacet
  facet normal  0.000000e+000  0.000000e+000 -1.000000e+000
    outer loop
      vertex  2.700000e+001 -3.550000e+001  0.000000e+000
      vertex  6.927051e+000 -3.986644e+000  0.000000e+000
      vertex  2.700000e+001  0.000000e+000  0.000000e+000
    endloop
  endfacet
  facet normal  0.000000e+000  -0.000000e+000 -1.000000e+000
    outer loop
      vertex  2.072949e+000 -2.798664e+001  0.000000e+000
      vertex  3.572949e+000 -8.603169e+000  0.000000e+000
      vertex  3.572949e+000 -2.689683e+001  0.000000e+000
    endloop
  endfacet
  facet normal  0.000000e+000  0.000000e+000 -1.000000e+000
    outer loop
      vertex  3.572949e+000 -2.689683e+001  0.000000e+000
      vertex  3.572949e+000 -8.603169e+000  0.000000e+000
      vertex  5.427051e+000 -8.603169e+000  0.000000e+000
    endloop
  endfacet
  facet normal  0.000000e+000  -0.000000e+000 -1.000000e+000
    outer loop
      vertex  3.572949e+000 -2.689683e+001  0.000000e+000
      vertex  5.427051e+000 -8.603169e+000  0.000000e+000
      vertex  5.427051e+000 -2.689683e+001  0.000000e+000
    endloop
  endfacet
  facet normal  5.877857e-001 -8.090166e-001  0.000000e+000
    outer loop
      vertex  3.572949e+000 -2.689683e+001  0.000000e+000
      vertex  2.072949e+000 -2.798664e+001  3.000000e+000
      vertex  2.072949e+000 -2.798664e+001  0.000000e+000
    endloop
  endfacet
  facet normal  9.510565e-001 -3.090170e-001  0.000000e+000
    outer loop
      vertex  2.072949e+000 -2.798664e+001  0.000000e+000
      vertex  2.072949e+000 -2.798664e+001  3.000000e+000
      vertex  1.500000e+000 -2.975000e+001  3.000000e+000
    endloop
  endfacet
  facet normal  9.510565e-001 -3.090170e-001  0.000000e+000
    outer loop
      vertex  2.072949e+000 -2.798664e+001  0.000000e+000
      vertex  1.500000e+000 -2.975000e+001  3.000000e+000
      vertex  1.500000e+000 -2.975000e+001  0.000000e+000
    endloop
  endfacet
  facet normal  5.877857e-001 -8.090166e-001  0.000000e+000
    outer loop
      vertex  2.072949e+000 -2.798664e+001  3.000000e+000
      vertex  3.572949e+000 -2.689683e+001  0.000000e+000
      vertex  3.572949e+000 -2.689683e+001  3.000000e+000
    endloop
  endfacet
  facet normal  0.000000e+000 -1.000000e+000  0.000000e+000
    outer loop
      vertex  3.572949e+000 -2.689683e+001  3.000000e+000
      vertex  3.572949e+000 -2.689683e+001  0.000000e+000
      vertex  5.427051e+000 -2.689683e+001  0.000000e+000
    endloop
  endfacet
  facet normal  0.000000e+000 -1.000000e+000  0.000000e+000
    outer loop
      vertex  3.572949e+000 -2.689683e+001  3.000000e+000
      vertex  5.427051e+000 -2.689683e+001  0.000000e+000
      vertex  5.427051e+000 -2.689683e+001  3.000000e+000
    endloop
  endfacet
  facet normal -5.877857e-001 -8.090166e-001  -0.000000e+000
    outer loop
      vertex  5.427051e+000 -2.689683e+001  3.000000e+000
      vertex  5.427051e+000 -2.689683e+001  0.000000e+000
      vertex  6.927051e+000 -2.798664e+001  0.000000e+000
    endloop
  endfacet
  facet normal -5.877857e-001 -8.090166e-001  0.000000e+000
    outer loop
      vertex  5.427051e+000 -2.689683e+001  3.000000e+000
      vertex  6.927051e+000 -2.798664e+001  0.000000e+000
      vertex  6.927051e+000 -2.798664e+001  3.000000e+000
    endloop
  endfacet
  facet normal -9.510565e-001 -3.090170e-001  -0.000000e+000
    outer loop
      vertex  6.927051e+000 -2.798664e+001  3.000000e+000
      vertex  6.927051e+000 -2.798664e+001  0.000000e+000
      vertex  7.500000e+000 -2.975000e+001  0.000000e+000
    endloop
  endfacet
  facet normal -9.510565e-001 -3.090170e-001  0.000000e+000
    outer loop
      vertex  6.927051e+000 -2.798664e+001  3.000000e+000
      vertex  7.500000e+000 -2.975000e+001  0.000000e+000
      vertex  7.500000e+000 -2.975000e+001  3.000000e+000
    endloop
  endfacet
  facet normal -5.877851e-001  8.090171e-001  0.000000e+000
    outer loop
      vertex  5.427051e+000 -3.260317e+001  0.000000e+000
      vertex  6.927051e+000 -3.151336e+001  3.000000e+000
      vertex  6.927051e+000 -3.151336e+001  0.000000e+000
    endloop
  endfacet
  facet normal -9.510565e-001  3.090170e-001  0.000000e+000
    outer loop
      vertex  6.927051e+000 -3.151336e+001  0.000000e+000
      vertex  6.927051e+000 -3.151336e+001  3.000000e+000
      vertex  7.500000e+000 -2.975000e+001  3.000000e+000
    endloop
  endfacet
  facet normal -9.510565e-001  3.090170e-001  0.000000e+000
    outer loop
      vertex  6.927051e+000 -3.151336e+001  0.000000e+000
      vertex  7.500000e+000 -2.975000e+001  3.000000e+000
      vertex  7.500000e+000 -2.975000e+001  0.000000e+000
    endloop
  endfacet
  facet normal -5.877851e-001  8.090171e-001  0.000000e+000
    outer loop
      vertex  6.927051e+000 -3.151336e+001  3.000000e+000
      vertex  5.427051e+000 -3.260317e+001  0.000000e+000
      vertex  5.427051e+000 -3.260317e+001  3.000000e+000
    endloop
  endfacet
  facet normal  0.000000e+000  1.000000e+000  0.000000e+000
    outer loop
      vertex  5.427051e+000 -3.260317e+001  3.000000e+000
      vertex  5.427051e+000 -3.260317e+001  0.000000e+000
      vertex  3.572949e+000 -3.260317e+001  0.000000e+000
    endloop
  endfacet
  facet normal  0.000000e+000  1.000000e+000  0.000000e+000
    outer loop
      vertex  5.427051e+000 -3.260317e+001  3.000000e+000
      vertex  3.572949e+000 -3.260317e+001  0.000000e+000
      vertex  3.572949e+000 -3.260317e+001  3.000000e+000
    endloop
  endfacet
  facet normal  5.877851e-001  8.090171e-001  0.000000e+000
    outer loop
      vertex  3.572949e+000 -3.260317e+001  3.000000e+000
      vertex  3.572949e+000 -3.260317e+001  0.000000e+000
      vertex  2.072949e+000 -3.151336e+001  0.000000e+000
    endloop
  endfacet
  facet normal  5.877851e-001  8.090171e-001  -0.000000e+000
    outer loop
      vertex  3.572949e+000 -3.260317e+001  3.000000e+000
      vertex  2.072949e+000 -3.151336e+001  0.000000e+000
      vertex  2.072949e+000 -3.151336e+001  3.000000e+000
    endloop
  endfacet
  facet normal  9.510565e-001  3.090170e-001  0.000000e+000
    outer loop
      vertex  2.072949e+000 -3.151336e+001  3.000000e+000
      vertex  2.072949e+000 -3.151336e+001  0.000000e+000
      vertex  1.500000e+000 -2.975000e+001  0.000000e+000
    endloop
  endfacet
  facet normal  9.510565e-001  3.090170e-001  -0.000000e+000
    outer loop
      vertex  2.072949e+000 -3.151336e+001  3.000000e+000
      vertex  1.500000e+000 -2.975000e+001  0.000000e+000
      vertex  1.500000e+000 -2.975000e+001  3.000000e+000
    endloop
  endfacet
  facet normal  5.877852e-001 -8.090170e-001  0.000000e+000
    outer loop
      vertex  3.572949e+000 -2.896831e+000  0.000000e+000
      vertex  2.072949e+000 -3.986644e+000  3.000000e+000
      vertex  2.072949e+000 -3.986644e+000  0.000000e+000
    endloop
  endfacet
  facet normal  9.510565e-001 -3.090169e-001  0.000000e+000
    outer loop
      vertex  2.072949e+000 -3.986644e+000  0.000000e+000
      vertex  2.072949e+000 -3.986644e+000  3.000000e+000
      vertex  1.500000e+000 -5.750000e+000  3.000000e+000
    endloop
  endfacet
  facet normal  9.510565e-001 -3.090169e-001  0.000000e+000
    outer loop
      vertex  2.072949e+000 -3.986644e+000  0.000000e+000
      vertex  1.500000e+000 -5.750000e+000  3.000000e+000
      vertex  1.500000e+000 -5.750000e+000  0.000000e+000
    endloop
  endfacet
  facet normal  5.877852e-001 -8.090170e-001  0.000000e+000
    outer loop
      vertex  2.072949e+000 -3.986644e+000  3.000000e+000
      vertex  3.572949e+000 -2.896831e+000  0.000000e+000
      vertex  3.572949e+000 -2.896831e+000  3.000000e+000
    endloop
  endfacet
  facet normal  0.000000e+000 -1.000000e+000  0.000000e+000
    outer loop
      vertex  3.572949e+000 -2.896831e+000  3.000000e+000
      vertex  3.572949e+000 -2.896831e+000  0.000000e+000
      vertex  5.427051e+000 -2.896831e+000  0.000000e+000
    endloop
  endfacet
  facet normal  0.000000e+000 -1.000000e+000  0.000000e+000
    outer loop
      vertex  3.572949e+000 -2.896831e+000  3.000000e+000
      vertex  5.427051e+000 -2.896831e+000  0.000000e+000
      vertex  5.427051e+000 -2.896831e+000  3.000000e+000
    endloop
  endfacet
  facet normal -5.877852e-001 -8.090170e-001  -0.000000e+000
    outer loop
      vertex  5.427051e+000 -2.896831e+000  3.000000e+000
      vertex  5.427051e+000 -2.896831e+000  0.000000e+000
      vertex  6.927051e+000 -3.986644e+000  0.000000e+000
    endloop
  endfacet
  facet normal -5.877852e-001 -8.090170e-001  0.000000e+000
    outer loop
      vertex  5.427051e+000 -2.896831e+000  3.000000e+000
      vertex  6.927051e+000 -3.986644e+000  0.000000e+000
      vertex  6.927051e+000 -3.986644e+000  3.000000e+000
    endloop
  endfacet
  facet normal -9.510565e-001 -3.090169e-001  -0.000000e+000
    outer loop
      vertex  6.927051e+000 -3.986644e+000  3.000000e+000
      vertex  6.927051e+000 -3.986644e+000  0.000000e+000
      vertex  7.500000e+000 -5.750000e+000  0.000000e+000
    endloop
  endfacet
  facet normal -9.510565e-001 -3.090169e-001  0.000000e+000
    outer loop
      vertex  6.927051e+000 -3.986644e+000  3.000000e+000
      vertex  7.500000e+000 -5.750000e+000  0.000000e+000
      vertex  7.500000e+000 -5.750000e+000  3.000000e+000
    endloop
  endfacet
  facet normal -5.877852e-001  8.090170e-001  0.000000e+000
    outer loop
      vertex  5.427051e+000 -8.603169e+000  0.000000e+000
      vertex  6.927051e+000 -7.513356e+000  3.000000e+000
      vertex  6.927051e+000 -7.513356e+000  0.000000e+000
    endloop
  endfacet
  facet normal -9.510565e-001  3.090169e-001  0.000000e+000
    outer loop
      vertex  6.927051e+000 -7.513356e+000  0.000000e+000
      vertex  6.927051e+000 -7.513356e+000  3.000000e+000
      vertex  7.500000e+000 -5.750000e+000  3.000000e+000
    endloop
  endfacet
  facet normal -9.510565e-001  3.090169e-001  0.000000e+000
    outer loop
      vertex  6.927051e+000 -7.513356e+000  0.000000e+000
      vertex  7.500000e+000 -5.750000e+000  3.000000e+000
      vertex  7.500000e+000 -5.750000e+000  0.000000e+000
    endloop
  endfacet
  facet normal -5.877852e-001  8.090170e-001  0.000000e+000
    outer loop
      vertex  6.927051e+000 -7.513356e+000  3.000000e+000
      vertex  5.427051e+000 -8.603169e+000  0.000000e+000
      vertex  5.427051e+000 -8.603169e+000  3.000000e+000
    endloop
  endfacet
  facet normal  0.000000e+000  1.000000e+000  0.000000e+000
    outer loop
      vertex  5.427051e+000 -8.603169e+000  3.000000e+000
      vertex  5.427051e+000 -8.603169e+000  0.000000e+000
      vertex  3.572949e+000 -8.603169e+000  0.000000e+000
    endloop
  endfacet
  facet normal  0.000000e+000  1.000000e+000  0.000000e+000
    outer loop
      vertex  5.427051e+000 -8.603169e+000  3.000000e+000
      vertex  3.572949e+000 -8.603169e+000  0.000000e+000
      vertex  3.572949e+000 -8.603169e+000  3.000000e+000
    endloop
  endfacet
  facet normal  5.877852e-001  8.090170e-001  0.000000e+000
    outer loop
      vertex  3.572949e+000 -8.603169e+000  3.000000e+000
      vertex  3.572949e+000 -8.603169e+000  0.000000e+000
      vertex  2.072949e+000 -7.513356e+000  0.000000e+000
    endloop
  endfacet
  facet normal  5.877852e-001  8.090170e-001  -0.000000e+000
    outer loop
      vertex  3.572949e+000 -8.603169e+000  3.000000e+000
      vertex  2.072949e+000 -7.513356e+000  0.000000e+000
      vertex  2.072949e+000 -7.513356e+000  3.000000e+000
    endloop
  endfacet
  facet normal  9.510565e-001  3.090169e-001  0.000000e+000
    outer loop
      vertex  2.072949e+000 -7.513356e+000  3.000000e+000
      vertex  2.072949e+000 -7.513356e+000  0.000000e+000
      vertex  1.500000e+000 -5.750000e+000  0.000000e+000
    endloop
  endfacet
  facet normal  9.510565e-001  3.090169e-001  -0.000000e+000
    outer loop
      vertex  2.072949e+000 -7.513356e+000  3.000000e+000
      vertex  1.500000e+000 -5.750000e+000  0.000000e+000
      vertex  1.500000e+000 -5.750000e+000  3.000000e+000
    endloop
  endfacet
  facet normal  0.000000e+000  0.000000e+000  9.999999e-001
    outer loop
      vertex  1.100000e+001 -2.000000e+000  3.000000e+000
      vertex  1.100000e+001 -3.350000e+001  3.000000e+000
      vertex  1.725000e+001 -8.750000e+000  3.000000e+000
    endloop
  endfacet
  facet normal  0.000000e+000  -0.000000e+000  1.000000e+000
    outer loop
      vertex  1.100000e+001 -2.000000e+000  3.000000e+000
      vertex  1.725000e+001 -8.750000e+000  3.000000e+000
      vertex  1.754289e+001 -8.042893e+000  3.000000e+000
    endloop
  endfacet
  facet normal  0.000000e+000  -0.000000e+000  1.000000e+000
    outer loop
      vertex  1.100000e+001 -2.000000e+000  3.000000e+000
      vertex  1.754289e+001 -8.042893e+000  3.000000e+000
      vertex  1.825000e+001 -7.750000e+000  3.000000e+000
    endloop
  endfacet
  facet normal  0.000000e+000  -0.000000e+000  1.000000e+000
    outer loop
      vertex  1.100000e+001 -2.000000e+000  3.000000e+000
      vertex  1.825000e+001 -7.750000e+000  3.000000e+000
      vertex  2.500000e+001 -2.000000e+000  3.000000e+000
    endloop
  endfacet
  facet normal  0.000000e+000  0.000000e+000  1.000000e+000
    outer loop
      vertex  1.100000e+001 -3.350000e+001  3.000000e+000
      vertex  2.500000e+001 -3.350000e+001  3.000000e+000
      vertex  1.775574e+001 -3.211891e+001  3.000000e+000
    endloop
  endfacet
  facet normal  0.000000e+000  0.000000e+000  1.000000e+000
    outer loop
      vertex  1.100000e+001 -3.350000e+001  3.000000e+000
      vertex  1.775574e+001 -3.211891e+001  3.000000e+000
      vertex  1.598797e+001 -3.138667e+001  3.000000e+000
    endloop
  endfacet
  facet normal  0.000000e+000  0.000000e+000  9.999999e-001
    outer loop
      vertex  1.100000e+001 -3.350000e+001  3.000000e+000
      vertex  1.598797e+001 -3.138667e+001  3.000000e+000
      vertex  1.525574e+001 -2.961891e+001  3.000000e+000
    endloop
  endfacet
  facet normal  0.000000e+000  -0.000000e+000  1.000000e+000
    outer loop
      vertex  1.100000e+001 -3.350000e+001  3.000000e+000
      vertex  1.525574e+001 -2.961891e+001  3.000000e+000
      vertex  1.598797e+001 -2.785114e+001  3.000000e+000
    endloop
  endfacet
  facet normal  0.000000e+000  -0.000000e+000  1.000000e+000
    outer loop
      vertex  1.100000e+001 -3.350000e+001  3.000000e+000
      vertex  1.598797e+001 -2.785114e+001  3.000000e+000
      vertex  1.754289e+001 -9.457107e+000  3.000000e+000
    endloop
  endfacet
  facet normal  0.000000e+000  0.000000e+000  9.999999e-001
    outer loop
      vertex  1.100000e+001 -3.350000e+001  3.000000e+000
      vertex  1.754289e+001 -9.457107e+000  3.000000e+000
      vertex  1.725000e+001 -8.750000e+000  3.000000e+000
    endloop
  endfacet
  facet normal  0.000000e+000  0.000000e+000  1.000000e+000
    outer loop
      vertex  2.500000e+001 -3.350000e+001  3.000000e+000
      vertex  1.925000e+001 -8.750000e+000  3.000000e+000
      vertex  1.895711e+001 -9.457107e+000  3.000000e+000
    endloop
  endfacet
  facet normal  0.000000e+000  0.000000e+000  1.000000e+000
    outer loop
      vertex  2.500000e+001 -3.350000e+001  3.000000e+000
      vertex  1.895711e+001 -9.457107e+000  3.000000e+000
      vertex  1.825000e+001 -9.750000e+000  3.000000e+000
    endloop
  endfacet
  facet normal  0.000000e+000  0.000000e+000  9.999999e-001
    outer loop
      vertex  2.500000e+001 -3.350000e+001  3.000000e+000
      vertex  1.825000e+001 -9.750000e+000  3.000000e+000
      vertex  1.952351e+001 -2.785114e+001  3.000000e+000
    endloop
  endfacet
  facet normal  0.000000e+000  0.000000e+000  1.000000e+000
    outer loop
      vertex  2.500000e+001 -3.350000e+001  3.000000e+000
      vertex  1.952351e+001 -2.785114e+001  3.000000e+000
      vertex  2.025574e+001 -2.961891e+001  3.000000e+000
    endloop
  endfacet
  facet normal  0.000000e+000  0.000000e+000  1.000000e+000
    outer loop
      vertex  2.500000e+001 -3.350000e+001  3.000000e+000
      vertex  2.025574e+001 -2.961891e+001  3.000000e+000
      vertex  1.952351e+001 -3.138667e+001  3.000000e+000
    endloop
  endfacet
  facet normal  0.000000e+000  0.000000e+000  1.000000e+000
    outer loop
      vertex  2.500000e+001 -3.350000e+001  3.000000e+000
      vertex  1.952351e+001 -3.138667e+001  3.000000e+000
      vertex  1.775574e+001 -3.211891e+001  3.000000e+000
    endloop
  endfacet
  facet normal  -0.000000e+000  0.000000e+000  1.000000e+000
    outer loop
      vertex  2.500000e+001 -2.000000e+000  3.000000e+000
      vertex  1.825000e+001 -7.750000e+000  3.000000e+000
      vertex  1.895711e+001 -8.042893e+000  3.000000e+000
    endloop
  endfacet
  facet normal  -0.000000e+000  0.000000e+000  1.000000e+000
    outer loop
      vertex  2.500000e+001 -2.000000e+000  3.000000e+000
      vertex  1.895711e+001 -8.042893e+000  3.000000e+000
      vertex  1.925000e+001 -8.750000e+000  3.000000e+000
    endloop
  endfacet
  facet normal  -0.000000e+000  0.000000e+000  9.999999e-001
    outer loop
      vertex  2.500000e+001 -2.000000e+000  3.000000e+000
      vertex  1.925000e+001 -8.750000e+000  3.000000e+000
      vertex  2.500000e+001 -3.350000e+001  3.000000e+000
    endloop
  endfacet
  facet normal  0.000000e+000  0.000000e+000  1.000000e+000
    outer loop
      vertex  1.754289e+001 -9.457107e+000  3.000000e+000
      vertex  1.598797e+001 -2.785114e+001  3.000000e+000
      vertex  1.825000e+001 -9.750000e+000  3.000000e+000
    endloop
  endfacet
  facet normal  0.000000e+000  0.000000e+000  1.000000e+000
    outer loop
      vertex  1.825000e+001 -9.750000e+000  3.000000e+000
      vertex  1.598797e+001 -2.785114e+001  3.000000e+000
      vertex  1.775574e+001 -2.711891e+001  3.000000e+000
    endloop
  endfacet
  facet normal  -0.000000e+000  0.000000e+000  1.000000e+000
    outer loop
      vertex  1.825000e+001 -9.750000e+000  3.000000e+000
      vertex  1.775574e+001 -2.711891e+001  3.000000e+000
      vertex  1.952351e+001 -2.785114e+001  3.000000e+000
    endloop
  endfacet
  facet normal  9.238799e-001 -3.826827e-001  0.000000e+000
    outer loop
      vertex  1.925000e+001 -8.750000e+000  3.000000e+000
      vertex  1.925000e+001 -8.750000e+000  8.000000e+000
      vertex  1.895711e+001 -9.457107e+000  3.000000e+000
    endloop
  endfacet
  facet normal  9.238799e-001 -3.826827e-001  0.000000e+000
    outer loop
      vertex  1.895711e+001 -9.457107e+000  3.000000e+000
      vertex  1.925000e+001 -8.750000e+000  8.000000e+000
      vertex  1.895711e+001 -9.457107e+000  8.000000e+000
    endloop
  endfacet
  facet normal  3.826833e-001 -9.238796e-001  0.000000e+000
    outer loop
      vertex  1.895711e+001 -9.457107e+000  3.000000e+000
      vertex  1.895711e+001 -9.457107e+000  8.000000e+000
      vertex  1.825000e+001 -9.750000e+000  3.000000e+000
    endloop
  endfacet
  facet normal  3.826833e-001 -9.238796e-001  0.000000e+000
    outer loop
      vertex  1.825000e+001 -9.750000e+000  3.000000e+000
      vertex  1.895711e+001 -9.457107e+000  8.000000e+000
      vertex  1.825000e+001 -9.750000e+000  8.000000e+000
    endloop
  endfacet
  facet normal -3.826833e-001 -9.238796e-001  -0.000000e+000
    outer loop
      vertex  1.825000e+001 -9.750000e+000  3.000000e+000
      vertex  1.825000e+001 -9.750000e+000  8.000000e+000
      vertex  1.754289e+001 -9.457107e+000  3.000000e+000
    endloop
  endfacet
  facet normal -3.826833e-001 -9.238796e-001  0.000000e+000
    outer loop
      vertex  1.754289e+001 -9.457107e+000  3.000000e+000
      vertex  1.825000e+001 -9.750000e+000  8.000000e+000
      vertex  1.754289e+001 -9.457107e+000  8.000000e+000
    endloop
  endfacet
  facet normal -9.238799e-001 -3.826827e-001  -0.000000e+000
    outer loop
      vertex  1.754289e+001 -9.457107e+000  3.000000e+000
      vertex  1.754289e+001 -9.457107e+000  8.000000e+000
      vertex  1.725000e+001 -8.750000e+000  3.000000e+000
    endloop
  endfacet
  facet normal -9.238799e-001 -3.826827e-001  0.000000e+000
    outer loop
      vertex  1.725000e+001 -8.750000e+000  3.000000e+000
      vertex  1.754289e+001 -9.457107e+000  8.000000e+000
      vertex  1.725000e+001 -8.750000e+000  8.000000e+000
    endloop
  endfacet
  facet normal -9.238799e-001  3.826827e-001  0.000000e+000
    outer loop
      vertex  1.725000e+001 -8.750000e+000  3.000000e+000
      vertex  1.725000e+001 -8.750000e+000  8.000000e+000
      vertex  1.754289e+001 -8.042893e+000  3.000000e+000
    endloop
  endfacet
  facet normal -9.238799e-001  3.826827e-001  0.000000e+000
    outer loop
      vertex  1.754289e+001 -8.042893e+000  3.000000e+000
      vertex  1.725000e+001 -8.750000e+000  8.000000e+000
      vertex  1.754289e+001 -8.042893e+000  8.000000e+000
    endloop
  endfacet
  facet normal -3.826833e-001  9.238796e-001  0.000000e+000
    outer loop
      vertex  1.754289e+001 -8.042893e+000  3.000000e+000
      vertex  1.754289e+001 -8.042893e+000  8.000000e+000
      vertex  1.825000e+001 -7.750000e+000  3.000000e+000
    endloop
  endfacet
  facet normal -3.826833e-001  9.238796e-001  0.000000e+000
    outer loop
      vertex  1.825000e+001 -7.750000e+000  3.000000e+000
      vertex  1.754289e+001 -8.042893e+000  8.000000e+000
      vertex  1.825000e+001 -7.750000e+000  8.000000e+000
    endloop
  endfacet
  facet normal  3.826833e-001  9.238796e-001  0.000000e+000
    outer loop
      vertex  1.825000e+001 -7.750000e+000  3.000000e+000
      vertex  1.825000e+001 -7.750000e+000  8.000000e+000
      vertex  1.895711e+001 -8.042893e+000  3.000000e+000
    endloop
  endfacet
  facet normal  3.826833e-001  9.238796e-001  -0.000000e+000
    outer loop
      vertex  1.895711e+001 -8.042893e+000  3.000000e+000
      vertex  1.825000e+001 -7.750000e+000  8.000000e+000
      vertex  1.895711e+001 -8.042893e+000  8.000000e+000
    endloop
  endfacet
  facet normal  9.238799e-001  3.826827e-001  0.000000e+000
    outer loop
      vertex  1.895711e+001 -8.042893e+000  3.000000e+000
      vertex  1.895711e+001 -8.042893e+000  8.000000e+000
      vertex  1.925000e+001 -8.750000e+000  3.000000e+000
    endloop
  endfacet
  facet normal  9.238799e-001  3.826827e-001  -0.000000e+000
    outer loop
      vertex  1.925000e+001 -8.750000e+000  3.000000e+000
      vertex  1.895711e+001 -8.042893e+000  8.000000e+000
      vertex  1.925000e+001 -8.750000e+000  8.000000e+000
    endloop
  endfacet
  facet normal  0.000000e+000  0.000000e+000  1.000000e+000
    outer loop
      vertex  1.754289e+001 -8.042893e+000  8.000000e+000
      vertex  1.895711e+001 -8.042893e+000  8.000000e+000
      vertex  1.825000e+001 -7.750000e+000  8.000000e+000
    endloop
  endfacet
  facet normal  -0.000000e+000  0.000000e+000  1.000000e+000
    outer loop
      vertex  1.895711e+001 -8.042893e+000  8.000000e+000
      vertex  1.754289e+001 -8.042893e+000  8.000000e+000
      vertex  1.925000e+001 -8.750000e+000  8.000000e+000
    endloop
  endfacet
  facet normal  0.000000e+000  0.000000e+000  9.999999e-001
    outer loop
      vertex  1.925000e+001 -8.750000e+000  8.000000e+000
      vertex  1.754289e+001 -8.042893e+000  8.000000e+000
      vertex  1.725000e+001 -8.750000e+000  8.000000e+000
    endloop
  endfacet
  facet normal  -0.000000e+000  0.000000e+000  9.999999e-001
    outer loop
      vertex  1.925000e+001 -8.750000e+000  8.000000e+000
      vertex  1.725000e+001 -8.750000e+000  8.000000e+000
      vertex  1.895711e+001 -9.457107e+000  8.000000e+000
    endloop
  endfacet
  facet normal  0.000000e+000  0.000000e+000  1.000000e+000
    outer loop
      vertex  1.895711e+001 -9.457107e+000  8.000000e+000
      vertex  1.725000e+001 -8.750000e+000  8.000000e+000
      vertex  1.754289e+001 -9.457107e+000  8.000000e+000
    endloop
  endfacet
  facet normal  -0.000000e+000  0.000000e+000  1.000000e+000
    outer loop
      vertex  1.895711e+001 -9.457107e+000  8.000000e+000
      vertex  1.754289e+001 -9.457107e+000  8.000000e+000
      vertex  1.825000e+001 -9.750000e+000  8.000000e+000
    endloop
  endfacet
  facet normal  9.238794e-001 -3.826834e-001  0.000000e+000
    outer loop
      vertex  2.025574e+001 -2.961891e+001  3.000000e+000
      vertex  2.025574e+001 -2.961891e+001  5.000000e+000
      vertex  1.952351e+001 -3.138667e+001  3.000000e+000
    endloop
  endfacet
  facet normal  9.238794e-001 -3.826834e-001  0.000000e+000
    outer loop
      vertex  1.952351e+001 -3.138667e+001  3.000000e+000
      vertex  2.025574e+001 -2.961891e+001  5.000000e+000
      vertex  1.952351e+001 -3.138667e+001  5.000000e+000
    endloop
  endfacet
  facet normal  3.826834e-001 -9.238794e-001  0.000000e+000
    outer loop
      vertex  1.952351e+001 -3.138667e+001  3.000000e+000
      vertex  1.952351e+001 -3.138667e+001  5.000000e+000
      vertex  1.775574e+001 -3.211891e+001  3.000000e+000
    endloop
  endfacet
  facet normal  3.826834e-001 -9.238794e-001  0.000000e+000
    outer loop
      vertex  1.775574e+001 -3.211891e+001  3.000000e+000
      vertex  1.952351e+001 -3.138667e+001  5.000000e+000
      vertex  1.775574e+001 -3.211891e+001  5.000000e+000
    endloop
  endfacet
  facet normal -3.826834e-001 -9.238794e-001  -0.000000e+000
    outer loop
      vertex  1.775574e+001 -3.211891e+001  3.000000e+000
      vertex  1.775574e+001 -3.211891e+001  5.000000e+000
      vertex  1.598797e+001 -3.138667e+001  3.000000e+000
    endloop
  endfacet
  facet normal -3.826834e-001 -9.238794e-001  0.000000e+000
    outer loop
      vertex  1.598797e+001 -3.138667e+001  3.000000e+000
      vertex  1.775574e+001 -3.211891e+001  5.000000e+000
      vertex  1.598797e+001 -3.138667e+001  5.000000e+000
    endloop
  endfacet
  facet normal -9.238794e-001 -3.826834e-001  -0.000000e+000
    outer loop
      vertex  1.598797e+001 -3.138667e+001  3.000000e+000
      vertex  1.598797e+001 -3.138667e+001  5.000000e+000
      vertex  1.525574e+001 -2.961891e+001  3.000000e+000
    endloop
  endfacet
  facet normal -9.238794e-001 -3.826834e-001  0.000000e+000
    outer loop
      vertex  1.525574e+001 -2.961891e+001  3.000000e+000
      vertex  1.598797e+001 -3.138667e+001  5.000000e+000
      vertex  1.525574e+001 -2.961891e+001  5.000000e+000
    endloop
  endfacet
  facet normal -9.238794e-001  3.826834e-001  0.000000e+000
    outer loop
      vertex  1.525574e+001 -2.961891e+001  3.000000e+000
      vertex  1.525574e+001 -2.961891e+001  5.000000e+000
      vertex  1.598797e+001 -2.785114e+001  3.000000e+000
    endloop
  endfacet
  facet normal -9.238794e-001  3.826834e-001  0.000000e+000
    outer loop
      vertex  1.598797e+001 -2.785114e+001  3.000000e+000
      vertex  1.525574e+001 -2.961891e+001  5.000000e+000
      vertex  1.598797e+001 -2.785114e+001  5.000000e+000
    endloop
  endfacet
  facet normal -3.826834e-001  9.238794e-001  0.000000e+000
    outer loop
      vertex  1.598797e+001 -2.785114e+001  3.000000e+000
      vertex  1.598797e+001 -2.785114e+001  5.000000e+000
      vertex  1.775574e+001 -2.711891e+001  3.000000e+000
    endloop
  endfacet
  facet normal -3.826834e-001  9.238794e-001  0.000000e+000
    outer loop
      vertex  1.775574e+001 -2.711891e+001  3.000000e+000
      vertex  1.598797e+001 -2.785114e+001  5.000000e+000
      vertex  1.775574e+001 -2.711891e+001  5.000000e+000
    endloop
  endfacet
  facet normal  3.826834e-001  9.238794e-001  0.000000e+000
    outer loop
      vertex  1.775574e+001 -2.711891e+001  3.000000e+000
      vertex  1.775574e+001 -2.711891e+001  5.000000e+000
      vertex  1.952351e+001 -2.785114e+001  3.000000e+000
    endloop
  endfacet
  facet normal  3.826834e-001  9.238794e-001  -0.000000e+000
    outer loop
      vertex  1.952351e+001 -2.785114e+001  3.000000e+000
      vertex  1.775574e+001 -2.711891e+001  5.000000e+000
      vertex  1.952351e+001 -2.785114e+001  5.000000e+000
    endloop
  endfacet
  facet normal  9.238794e-001  3.826834e-001  0.000000e+000
    outer loop
      vertex  1.952351e+001 -2.785114e+001  3.000000e+000
      vertex  1.952351e+001 -2.785114e+001  5.000000e+000
      vertex  2.025574e+001 -2.961891e+001  3.000000e+000
    endloop
  endfacet
  facet normal  9.238794e-001  3.826834e-001  -0.000000e+000
    outer loop
      vertex  2.025574e+001 -2.961891e+001  3.000000e+000
      vertex  1.952351e+001 -2.785114e+001  5.000000e+000
      vertex  2.025574e+001 -2.961891e+001  5.000000e+000
    endloop
  endfacet
  facet normal  0.000000e+000  0.000000e+000  1.000000e+000
    outer loop
      vertex  1.598797e+001 -2.785114e+001  5.000000e+000
      vertex  1.952351e+001 -2.785114e+001  5.000000e+000
      vertex  1.775574e+001 -2.711891e+001  5.000000e+000
    endloop
  endfacet
  facet normal  -0.000000e+000  0.000000e+000  1.000000e+000
    outer loop
      vertex  1.952351e+001 -2.785114e+001  5.000000e+000
      vertex  1.598797e+001 -2.785114e+001  5.000000e+000
      vertex  2.025574e+001 -2.961891e+001  5.000000e+000
    endloop
  endfacet
  facet normal  0.000000e+000  0.000000e+000  1.000000e+000
    outer loop
      vertex  2.025574e+001 -2.961891e+001  5.000000e+000
      vertex  1.598797e+001 -2.785114e+001  5.000000e+000
      vertex  1.525574e+001 -2.961891e+001  5.000000e+000
    endloop
  endfacet
  facet normal  -0.000000e+000  0.000000e+000  1.000000e+000
    outer loop
      vertex  2.025574e+001 -2.961891e+001  5.000000e+000
      vertex  1.525574e+001 -2.961891e+001  5.000000e+000
      vertex  1.952351e+001 -3.138667e+001  5.000000e+000
    endloop
  endfacet
  facet normal  0.000000e+000  0.000000e+000  1.000000e+000
    outer loop
      vertex  1.952351e+001 -3.138667e+001  5.000000e+000
      vertex  1.525574e+001 -2.961891e+001  5.000000e+000
      vertex  1.598797e+001 -3.138667e+001  5.000000e+000
    endloop
  endfacet
  facet normal  -0.000000e+000  0.000000e+000  1.000000e+000
    outer loop
      vertex  1.952351e+001 -3.138667e+001  5.000000e+000
      vertex  1.598797e+001 -3.138667e+001  5.000000e+000
      vertex  1.775574e+001 -3.211891e+001  5.000000e+000
    endloop
  endfacet
  facet normal -9.999999e-001  0.000000e+000  0.000000e+000
    outer loop
      vertex  2.500000e+001 -3.350000e+001  3.000000e+000
      vertex  2.500000e+001 -3.350000e+001  9.000000e+000
      vertex  2.500000e+001 -2.000000e+000  3.000000e+000
    endloop
  endfacet
  facet normal -9.999999e-001  0.000000e+000  0.000000e+000
    outer loop
      vertex  2.500000e+001 -2.000000e+000  3.000000e+000
      vertex  2.500000e+001 -3.350000e+001  9.000000e+000
      vertex  2.500000e+001 -2.000000e+000  9.000000e+000
    endloop
  endfacet
  facet normal  0.000000e+000  1.000000e+000  0.000000e+000
    outer loop
      vertex  2.500000e+001 -3.350000e+001  3.000000e+000
      vertex  1.100000e+001 -3.350000e+001  3.000000e+000
      vertex  2.500000e+001 -3.350000e+001  9.000000e+000
    endloop
  endfacet
  facet normal  0.000000e+000  1.000000e+000  0.000000e+000
    outer loop
      vertex  2.500000e+001 -3.350000e+001  9.000000e+000
      vertex  1.100000e+001 -3.350000e+001  3.000000e+000
      vertex  1.100000e+001 -3.350000e+001  9.000000e+000
    endloop
  endfacet
  facet normal  9.999999e-001  0.000000e+000  0.000000e+000
    outer loop
      vertex  1.100000e+001 -2.000000e+000  3.000000e+000
      vertex  1.100000e+001 -2.000000e+000  9.000000e+000
      vertex  1.100000e+001 -3.350000e+001  3.000000e+000
    endloop
  endfacet
  facet normal  9.999999e-001  0.000000e+000  0.000000e+000
    outer loop
      vertex  1.100000e+001 -3.350000e+001  3.000000e+000
      vertex  1.100000e+001 -2.000000e+000  9.000000e+000
      vertex  1.100000e+001 -3.350000e+001  9.000000e+000
    endloop
  endfacet
  facet normal  1.000000e+000  0.000000e+000  0.000000e+000
    outer loop
      vertex  2.700000e+001 -3.550000e+001  9.000000e+000
      vertex  2.700000e+001 -3.550000e+001  0.000000e+000
      vertex  2.700000e+001  0.000000e+000  9.000000e+000
    endloop
  endfacet
  facet normal  1.000000e+000  0.000000e+000  0.000000e+000
    outer loop
      vertex  2.700000e+001  0.000000e+000  9.000000e+000
      vertex  2.700000e+001 -3.550000e+001  0.000000e+000
      vertex  2.700000e+001  0.000000e+000  0.000000e+000
    endloop
  endfacet
  facet normal  0.000000e+000 -1.000000e+000  0.000000e+000
    outer loop
      vertex  0.000000e+000 -3.550000e+001  0.000000e+000
      vertex  2.700000e+001 -3.550000e+001  0.000000e+000
      vertex  0.000000e+000 -3.550000e+001  3.000000e+000
    endloop
  endfacet
  facet normal  0.000000e+000 -1.000000e+000  0.000000e+000
    outer loop
      vertex  0.000000e+000 -3.550000e+001  3.000000e+000
      vertex  2.700000e+001 -3.550000e+001  0.000000e+000
      vertex  9.000000e+000 -3.550000e+001  3.000000e+000
    endloop
  endfacet
  facet normal  0.000000e+000 -1.000000e+000  -0.000000e+000
    outer loop
      vertex  2.700000e+001 -3.550000e+001  0.000000e+000
      vertex  2.700000e+001 -3.550000e+001  9.000000e+000
      vertex  9.000000e+000 -3.550000e+001  3.000000e+000
    endloop
  endfacet
  facet normal  0.000000e+000 -1.000000e+000  0.000000e+000
    outer loop
      vertex  9.000000e+000 -3.550000e+001  3.000000e+000
      vertex  2.700000e+001 -3.550000e+001  9.000000e+000
      vertex  9.000000e+000 -3.550000e+001  9.000000e+000
    endloop
  endfacet
  facet normal -1.000000e+000  0.000000e+000  0.000000e+000
    outer loop
      vertex  9.000000e+000  0.000000e+000  9.000000e+000
      vertex  9.000000e+000  0.000000e+000  3.000000e+000
      vertex  9.000000e+000 -3.550000e+001  9.000000e+000
    endloop
  endfacet
  facet normal -1.000000e+000  0.000000e+000  0.000000e+000
    outer loop
      vertex  9.000000e+000 -3.550000e+001  9.000000e+000
      vertex  9.000000e+000  0.000000e+000  3.000000e+000
      vertex  9.000000e+000 -3.550000e+001  3.000000e+000
    endloop
  endfacet
  facet normal -1.000000e+000  0.000000e+000  0.000000e+000
    outer loop
      vertex  0.000000e+000  0.000000e+000  3.000000e+000
      vertex  0.000000e+000  0.000000e+000  0.000000e+000
      vertex  0.000000e+000 -3.550000e+001  3.000000e+000
    endloop
  endfacet
  facet normal -1.000000e+000  0.000000e+000  0.000000e+000
    outer loop
      vertex  0.000000e+000 -3.550000e+001  3.000000e+000
      vertex  0.000000e+000  0.000000e+000  0.000000e+000
      vertex  0.000000e+000 -3.550000e+001  0.000000e+000
    endloop
  endfacet
endsolid CATIA STL
