<?xml version="1.0" encoding="UTF-8" standalone="no"?>
<!-- Created with Inkscape (http://www.inkscape.org/) -->

<svg
   width="210mm"
   height="297mm"
   viewBox="0 0 210 297"
   version="1.1"
   id="svg5"
   inkscape:version="1.2.1 (9c6d41e, 2022-07-14)"
   sodipodi:docname="runiquebaptiste.svg"
   xmlns:inkscape="http://www.inkscape.org/namespaces/inkscape"
   xmlns:sodipodi="http://sodipodi.sourceforge.net/DTD/sodipodi-0.dtd"
   xmlns="http://www.w3.org/2000/svg"
   xmlns:svg="http://www.w3.org/2000/svg">
  <sodipodi:namedview
     id="namedview7"
     pagecolor="#ffffff"
     bordercolor="#000000"
     borderopacity="0.25"
     inkscape:showpageshadow="2"
     inkscape:pageopacity="0.0"
     inkscape:pagecheckerboard="0"
     inkscape:deskcolor="#d1d1d1"
     inkscape:document-units="mm"
     showgrid="false"
     inkscape:zoom="0.41286372"
     inkscape:cx="630.95881"
     inkscape:cy="559.50666"
     inkscape:window-width="1440"
     inkscape:window-height="876"
     inkscape:window-x="0"
     inkscape:window-y="24"
     inkscape:window-maximized="0"
     inkscape:current-layer="text113" />
  <defs
     id="defs2" />
  <g
     inkscape:label="Calque 1"
     inkscape:groupmode="layer"
     id="layer1">
    <g
       aria-label="ᚨᛚᛚ ᚹᛖ ᚻᚨᚹᛖ ᛞᛁᛋᛖᚨᚦᛁᛋᚹᚩᛏ ᛏᛟ ᛞᚩ"
       transform="rotate(90)"
       id="text113"
       style="font-size:10.5833px;font-family:Krungthep;-inkscape-font-specification:'Krungthep, Normal';stroke-width:0.264583">
      <path
         d="m 44.533217,-106.18392 -1.142045,0.74931 -2.098057,-1.32292 v 1.15238 l 2.382276,1.55546 -0.0052,0.0103 0.640786,-0.43924 0.113688,0.20153 -1.142046,0.74931 -1.989536,-1.25057 v 5.157295 l 0.211873,-0.08785 v 0.320392 l -1.059364,0.418578 v -0.315225 l 0.211873,-0.08268 v -7.782449 l -0.124023,-0.0827 0.558104,-0.47542 2.692333,1.75699 0.635618,-0.43408 z"
         id="path305" />
      <path
         d="m 51.282138,-105.29509 -1.142046,0.74931 -3.524321,-2.21175 v 7.136495 l 0.211872,-0.08785 v 0.320392 l -1.059363,0.418578 v -0.315225 l 0.211873,-0.08268 v -7.782449 l -0.124023,-0.0827 0.558103,-0.47542 4.087593,2.66649 0.666624,-0.45475 z"
         id="path307" />
      <path
         d="m 57.767509,-105.29509 -1.142046,0.74931 -3.524321,-2.21175 v 7.136495 l 0.211872,-0.08785 v 0.320392 l -1.059363,0.418578 v -0.315225 l 0.211873,-0.08268 v -7.782449 l -0.124023,-0.0827 0.558103,-0.47542 4.087593,2.66649 0.666624,-0.45475 z"
         id="path309" />
      <path
         d="m 66.490463,-105.38294 -3.291778,-1.49861 v 3.67935 z m 0.795814,-0.26355 -0.563271,0.37207 h -0.01033 l -3.513986,2.33577 v 3.317615 l 0.211872,-0.08785 v 0.320392 l -1.059363,0.418578 v -0.315225 l 0.211872,-0.08268 v -7.813449 l -0.124023,-0.0517 0.558104,-0.47542 z"
         id="path311" />
      <path
         d="m 77.011751,-99.388492 -1.059363,0.418578 v -0.315225 l 0.211873,-0.08268 v -7.865129 q -0.857826,0.56327 -1.70015,1.12654 -0.842323,0.55811 -1.700149,1.11621 -0.775144,-0.45992 -1.550288,-0.89917 -0.769976,-0.44441 -1.550288,-0.89916 v 7.167495 l 0.211873,-0.08785 v 0.320392 l -1.059364,0.418578 v -0.315225 l 0.211873,-0.08268 v -7.792779 l -0.124023,-0.0724 0.558104,-0.47542 3.736194,2.1704 3.493316,-2.32026 0.118855,0.14986 h -0.01033 v 8.087335 l 0.211872,-0.08785 z"
         id="path313" />
      <path
         d="m 86.427168,-102.33404 v -1.1007 l -3.06957,-1.92753 v 1.02836 z m 0.847491,2.945548 -1.059363,0.418578 v -0.315225 l 0.211872,-0.08268 v -2.211749 l -3.06957,-1.92752 v 3.886055 l 0.211873,-0.08785 v 0.320392 l -1.059364,0.418578 v -0.315225 l 0.211873,-0.08268 v -7.885799 l -0.211873,0.0827 v -0.31522 l 1.059364,-0.42375 v 0.31523 l -0.211873,0.0879 v 1.32291 l 3.06957,1.99987 v -3.06957 l -0.211872,0.0827 v -0.31522 l 1.059363,-0.42375 v 0.31523 l -0.211872,0.0879 v 7.885795 l 0.211872,-0.08785 z"
         id="path315" />
      <path
         d="m 93.17092,-106.18392 -1.142045,0.74931 -2.098057,-1.32292 v 1.15238 l 2.382276,1.55546 -0.0052,0.0103 0.640786,-0.43924 0.113688,0.20153 -1.142046,0.74931 -1.989536,-1.25057 v 5.157295 l 0.211873,-0.08785 v 0.320392 l -1.059364,0.418578 v -0.315225 l 0.211873,-0.08268 v -7.782449 l -0.124023,-0.0827 0.558104,-0.47542 2.692333,1.75699 0.635618,-0.43408 z"
         id="path317" />
      <path
         d="m 98.633104,-105.38294 -3.291778,-1.49861 v 3.67935 z m 0.795814,-0.26355 -0.563271,0.37207 h -0.01033 l -3.513986,2.33577 v 3.317615 l 0.211872,-0.08785 v 0.320392 l -1.059363,0.418578 v -0.315225 l 0.211873,-0.08268 v -7.813449 l -0.124023,-0.0517 0.558103,-0.47542 z"
         id="path319" />
      <path
         d="m 109.15439,-99.388492 -1.05936,0.418578 v -0.315225 l 0.21187,-0.08268 v -7.865129 q -0.85783,0.56327 -1.70015,1.12654 -0.84232,0.55811 -1.70015,1.11621 -0.77514,-0.45992 -1.55029,-0.89917 -0.76997,-0.44441 -1.55029,-0.89916 v 7.167495 l 0.21188,-0.08785 v 0.320392 l -1.05937,0.418578 v -0.315225 l 0.21188,-0.08268 v -7.792779 l -0.12403,-0.0724 0.55811,-0.47542 3.73619,2.1704 3.49332,-2.32026 0.11885,0.14986 h -0.0103 v 8.087335 l 0.21187,-0.08785 z"
         id="path321" />
      <path
         d="m 118.56981,-103.33656 -3.06957,-3.29178 v 6.645571 z m 3.70519,2.98172 v -6.70758 l -3.07991,3.36413 z m 0.84749,0.966348 -1.05937,0.418578 v -0.315225 l 0.21188,-0.08268 -3.55533,-3.813709 -3.21943,3.560495 0.21187,-0.08785 v 0.320392 l -1.05936,0.418578 v -0.315225 l 0.21187,-0.08268 v -7.885799 l -0.21187,0.0827 v -0.31522 l 1.05936,-0.42375 v 0.31523 l -0.0827,0.0362 3.4158,3.70002 3.01789,-3.31245 v -0.31522 l 1.05937,-0.42375 v 0.31523 l -0.21188,0.0879 v 7.885795 l 0.21188,-0.08785 z"
         id="path323" />
      <path
         d="m 126.20239,-99.388492 -1.05936,0.418578 v -0.315225 l 0.21187,-0.08268 v -7.885799 l -0.21187,0.0827 v -0.31522 l 1.05936,-0.42375 v 0.31523 l -0.21187,0.0879 v 7.885795 l 0.21187,-0.08785 z"
         id="path325" />
      <path
         d="m 132.86346,-99.388492 -1.05936,0.418578 v -0.315225 l 0.21187,-0.08268 v -4.867909 l -3.38479,2.25309 -0.3204,-0.11886 v -5.15212 l -0.21187,0.0827 v -0.31522 l 1.05936,-0.42375 v 0.31523 l -0.21187,0.0879 v 5.0591 l 3.70519,-2.48046 v 5.307155 l 0.21187,-0.08785 z"
         id="path327" />
      <path
         d="m 142.7698,-99.388492 -1.05936,0.418578 v -0.315225 l 0.21187,-0.08268 v -7.865129 q -0.85783,0.56327 -1.70015,1.12654 -0.84232,0.55811 -1.70015,1.11621 -0.77514,-0.45992 -1.55029,-0.89917 -0.76998,-0.44441 -1.55029,-0.89916 v 7.167495 l 0.21188,-0.08785 v 0.320392 l -1.05937,0.418578 v -0.315225 l 0.21188,-0.08268 v -7.792779 l -0.12403,-0.0724 0.55811,-0.47542 3.73619,2.1704 3.49332,-2.32026 0.11885,0.14986 h -0.0103 v 8.087335 l 0.21187,-0.08785 z"
         id="path329" />
      <path
         d="m 148.62989,-106.18392 -1.14205,0.74931 -2.09805,-1.32292 v 1.15238 l 2.38227,1.55546 -0.005,0.0103 0.64078,-0.43924 0.11369,0.20153 -1.14205,0.74931 -1.98953,-1.25057 v 5.157295 l 0.21187,-0.08785 v 0.320392 l -1.05936,0.418578 v -0.315225 l 0.21187,-0.08268 v -7.782449 l -0.12402,-0.0827 0.5581,-0.47542 2.69233,1.75699 0.63562,-0.43408 z"
         id="path331" />
      <path
         d="m 154.2161,-103.60527 -3.29178,-1.49862 v 3.67935 z m 0.79581,-0.26355 -4.08759,2.713 v 1.534785 l 0.21187,-0.08785 v 0.320392 l -1.05936,0.418578 v -0.315225 l 0.21187,-0.08268 v -7.885799 l -0.21187,0.0827 v -0.31522 l 1.05936,-0.42375 v 0.31523 l -0.21187,0.0879 v 1.66914 z"
         id="path333" />
      <path
         d="m 157.61123,-99.388492 -1.05937,0.418578 v -0.315225 l 0.21188,-0.08268 v -7.885799 l -0.21188,0.0827 v -0.31522 l 1.05937,-0.42375 v 0.31523 l -0.21188,0.0879 v 7.885795 l 0.21188,-0.08785 z"
         id="path335" />
      <path
         d="m 164.2723,-99.388492 -1.05936,0.418578 v -0.315225 l 0.21187,-0.08268 v -4.867909 l -3.3848,2.25309 -0.32039,-0.11886 v -5.15212 l -0.21187,0.0827 v -0.31522 l 1.05936,-0.42375 v 0.31523 l -0.21187,0.0879 v 5.0591 l 3.70519,-2.48046 v 5.307155 l 0.21187,-0.08785 z"
         id="path337" />
      <path
         d="m 169.79649,-105.38294 -3.29178,-1.49861 v 3.67935 z m 0.79581,-0.26355 -0.56327,0.37207 h -0.0103 l -3.51399,2.33577 v 3.317615 l 0.21187,-0.08785 v 0.320392 l -1.05936,0.418578 v -0.315225 l 0.21187,-0.08268 v -7.813449 l -0.12402,-0.0517 0.5581,-0.47542 z"
         id="path339" />
      <path
         d="m 178.85534,-107.45516 -0.56327,0.47542 -0.73897,-0.35656 0.0207,-0.0258 -2.8887,1.92753 -2.09806,-1.32292 v 1.15238 l 2.38228,1.55546 2.87836,-1.91202 0.89917,0.41341 -0.56327,0.47542 -0.73897,-0.35657 0.0207,-0.0258 -2.8887,1.92753 -1.98954,-1.25057 v 5.157295 l 0.21187,-0.08785 v 0.320392 l -1.05936,0.418578 v -0.315225 l 0.21187,-0.08268 v -7.782449 l -0.12402,-0.0827 0.5581,-0.47542 2.69234,1.75699 2.87836,-1.91719 z"
         id="path341" />
      <path
         d="m 189.17509,-105.29509 -1.14205,0.74931 -3.48298,-2.24275 v 7.167495 l 0.21187,-0.08785 v 0.320392 l -1.05936,0.418578 v -0.315225 l 0.21187,-0.08268 v -7.663589 l -3.35379,2.45462 -0.89916,-0.59428 0.5581,-0.47542 0.74414,0.36174 3.32278,-2.44429 4.09276,2.68716 0.68213,-0.45475 z"
         id="path343" />
      <path
         d="m 203.00883,-105.29509 -1.14205,0.74931 -3.48298,-2.24275 v 7.167495 l 0.21187,-0.08785 v 0.320392 l -1.05936,0.418578 v -0.315225 l 0.21187,-0.08268 v -7.663589 l -3.35379,2.45462 -0.89916,-0.59428 0.5581,-0.47542 0.74414,0.36174 3.32278,-2.44429 4.09276,2.68716 0.68213,-0.45475 z"
         id="path345" />
      <path
         d="m 209.49937,-104.21505 -2.60448,-2.8577 -2.06189,2.1704 2.55798,2.8887 z m 0.60461,-0.33073 -2.56314,2.68716 1.788,2.03088 0.61494,-0.41858 0.11369,0.20154 -1.14204,0.749306 -1.86035,-2.051546 -2.12906,2.222077 -0.89917,-0.41341 0.56327,-0.475417 0.60978,0.29455 1.71566,-1.788 -2.74918,-3.03856 3.09024,-3.1936 z"
         id="path347" />
      <path
         d="m 219.26619,-103.33656 -3.06957,-3.29178 v 6.645571 z m 3.70519,2.98172 v -6.70758 l -3.07991,3.36413 z m 0.84749,0.966348 -1.05937,0.418578 v -0.315225 l 0.21188,-0.08268 -3.55533,-3.813709 -3.21943,3.560495 0.21187,-0.08785 v 0.320392 l -1.05936,0.418578 v -0.315225 l 0.21187,-0.08268 v -7.885799 l -0.21187,0.0827 v -0.31522 l 1.05936,-0.42375 v 0.31523 l -0.0827,0.0362 3.4158,3.70002 3.01789,-3.31245 v -0.31522 l 1.05937,-0.42375 v 0.31523 l -0.21188,0.0879 v 7.885795 l 0.21188,-0.08785 z"
         id="path349" />
      <path
         d="m 232.57282,-107.45516 -0.56327,0.47542 -0.73897,-0.35656 0.0207,-0.0258 -2.8887,1.92753 -2.09806,-1.32292 v 1.15238 l 2.38228,1.55546 2.87837,-1.91202 0.89916,0.41341 -0.56327,0.47542 -0.73897,-0.35657 0.0207,-0.0258 -2.8887,1.92753 -1.98954,-1.25057 v 5.157295 l 0.21188,-0.08785 v 0.320392 l -1.05937,0.418578 v -0.315225 l 0.21188,-0.08268 v -7.782449 l -0.12403,-0.0827 0.55811,-0.47542 2.69233,1.75699 2.87837,-1.91719 z"
         id="path351" />
      <g
         aria-label="ᚠᛚᚢᛁ ᛃᚢ ᚠᚢᛟᛚᛋ"
         id="text401"
         style="stroke-width:0.0700042">
        <path
           d="m 127.18021,-168.4934 -0.56327,0.47542 -0.60461,-0.29455 -4.1496,4.43899 v 3.26594 l 0.21187,-0.0879 v 0.32039 l -1.05937,0.41858 v -0.31522 l 0.21188,-0.0827 v -7.88579 l -0.21188,0.0827 v -0.31523 l 1.05937,-0.42374 v 0.31522 l -0.21187,0.0879 v 2.26342 l 2.45462,-2.67683 0.89916,0.41341 -0.56327,0.47542 -0.59944,-0.28938 -2.19107,2.39261 v 1.72082 l 4.41832,-4.71288 z"
           id="path450" />
        <path
           d="m 133.59841,-166.28165 -1.14205,0.7493 -3.52432,-2.21174 v 7.13649 l 0.21187,-0.0879 v 0.32039 l -1.05936,0.41858 v -0.31522 l 0.21187,-0.0827 v -7.78244 l -0.12402,-0.0827 0.5581,-0.47543 4.08759,2.6665 0.66663,-0.45475 z"
           id="path452" />
        <path
           d="m 139.80473,-165.89925 -0.38241,0.25321 v 5.03844 l 0.21187,-0.0879 v 0.32039 l -1.05936,0.41858 v -0.31522 l 0.21187,-0.0827 v -5.46218 l -3.06957,-1.92752 v 7.13649 l 0.21188,-0.0879 v 0.32039 l -1.05937,0.41858 v -0.31522 l 0.21187,-0.0827 v -7.78244 l -0.12402,-0.0827 0.55811,-0.47543 z"
           id="path454" />
        <path
           d="m 142.5539,-160.37506 -1.05936,0.41858 v -0.31522 l 0.21187,-0.0827 v -7.88579 l -0.21187,0.0827 v -0.31523 l 1.05936,-0.42374 v 0.31522 l -0.21187,0.0879 v 7.8858 l 0.21187,-0.0879 z"
           id="path456" />
        <path
           d="m 151.59208,-168.31253 -0.56327,0.47542 -0.61495,-0.29972 -2.14456,2.24792 2.5218,2.84736 0.58394,-0.40308 0.11886,0.20154 -1.14205,0.74931 -2.62515,-3.14192 2.96621,-3.09024 z m 2.65099,5.11078 -2.96621,3.09024 -0.89917,-0.41341 0.56327,-0.47542 0.61495,0.29972 2.14456,-2.24791 -2.5218,-2.84737 -0.58394,0.40308 -0.11886,-0.20154 1.14205,-0.74931 z"
           id="path458" />
        <path
           d="m 160.75429,-165.89925 -0.38241,0.25321 v 5.03844 l 0.21187,-0.0879 v 0.32039 l -1.05936,0.41858 v -0.31522 l 0.21187,-0.0827 v -5.46218 l -3.06957,-1.92752 v 7.13649 l 0.21188,-0.0879 v 0.32039 l -1.05937,0.41858 v -0.31522 l 0.21188,-0.0827 v -7.78244 l -0.12403,-0.0827 0.55811,-0.47543 z"
           id="path460" />
        <path
           d="m 171.75099,-168.4934 -0.56327,0.47542 -0.60461,-0.29455 -4.1496,4.43899 v 3.26594 l 0.21187,-0.0879 v 0.32039 l -1.05936,0.41858 v -0.31522 l 0.21187,-0.0827 v -7.88579 l -0.21187,0.0827 v -0.31523 l 1.05936,-0.42374 v 0.31522 l -0.21187,0.0879 v 2.26342 l 2.45462,-2.67683 0.89917,0.41341 -0.56327,0.47542 -0.59945,-0.28938 -2.19107,2.39261 v 1.72082 l 4.41832,-4.71288 z"
           id="path462" />
        <path
           d="m 177.89014,-165.89925 -0.38241,0.25321 v 5.03844 l 0.21187,-0.0879 v 0.32039 l -1.05936,0.41858 v -0.31522 l 0.21187,-0.0827 v -5.46218 l -3.06957,-1.92752 v 7.13649 l 0.21187,-0.0879 v 0.32039 l -1.05936,0.41858 v -0.31522 l 0.21187,-0.0827 v -7.78244 l -0.12402,-0.0827 0.5581,-0.47543 z"
           id="path464" />
        <path
           d="m 184.73724,-165.20162 -2.60448,-2.8577 -2.06188,2.17041 2.55797,2.8887 z m 0.60461,-0.33073 -2.56314,2.68717 1.788,2.03088 0.61495,-0.41858 0.11369,0.20154 -1.14205,0.7493 -1.86035,-2.05155 -2.12906,2.22208 -0.89916,-0.41341 0.56327,-0.47542 0.60978,0.29456 1.71565,-1.788 -2.74918,-3.03857 3.09024,-3.19359 z"
           id="path466" />
        <path
           d="m 192.16312,-166.28165 -1.14205,0.7493 -3.52432,-2.21174 v 7.13649 l 0.21187,-0.0879 v 0.32039 l -1.05936,0.41858 v -0.31522 l 0.21187,-0.0827 v -7.78244 l -0.12402,-0.0827 0.5581,-0.47543 4.0876,2.6665 0.66662,-0.45475 z"
           id="path468" />
        <path
           d="m 198.19891,-160.37506 -1.05936,0.41858 v -0.31522 l 0.21187,-0.0827 v -4.8679 l -3.3848,2.25309 -0.32039,-0.11886 v -5.15212 l -0.21187,0.0827 v -0.31523 l 1.05936,-0.42374 v 0.31522 l -0.21187,0.0879 v 5.05911 l 3.70519,-2.48046 v 5.30715 l 0.21187,-0.0879 z"
           id="path470" />
      </g>
    </g>
  </g>
</svg>
