solid CATIA STL
  facet normal  1.000000e+000  0.000000e+000  0.000000e+000
    outer loop
      vertex  3.000000e+001  4.200000e+001  0.000000e+000
      vertex  3.000000e+001  4.200000e+001  4.000000e+000
      vertex  3.000000e+001  3.900000e+001  4.000000e+000
    endloop
  endfacet
  facet normal  1.000000e+000  0.000000e+000  0.000000e+000
    outer loop
      vertex  3.000000e+001  4.200000e+001  0.000000e+000
      vertex  3.000000e+001  3.900000e+001  4.000000e+000
      vertex  3.000000e+001  3.000000e+000  4.000000e+000
    endloop
  endfacet
  facet normal  1.000000e+000  0.000000e+000  0.000000e+000
    outer loop
      vertex  3.000000e+001  4.200000e+001  0.000000e+000
      vertex  3.000000e+001  3.000000e+000  4.000000e+000
      vertex  3.000000e+001  1.421085e-014  4.000000e+000
    endloop
  endfacet
  facet normal  1.000000e+000  0.000000e+000  0.000000e+000
    outer loop
      vertex  3.000000e+001  4.200000e+001  0.000000e+000
      vertex  3.000000e+001  1.421085e-014  4.000000e+000
      vertex  3.000000e+001  0.000000e+000  0.000000e+000
    endloop
  endfacet
  facet normal  1.000000e+000  -0.000000e+000  0.000000e+000
    outer loop
      vertex  3.000000e+001  3.900000e+001  7.000000e+000
      vertex  3.000000e+001  3.000000e+000  7.000000e+000
      vertex  3.000000e+001  3.900000e+001  4.000000e+000
    endloop
  endfacet
  facet normal  1.000000e+000  0.000000e+000  0.000000e+000
    outer loop
      vertex  3.000000e+001  3.900000e+001  4.000000e+000
      vertex  3.000000e+001  3.000000e+000  7.000000e+000
      vertex  3.000000e+001  3.000000e+000  4.000000e+000
    endloop
  endfacet
  facet normal  0.000000e+000 -1.000000e+000  0.000000e+000
    outer loop
      vertex  3.000000e+001  3.900000e+001  4.000000e+000
      vertex  7.000000e+001  3.900000e+001  4.000000e+000
      vertex  3.000000e+001  3.900000e+001  7.000000e+000
    endloop
  endfacet
  facet normal  0.000000e+000 -1.000000e+000  0.000000e+000
    outer loop
      vertex  3.000000e+001  3.900000e+001  7.000000e+000
      vertex  7.000000e+001  3.900000e+001  4.000000e+000
      vertex  7.000000e+001  3.900000e+001  7.000000e+000
    endloop
  endfacet
  facet normal  0.000000e+000  1.000000e+000  0.000000e+000
    outer loop
      vertex  7.000000e+001  3.000000e+000  4.000000e+000
      vertex  3.000000e+001  3.000000e+000  4.000000e+000
      vertex  7.000000e+001  3.000000e+000  7.000000e+000
    endloop
  endfacet
  facet normal  0.000000e+000  1.000000e+000  0.000000e+000
    outer loop
      vertex  7.000000e+001  3.000000e+000  7.000000e+000
      vertex  3.000000e+001  3.000000e+000  4.000000e+000
      vertex  3.000000e+001  3.000000e+000  7.000000e+000
    endloop
  endfacet
  facet normal  0.000000e+000  0.000000e+000 -1.000000e+000
    outer loop
      vertex  3.000000e+001  1.421085e-014  4.000000e+000
      vertex  3.000000e+001  3.000000e+000  4.000000e+000
      vertex  7.300000e+001  0.000000e+000  4.000000e+000
    endloop
  endfacet
  facet normal  0.000000e+000  0.000000e+000 -1.000000e+000
    outer loop
      vertex  7.300000e+001  0.000000e+000  4.000000e+000
      vertex  3.000000e+001  3.000000e+000  4.000000e+000
      vertex  7.000000e+001  3.000000e+000  4.000000e+000
    endloop
  endfacet
  facet normal  0.000000e+000  0.000000e+000 -1.000000e+000
    outer loop
      vertex  7.300000e+001  0.000000e+000  4.000000e+000
      vertex  7.000000e+001  3.000000e+000  4.000000e+000
      vertex  7.300000e+001  4.200000e+001  4.000000e+000
    endloop
  endfacet
  facet normal  0.000000e+000  0.000000e+000 -1.000000e+000
    outer loop
      vertex  7.300000e+001  4.200000e+001  4.000000e+000
      vertex  7.000000e+001  3.000000e+000  4.000000e+000
      vertex  7.000000e+001  3.900000e+001  4.000000e+000
    endloop
  endfacet
  facet normal  0.000000e+000  0.000000e+000 -1.000000e+000
    outer loop
      vertex  7.300000e+001  4.200000e+001  4.000000e+000
      vertex  7.000000e+001  3.900000e+001  4.000000e+000
      vertex  3.000000e+001  4.200000e+001  4.000000e+000
    endloop
  endfacet
  facet normal  0.000000e+000  0.000000e+000 -1.000000e+000
    outer loop
      vertex  3.000000e+001  4.200000e+001  4.000000e+000
      vertex  7.000000e+001  3.900000e+001  4.000000e+000
      vertex  3.000000e+001  3.900000e+001  4.000000e+000
    endloop
  endfacet
  facet normal -1.000000e+000  0.000000e+000  0.000000e+000
    outer loop
      vertex  7.000000e+001  3.000000e+000  4.000000e+000
      vertex  7.000000e+001  3.000000e+000  7.000000e+000
      vertex  7.000000e+001  3.900000e+001  4.000000e+000
    endloop
  endfacet
  facet normal -1.000000e+000  0.000000e+000  0.000000e+000
    outer loop
      vertex  7.000000e+001  3.900000e+001  4.000000e+000
      vertex  7.000000e+001  3.000000e+000  7.000000e+000
      vertex  7.000000e+001  3.900000e+001  7.000000e+000
    endloop
  endfacet
  facet normal  -0.000000e+000  0.000000e+000 -1.000000e+000
    outer loop
      vertex  3.000000e+001  3.900000e+001  7.000000e+000
      vertex  7.000000e+001  3.900000e+001  7.000000e+000
      vertex  3.000000e+001  3.000000e+000  7.000000e+000
    endloop
  endfacet
  facet normal  0.000000e+000  0.000000e+000 -1.000000e+000
    outer loop
      vertex  3.000000e+001  3.000000e+000  7.000000e+000
      vertex  7.000000e+001  3.900000e+001  7.000000e+000
      vertex  7.000000e+001  3.000000e+000  7.000000e+000
    endloop
  endfacet
  facet normal  0.000000e+000  -0.000000e+000 -1.000000e+000
    outer loop
      vertex  0.000000e+000  0.000000e+000  0.000000e+000
      vertex  2.700000e+001  3.000000e+000  0.000000e+000
      vertex  3.000000e+001  0.000000e+000  0.000000e+000
    endloop
  endfacet
  facet normal  0.000000e+000  0.000000e+000 -1.000000e+000
    outer loop
      vertex  3.000000e+001  0.000000e+000  0.000000e+000
      vertex  2.700000e+001  3.000000e+000  0.000000e+000
      vertex  2.700000e+001  3.900000e+001  0.000000e+000
    endloop
  endfacet
  facet normal  0.000000e+000  0.000000e+000 -1.000000e+000
    outer loop
      vertex  3.000000e+001  0.000000e+000  0.000000e+000
      vertex  2.700000e+001  3.900000e+001  0.000000e+000
      vertex  3.000000e+001  4.200000e+001  0.000000e+000
    endloop
  endfacet
  facet normal  0.000000e+000  0.000000e+000 -1.000000e+000
    outer loop
      vertex  2.700000e+001  3.000000e+000  0.000000e+000
      vertex  0.000000e+000  0.000000e+000  0.000000e+000
      vertex  3.000000e+000  3.000000e+000  0.000000e+000
    endloop
  endfacet
  facet normal  -0.000000e+000  0.000000e+000 -1.000000e+000
    outer loop
      vertex  3.000000e+000  3.000000e+000  0.000000e+000
      vertex  0.000000e+000  0.000000e+000  0.000000e+000
      vertex  0.000000e+000  4.200000e+001  0.000000e+000
    endloop
  endfacet
  facet normal  0.000000e+000  0.000000e+000 -1.000000e+000
    outer loop
      vertex  3.000000e+000  3.000000e+000  0.000000e+000
      vertex  0.000000e+000  4.200000e+001  0.000000e+000
      vertex  3.000000e+000  3.900000e+001  0.000000e+000
    endloop
  endfacet
  facet normal  0.000000e+000  0.000000e+000 -1.000000e+000
    outer loop
      vertex  3.000000e+000  3.900000e+001  0.000000e+000
      vertex  0.000000e+000  4.200000e+001  0.000000e+000
      vertex  3.000000e+001  4.200000e+001  0.000000e+000
    endloop
  endfacet
  facet normal  0.000000e+000  0.000000e+000 -1.000000e+000
    outer loop
      vertex  3.000000e+000  3.900000e+001  0.000000e+000
      vertex  3.000000e+001  4.200000e+001  0.000000e+000
      vertex  2.700000e+001  3.900000e+001  0.000000e+000
    endloop
  endfacet
  facet normal  0.000000e+000  1.000000e+000  0.000000e+000
    outer loop
      vertex  2.700000e+001  3.000000e+000  0.000000e+000
      vertex  3.000000e+000  3.000000e+000  0.000000e+000
      vertex  2.700000e+001  3.000000e+000  3.000000e+000
    endloop
  endfacet
  facet normal  0.000000e+000  1.000000e+000  0.000000e+000
    outer loop
      vertex  2.700000e+001  3.000000e+000  3.000000e+000
      vertex  3.000000e+000  3.000000e+000  0.000000e+000
      vertex  3.000000e+000  3.000000e+000  3.000000e+000
    endloop
  endfacet
  facet normal -1.000000e+000  0.000000e+000  0.000000e+000
    outer loop
      vertex  2.700000e+001  3.900000e+001  3.000000e+000
      vertex  2.700000e+001  3.900000e+001  0.000000e+000
      vertex  2.700000e+001  3.000000e+000  3.000000e+000
    endloop
  endfacet
  facet normal -1.000000e+000  0.000000e+000  0.000000e+000
    outer loop
      vertex  2.700000e+001  3.000000e+000  3.000000e+000
      vertex  2.700000e+001  3.900000e+001  0.000000e+000
      vertex  2.700000e+001  3.000000e+000  0.000000e+000
    endloop
  endfacet
  facet normal  0.000000e+000 -1.000000e+000  0.000000e+000
    outer loop
      vertex  3.000000e+000  3.900000e+001  0.000000e+000
      vertex  2.700000e+001  3.900000e+001  0.000000e+000
      vertex  3.000000e+000  3.900000e+001  3.000000e+000
    endloop
  endfacet
  facet normal  0.000000e+000 -1.000000e+000  0.000000e+000
    outer loop
      vertex  3.000000e+000  3.900000e+001  3.000000e+000
      vertex  2.700000e+001  3.900000e+001  0.000000e+000
      vertex  2.700000e+001  3.900000e+001  3.000000e+000
    endloop
  endfacet
  facet normal  1.000000e+000  0.000000e+000  0.000000e+000
    outer loop
      vertex  3.000000e+000  3.000000e+000  3.000000e+000
      vertex  3.000000e+000  3.000000e+000  0.000000e+000
      vertex  3.000000e+000  3.900000e+001  3.000000e+000
    endloop
  endfacet
  facet normal  1.000000e+000  0.000000e+000  0.000000e+000
    outer loop
      vertex  3.000000e+000  3.900000e+001  3.000000e+000
      vertex  3.000000e+000  3.000000e+000  0.000000e+000
      vertex  3.000000e+000  3.900000e+001  0.000000e+000
    endloop
  endfacet
  facet normal  -0.000000e+000  0.000000e+000 -1.000000e+000
    outer loop
      vertex  3.000000e+000  3.900000e+001  3.000000e+000
      vertex  2.700000e+001  3.900000e+001  3.000000e+000
      vertex  3.000000e+000  3.000000e+000  3.000000e+000
    endloop
  endfacet
  facet normal  0.000000e+000  0.000000e+000 -1.000000e+000
    outer loop
      vertex  3.000000e+000  3.000000e+000  3.000000e+000
      vertex  2.700000e+001  3.900000e+001  3.000000e+000
      vertex  2.700000e+001  3.000000e+000  3.000000e+000
    endloop
  endfacet
  facet normal  0.000000e+000  0.000000e+000  1.000000e+000
    outer loop
      vertex  7.300000e+001  0.000000e+000  1.400000e+001
      vertex  2.600000e+001  3.000000e+000  1.400000e+001
      vertex  2.300000e+001  0.000000e+000  1.400000e+001
    endloop
  endfacet
  facet normal  0.000000e+000  0.000000e+000  1.000000e+000
    outer loop
      vertex  2.300000e+001  0.000000e+000  1.400000e+001
      vertex  2.600000e+001  3.000000e+000  1.400000e+001
      vertex  2.600000e+001  3.900000e+001  1.400000e+001
    endloop
  endfacet
  facet normal  0.000000e+000  0.000000e+000  1.000000e+000
    outer loop
      vertex  2.300000e+001  0.000000e+000  1.400000e+001
      vertex  2.600000e+001  3.900000e+001  1.400000e+001
      vertex  2.300000e+001  4.200000e+001  1.400000e+001
    endloop
  endfacet
  facet normal  0.000000e+000  0.000000e+000  1.000000e+000
    outer loop
      vertex  2.600000e+001  3.000000e+000  1.400000e+001
      vertex  7.300000e+001  0.000000e+000  1.400000e+001
      vertex  7.000000e+001  3.000000e+000  1.400000e+001
    endloop
  endfacet
  facet normal  -0.000000e+000  0.000000e+000  1.000000e+000
    outer loop
      vertex  7.000000e+001  3.000000e+000  1.400000e+001
      vertex  7.300000e+001  0.000000e+000  1.400000e+001
      vertex  7.300000e+001  4.200000e+001  1.400000e+001
    endloop
  endfacet
  facet normal  0.000000e+000  0.000000e+000  1.000000e+000
    outer loop
      vertex  7.000000e+001  3.000000e+000  1.400000e+001
      vertex  7.300000e+001  4.200000e+001  1.400000e+001
      vertex  7.000000e+001  3.900000e+001  1.400000e+001
    endloop
  endfacet
  facet normal  0.000000e+000  -0.000000e+000  1.000000e+000
    outer loop
      vertex  7.000000e+001  3.900000e+001  1.400000e+001
      vertex  7.300000e+001  4.200000e+001  1.400000e+001
      vertex  2.300000e+001  4.200000e+001  1.400000e+001
    endloop
  endfacet
  facet normal  0.000000e+000  0.000000e+000  1.000000e+000
    outer loop
      vertex  7.000000e+001  3.900000e+001  1.400000e+001
      vertex  2.300000e+001  4.200000e+001  1.400000e+001
      vertex  2.600000e+001  3.900000e+001  1.400000e+001
    endloop
  endfacet
  facet normal  0.000000e+000 -1.000000e+000  0.000000e+000
    outer loop
      vertex  2.600000e+001  3.900000e+001  1.100000e+001
      vertex  7.000000e+001  3.900000e+001  1.100000e+001
      vertex  2.600000e+001  3.900000e+001  1.400000e+001
    endloop
  endfacet
  facet normal  0.000000e+000 -1.000000e+000  0.000000e+000
    outer loop
      vertex  2.600000e+001  3.900000e+001  1.400000e+001
      vertex  7.000000e+001  3.900000e+001  1.100000e+001
      vertex  7.000000e+001  3.900000e+001  1.400000e+001
    endloop
  endfacet
  facet normal -1.000000e+000  0.000000e+000  0.000000e+000
    outer loop
      vertex  7.000000e+001  3.000000e+000  1.100000e+001
      vertex  7.000000e+001  3.000000e+000  1.400000e+001
      vertex  7.000000e+001  3.900000e+001  1.100000e+001
    endloop
  endfacet
  facet normal -1.000000e+000  0.000000e+000  0.000000e+000
    outer loop
      vertex  7.000000e+001  3.900000e+001  1.100000e+001
      vertex  7.000000e+001  3.000000e+000  1.400000e+001
      vertex  7.000000e+001  3.900000e+001  1.400000e+001
    endloop
  endfacet
  facet normal  0.000000e+000  1.000000e+000  0.000000e+000
    outer loop
      vertex  7.000000e+001  3.000000e+000  1.100000e+001
      vertex  2.600000e+001  3.000000e+000  1.100000e+001
      vertex  7.000000e+001  3.000000e+000  1.400000e+001
    endloop
  endfacet
  facet normal  0.000000e+000  1.000000e+000  0.000000e+000
    outer loop
      vertex  7.000000e+001  3.000000e+000  1.400000e+001
      vertex  2.600000e+001  3.000000e+000  1.100000e+001
      vertex  2.600000e+001  3.000000e+000  1.400000e+001
    endloop
  endfacet
  facet normal  1.000000e+000  0.000000e+000  0.000000e+000
    outer loop
      vertex  2.600000e+001  3.900000e+001  1.100000e+001
      vertex  2.600000e+001  3.900000e+001  1.400000e+001
      vertex  2.600000e+001  3.000000e+000  1.100000e+001
    endloop
  endfacet
  facet normal  1.000000e+000  0.000000e+000  0.000000e+000
    outer loop
      vertex  2.600000e+001  3.000000e+000  1.100000e+001
      vertex  2.600000e+001  3.900000e+001  1.400000e+001
      vertex  2.600000e+001  3.000000e+000  1.400000e+001
    endloop
  endfacet
  facet normal  0.000000e+000  0.000000e+000  1.000000e+000
    outer loop
      vertex  2.600000e+001  3.000000e+000  1.100000e+001
      vertex  7.000000e+001  3.000000e+000  1.100000e+001
      vertex  2.600000e+001  3.900000e+001  1.100000e+001
    endloop
  endfacet
  facet normal  -0.000000e+000  0.000000e+000  1.000000e+000
    outer loop
      vertex  2.600000e+001  3.900000e+001  1.100000e+001
      vertex  7.000000e+001  3.000000e+000  1.100000e+001
      vertex  7.000000e+001  3.900000e+001  1.100000e+001
    endloop
  endfacet
  facet normal  1.000000e+000  0.000000e+000  0.000000e+000
    outer loop
      vertex  7.300000e+001  0.000000e+000  1.400000e+001
      vertex  7.300000e+001  0.000000e+000  4.000000e+000
      vertex  7.300000e+001  4.200000e+001  1.400000e+001
    endloop
  endfacet
  facet normal  1.000000e+000  0.000000e+000  0.000000e+000
    outer loop
      vertex  7.300000e+001  4.200000e+001  1.400000e+001
      vertex  7.300000e+001  0.000000e+000  4.000000e+000
      vertex  7.300000e+001  4.200000e+001  4.000000e+000
    endloop
  endfacet
  facet normal  -0.000000e+000 -1.000000e+000  0.000000e+000
    outer loop
      vertex  2.300000e+001  0.000000e+000  8.000000e+000
      vertex  7.300000e+001  0.000000e+000  1.400000e+001
      vertex  2.300000e+001  0.000000e+000  1.400000e+001
    endloop
  endfacet
  facet normal  0.000000e+000 -1.000000e+000  0.000000e+000
    outer loop
      vertex  7.300000e+001  0.000000e+000  1.400000e+001
      vertex  2.300000e+001  0.000000e+000  8.000000e+000
      vertex  7.300000e+001  0.000000e+000  4.000000e+000
    endloop
  endfacet
  facet normal  0.000000e+000 -1.000000e+000  0.000000e+000
    outer loop
      vertex  7.300000e+001  0.000000e+000  4.000000e+000
      vertex  2.300000e+001  0.000000e+000  8.000000e+000
      vertex  0.000000e+000  0.000000e+000  8.000000e+000
    endloop
  endfacet
  facet normal -3.304850e-016 -1.000000e+000 -6.031351e-015
    outer loop
      vertex  7.300000e+001  0.000000e+000  4.000000e+000
      vertex  0.000000e+000  0.000000e+000  8.000000e+000
      vertex  3.000000e+001  1.421085e-014  4.000000e+000
    endloop
  endfacet
  facet normal  4.736952e-016 -1.000000e+000  0.000000e+000
    outer loop
      vertex  3.000000e+001  1.421085e-014  4.000000e+000
      vertex  0.000000e+000  0.000000e+000  8.000000e+000
      vertex  0.000000e+000  0.000000e+000  0.000000e+000
    endloop
  endfacet
  facet normal  0.000000e+000 -1.000000e+000  3.552714e-015
    outer loop
      vertex  3.000000e+001  1.421085e-014  4.000000e+000
      vertex  0.000000e+000  0.000000e+000  0.000000e+000
      vertex  3.000000e+001  0.000000e+000  0.000000e+000
    endloop
  endfacet
  facet normal  0.000000e+000  1.000000e+000  0.000000e+000
    outer loop
      vertex  2.300000e+001  4.200000e+001  1.400000e+001
      vertex  7.300000e+001  4.200000e+001  1.400000e+001
      vertex  2.300000e+001  4.200000e+001  8.000000e+000
    endloop
  endfacet
  facet normal  -0.000000e+000  1.000000e+000  0.000000e+000
    outer loop
      vertex  2.300000e+001  4.200000e+001  8.000000e+000
      vertex  7.300000e+001  4.200000e+001  1.400000e+001
      vertex  7.300000e+001  4.200000e+001  4.000000e+000
    endloop
  endfacet
  facet normal  0.000000e+000  1.000000e+000  0.000000e+000
    outer loop
      vertex  2.300000e+001  4.200000e+001  8.000000e+000
      vertex  7.300000e+001  4.200000e+001  4.000000e+000
      vertex  0.000000e+000  4.200000e+001  8.000000e+000
    endloop
  endfacet
  facet normal  0.000000e+000  1.000000e+000  0.000000e+000
    outer loop
      vertex  0.000000e+000  4.200000e+001  8.000000e+000
      vertex  7.300000e+001  4.200000e+001  4.000000e+000
      vertex  3.000000e+001  4.200000e+001  4.000000e+000
    endloop
  endfacet
  facet normal  0.000000e+000  1.000000e+000  0.000000e+000
    outer loop
      vertex  0.000000e+000  4.200000e+001  8.000000e+000
      vertex  3.000000e+001  4.200000e+001  4.000000e+000
      vertex  0.000000e+000  4.200000e+001  0.000000e+000
    endloop
  endfacet
  facet normal  0.000000e+000  1.000000e+000  0.000000e+000
    outer loop
      vertex  0.000000e+000  4.200000e+001  0.000000e+000
      vertex  3.000000e+001  4.200000e+001  4.000000e+000
      vertex  3.000000e+001  4.200000e+001  0.000000e+000
    endloop
  endfacet
  facet normal -1.000000e+000  0.000000e+000  0.000000e+000
    outer loop
      vertex  0.000000e+000  4.200000e+001  0.000000e+000
      vertex  0.000000e+000  0.000000e+000  0.000000e+000
      vertex  0.000000e+000  4.200000e+001  8.000000e+000
    endloop
  endfacet
  facet normal -1.000000e+000  -0.000000e+000  0.000000e+000
    outer loop
      vertex  0.000000e+000  4.200000e+001  8.000000e+000
      vertex  0.000000e+000  0.000000e+000  0.000000e+000
      vertex  0.000000e+000  0.000000e+000  8.000000e+000
    endloop
  endfacet
  facet normal  0.000000e+000  0.000000e+000  1.000000e+000
    outer loop
      vertex  0.000000e+000  0.000000e+000  8.000000e+000
      vertex  2.300000e+001  0.000000e+000  8.000000e+000
      vertex  0.000000e+000  4.200000e+001  8.000000e+000
    endloop
  endfacet
  facet normal  -0.000000e+000  0.000000e+000  1.000000e+000
    outer loop
      vertex  0.000000e+000  4.200000e+001  8.000000e+000
      vertex  2.300000e+001  0.000000e+000  8.000000e+000
      vertex  2.300000e+001  4.200000e+001  8.000000e+000
    endloop
  endfacet
  facet normal -1.000000e+000  0.000000e+000  0.000000e+000
    outer loop
      vertex  2.300000e+001  0.000000e+000  8.000000e+000
      vertex  2.300000e+001  0.000000e+000  1.400000e+001
      vertex  2.300000e+001  4.200000e+001  8.000000e+000
    endloop
  endfacet
  facet normal -1.000000e+000  0.000000e+000  0.000000e+000
    outer loop
      vertex  2.300000e+001  4.200000e+001  8.000000e+000
      vertex  2.300000e+001  0.000000e+000  1.400000e+001
      vertex  2.300000e+001  4.200000e+001  1.400000e+001
    endloop
  endfacet
endsolid CATIA STL
