solid CATIA STL
  facet normal  0.000000e+000  0.000000e+000  9.999999e-001
    outer loop
      vertex -1.237385e+001  2.944363e+001  4.000000e+000
      vertex -4.373854e+000  2.944363e+001  4.000000e+000
      vertex -7.446803e+000  3.209046e+001  4.000000e+000
    endloop
  endfacet
  facet normal  0.000000e+000  0.000000e+000  1.000000e+000
    outer loop
      vertex -1.237385e+001  2.944363e+001  4.000000e+000
      vertex -7.446803e+000  3.209046e+001  4.000000e+000
      vertex -9.300904e+000  3.209046e+001  4.000000e+000
    endloop
  endfacet
  facet normal  0.000000e+000  0.000000e+000  1.000000e+000
    outer loop
      vertex -1.237385e+001  2.944363e+001  4.000000e+000
      vertex -9.300904e+000  3.209046e+001  4.000000e+000
      vertex -1.080090e+001  3.318027e+001  4.000000e+000
    endloop
  endfacet
  facet normal  0.000000e+000  0.000000e+000  1.000000e+000
    outer loop
      vertex -1.237385e+001  2.944363e+001  4.000000e+000
      vertex -1.080090e+001  3.318027e+001  4.000000e+000
      vertex -1.137385e+001  3.494363e+001  4.000000e+000
    endloop
  endfacet
  facet normal  0.000000e+000  -0.000000e+000  1.000000e+000
    outer loop
      vertex -1.237385e+001  2.944363e+001  4.000000e+000
      vertex -1.137385e+001  3.494363e+001  4.000000e+000
      vertex -1.080090e+001  4.618027e+001  4.000000e+000
    endloop
  endfacet
  facet normal  0.000000e+000  0.000000e+000  1.000000e+000
    outer loop
      vertex -1.237385e+001  2.944363e+001  4.000000e+000
      vertex -1.080090e+001  4.618027e+001  4.000000e+000
      vertex -1.137385e+001  4.794363e+001  4.000000e+000
    endloop
  endfacet
  facet normal  0.000000e+000  0.000000e+000  1.000000e+000
    outer loop
      vertex -1.237385e+001  5.344363e+001  4.000000e+000
      vertex -1.237385e+001  2.944363e+001  4.000000e+000
      vertex -1.137385e+001  4.794363e+001  4.000000e+000
    endloop
  endfacet
  facet normal  0.000000e+000  -0.000000e+000  1.000000e+000
    outer loop
      vertex -1.237385e+001  5.344363e+001  4.000000e+000
      vertex -1.137385e+001  4.794363e+001  4.000000e+000
      vertex -1.080090e+001  4.970698e+001  4.000000e+000
    endloop
  endfacet
  facet normal  0.000000e+000  -0.000000e+000  1.000000e+000
    outer loop
      vertex -1.237385e+001  5.344363e+001  4.000000e+000
      vertex -1.080090e+001  4.970698e+001  4.000000e+000
      vertex -9.300904e+000  5.079679e+001  4.000000e+000
    endloop
  endfacet
  facet normal  0.000000e+000  -0.000000e+000  1.000000e+000
    outer loop
      vertex -1.237385e+001  5.344363e+001  4.000000e+000
      vertex -9.300904e+000  5.079679e+001  4.000000e+000
      vertex -7.446803e+000  5.079679e+001  4.000000e+000
    endloop
  endfacet
  facet normal  0.000000e+000  -0.000000e+000  9.999999e-001
    outer loop
      vertex -1.237385e+001  5.344363e+001  4.000000e+000
      vertex -7.446803e+000  5.079679e+001  4.000000e+000
      vertex -4.373854e+000  5.344363e+001  4.000000e+000
    endloop
  endfacet
  facet normal  0.000000e+000  0.000000e+000  1.000000e+000
    outer loop
      vertex -4.373854e+000  2.944363e+001  4.000000e+000
      vertex -5.373854e+000  4.794363e+001  4.000000e+000
      vertex -5.946803e+000  4.618027e+001  4.000000e+000
    endloop
  endfacet
  facet normal  0.000000e+000  0.000000e+000  1.000000e+000
    outer loop
      vertex -4.373854e+000  2.944363e+001  4.000000e+000
      vertex -5.946803e+000  4.618027e+001  4.000000e+000
      vertex -5.373854e+000  3.494363e+001  4.000000e+000
    endloop
  endfacet
  facet normal  0.000000e+000  0.000000e+000  1.000000e+000
    outer loop
      vertex -4.373854e+000  2.944363e+001  4.000000e+000
      vertex -5.373854e+000  3.494363e+001  4.000000e+000
      vertex -5.946803e+000  3.318027e+001  4.000000e+000
    endloop
  endfacet
  facet normal  0.000000e+000  0.000000e+000  1.000000e+000
    outer loop
      vertex -4.373854e+000  2.944363e+001  4.000000e+000
      vertex -5.946803e+000  3.318027e+001  4.000000e+000
      vertex -7.446803e+000  3.209046e+001  4.000000e+000
    endloop
  endfacet
  facet normal  -0.000000e+000  0.000000e+000  1.000000e+000
    outer loop
      vertex -4.373854e+000  5.344363e+001  4.000000e+000
      vertex -7.446803e+000  5.079679e+001  4.000000e+000
      vertex -5.946803e+000  4.970698e+001  4.000000e+000
    endloop
  endfacet
  facet normal  -0.000000e+000  0.000000e+000  1.000000e+000
    outer loop
      vertex -4.373854e+000  5.344363e+001  4.000000e+000
      vertex -5.946803e+000  4.970698e+001  4.000000e+000
      vertex -5.373854e+000  4.794363e+001  4.000000e+000
    endloop
  endfacet
  facet normal  -0.000000e+000  0.000000e+000  1.000000e+000
    outer loop
      vertex -4.373854e+000  5.344363e+001  4.000000e+000
      vertex -5.373854e+000  4.794363e+001  4.000000e+000
      vertex -4.373854e+000  2.944363e+001  4.000000e+000
    endloop
  endfacet
  facet normal  0.000000e+000  0.000000e+000  1.000000e+000
    outer loop
      vertex -5.373854e+000  3.494363e+001  4.000000e+000
      vertex -5.946803e+000  4.618027e+001  4.000000e+000
      vertex -5.946803e+000  3.670698e+001  4.000000e+000
    endloop
  endfacet
  facet normal  0.000000e+000  -0.000000e+000  1.000000e+000
    outer loop
      vertex -5.946803e+000  3.670698e+001  4.000000e+000
      vertex -5.946803e+000  4.618027e+001  4.000000e+000
      vertex -7.446803e+000  4.509046e+001  4.000000e+000
    endloop
  endfacet
  facet normal  0.000000e+000  0.000000e+000  1.000000e+000
    outer loop
      vertex -5.946803e+000  3.670698e+001  4.000000e+000
      vertex -7.446803e+000  4.509046e+001  4.000000e+000
      vertex -7.446803e+000  3.779679e+001  4.000000e+000
    endloop
  endfacet
  facet normal  0.000000e+000  0.000000e+000  9.999999e-001
    outer loop
      vertex -1.080090e+001  4.618027e+001  4.000000e+000
      vertex -1.137385e+001  3.494363e+001  4.000000e+000
      vertex -9.300904e+000  4.509046e+001  4.000000e+000
    endloop
  endfacet
  facet normal  0.000000e+000  0.000000e+000  1.000000e+000
    outer loop
      vertex -9.300904e+000  4.509046e+001  4.000000e+000
      vertex -1.137385e+001  3.494363e+001  4.000000e+000
      vertex -1.080090e+001  3.670698e+001  4.000000e+000
    endloop
  endfacet
  facet normal  0.000000e+000  0.000000e+000  1.000000e+000
    outer loop
      vertex -9.300904e+000  4.509046e+001  4.000000e+000
      vertex -1.080090e+001  3.670698e+001  4.000000e+000
      vertex -9.300904e+000  3.779679e+001  4.000000e+000
    endloop
  endfacet
  facet normal  0.000000e+000  0.000000e+000  1.000000e+000
    outer loop
      vertex -7.446803e+000  3.779679e+001  4.000000e+000
      vertex -7.446803e+000  4.509046e+001  4.000000e+000
      vertex -9.300904e+000  3.779679e+001  4.000000e+000
    endloop
  endfacet
  facet normal  0.000000e+000  0.000000e+000  1.000000e+000
    outer loop
      vertex -9.300904e+000  3.779679e+001  4.000000e+000
      vertex -7.446803e+000  4.509046e+001  4.000000e+000
      vertex -9.300904e+000  4.509046e+001  4.000000e+000
    endloop
  endfacet
  facet normal  0.000000e+000  0.000000e+000 -1.000000e+000
    outer loop
      vertex -5.946803e+000  3.670698e+001  0.000000e+000
      vertex -7.446803e+000  4.509046e+001  0.000000e+000
      vertex -5.946803e+000  4.618027e+001  0.000000e+000
    endloop
  endfacet
  facet normal  0.000000e+000  0.000000e+000 -1.000000e+000
    outer loop
      vertex  1.512615e+001  4.744363e+001  0.000000e+000
      vertex  1.412615e+001  3.344363e+001  0.000000e+000
      vertex  1.412615e+001  4.644363e+001  0.000000e+000
    endloop
  endfacet
  facet normal  -0.000000e+000  0.000000e+000 -1.000000e+000
    outer loop
      vertex -1.237385e+001  5.344363e+001  0.000000e+000
      vertex  1.962615e+001  5.344363e+001  0.000000e+000
      vertex  1.512615e+001  5.044363e+001  0.000000e+000
    endloop
  endfacet
  facet normal  -0.000000e+000  0.000000e+000 -9.999999e-001
    outer loop
      vertex -1.237385e+001  5.344363e+001  0.000000e+000
      vertex  1.512615e+001  5.044363e+001  0.000000e+000
      vertex  1.406549e+001  5.000429e+001  0.000000e+000
    endloop
  endfacet
  facet normal  0.000000e+000  0.000000e+000 -1.000000e+000
    outer loop
      vertex -1.237385e+001  5.344363e+001  0.000000e+000
      vertex  1.406549e+001  5.000429e+001  0.000000e+000
      vertex  1.261463e-001  5.044363e+001  0.000000e+000
    endloop
  endfacet
  facet normal  0.000000e+000  0.000000e+000 -1.000000e+000
    outer loop
      vertex -1.237385e+001  5.344363e+001  0.000000e+000
      vertex  1.261463e-001  5.044363e+001  0.000000e+000
      vertex -7.446803e+000  5.079679e+001  0.000000e+000
    endloop
  endfacet
  facet normal  0.000000e+000  0.000000e+000 -1.000000e+000
    outer loop
      vertex -1.237385e+001  5.344363e+001  0.000000e+000
      vertex -7.446803e+000  5.079679e+001  0.000000e+000
      vertex -9.300904e+000  5.079679e+001  0.000000e+000
    endloop
  endfacet
  facet normal  -0.000000e+000  0.000000e+000 -1.000000e+000
    outer loop
      vertex -1.237385e+001  5.344363e+001  0.000000e+000
      vertex -9.300904e+000  5.079679e+001  0.000000e+000
      vertex -1.080090e+001  4.970698e+001  0.000000e+000
    endloop
  endfacet
  facet normal  -0.000000e+000  0.000000e+000 -1.000000e+000
    outer loop
      vertex -1.237385e+001  5.344363e+001  0.000000e+000
      vertex -1.080090e+001  4.970698e+001  0.000000e+000
      vertex -1.137385e+001  4.794363e+001  0.000000e+000
    endloop
  endfacet
  facet normal  -0.000000e+000  0.000000e+000 -1.000000e+000
    outer loop
      vertex -1.237385e+001  5.344363e+001  0.000000e+000
      vertex -1.137385e+001  4.794363e+001  0.000000e+000
      vertex -1.237385e+001  2.944363e+001  0.000000e+000
    endloop
  endfacet
  facet normal  0.000000e+000  0.000000e+000 -1.000000e+000
    outer loop
      vertex  1.962615e+001  2.944363e+001  0.000000e+000
      vertex -1.237385e+001  2.944363e+001  0.000000e+000
      vertex  1.412615e+001  3.344363e+001  0.000000e+000
    endloop
  endfacet
  facet normal  0.000000e+000  0.000000e+000 -1.000000e+000
    outer loop
      vertex  1.962615e+001  2.944363e+001  0.000000e+000
      vertex  1.412615e+001  3.344363e+001  0.000000e+000
      vertex  1.512615e+001  4.744363e+001  0.000000e+000
    endloop
  endfacet
  facet normal  0.000000e+000  0.000000e+000 -1.000000e+000
    outer loop
      vertex  1.962615e+001  2.944363e+001  0.000000e+000
      vertex  1.512615e+001  4.744363e+001  0.000000e+000
      vertex  1.618681e+001  4.788297e+001  0.000000e+000
    endloop
  endfacet
  facet normal  0.000000e+000  0.000000e+000 -1.000000e+000
    outer loop
      vertex  1.962615e+001  2.944363e+001  0.000000e+000
      vertex  1.618681e+001  4.788297e+001  0.000000e+000
      vertex  1.662615e+001  4.894363e+001  0.000000e+000
    endloop
  endfacet
  facet normal  0.000000e+000  -0.000000e+000 -1.000000e+000
    outer loop
      vertex -1.237385e+001  2.944363e+001  0.000000e+000
      vertex -1.137385e+001  4.794363e+001  0.000000e+000
      vertex -1.080090e+001  4.618027e+001  0.000000e+000
    endloop
  endfacet
  facet normal  0.000000e+000  0.000000e+000 -1.000000e+000
    outer loop
      vertex -1.237385e+001  2.944363e+001  0.000000e+000
      vertex -1.080090e+001  4.618027e+001  0.000000e+000
      vertex -1.137385e+001  3.494363e+001  0.000000e+000
    endloop
  endfacet
  facet normal  0.000000e+000  -0.000000e+000 -1.000000e+000
    outer loop
      vertex -1.237385e+001  2.944363e+001  0.000000e+000
      vertex -1.137385e+001  3.494363e+001  0.000000e+000
      vertex -1.080090e+001  3.318027e+001  0.000000e+000
    endloop
  endfacet
  facet normal  0.000000e+000  -0.000000e+000 -1.000000e+000
    outer loop
      vertex -1.237385e+001  2.944363e+001  0.000000e+000
      vertex -1.080090e+001  3.318027e+001  0.000000e+000
      vertex -9.300904e+000  3.209046e+001  0.000000e+000
    endloop
  endfacet
  facet normal  0.000000e+000  -0.000000e+000 -1.000000e+000
    outer loop
      vertex -1.237385e+001  2.944363e+001  0.000000e+000
      vertex -9.300904e+000  3.209046e+001  0.000000e+000
      vertex -7.446803e+000  3.209046e+001  0.000000e+000
    endloop
  endfacet
  facet normal  0.000000e+000  -0.000000e+000 -1.000000e+000
    outer loop
      vertex -1.237385e+001  2.944363e+001  0.000000e+000
      vertex -7.446803e+000  3.209046e+001  0.000000e+000
      vertex  1.126146e+000  3.344363e+001  0.000000e+000
    endloop
  endfacet
  facet normal  0.000000e+000  -0.000000e+000 -1.000000e+000
    outer loop
      vertex -1.237385e+001  2.944363e+001  0.000000e+000
      vertex  1.126146e+000  3.344363e+001  0.000000e+000
      vertex  1.412615e+001  3.344363e+001  0.000000e+000
    endloop
  endfacet
  facet normal  0.000000e+000  -0.000000e+000 -9.999999e-001
    outer loop
      vertex -5.946803e+000  3.318027e+001  0.000000e+000
      vertex -5.373854e+000  3.494363e+001  0.000000e+000
      vertex  1.261463e-001  4.744363e+001  0.000000e+000
    endloop
  endfacet
  facet normal  0.000000e+000  -0.000000e+000 -9.999999e-001
    outer loop
      vertex -5.946803e+000  3.318027e+001  0.000000e+000
      vertex  1.261463e-001  4.744363e+001  0.000000e+000
      vertex  1.126146e+000  4.644363e+001  0.000000e+000
    endloop
  endfacet
  facet normal  0.000000e+000  -0.000000e+000 -1.000000e+000
    outer loop
      vertex -5.946803e+000  3.318027e+001  0.000000e+000
      vertex  1.126146e+000  4.644363e+001  0.000000e+000
      vertex  1.126146e+000  3.344363e+001  0.000000e+000
    endloop
  endfacet
  facet normal  0.000000e+000  0.000000e+000 -1.000000e+000
    outer loop
      vertex -5.946803e+000  3.318027e+001  0.000000e+000
      vertex  1.126146e+000  3.344363e+001  0.000000e+000
      vertex -7.446803e+000  3.209046e+001  0.000000e+000
    endloop
  endfacet
  facet normal  0.000000e+000  0.000000e+000 -1.000000e+000
    outer loop
      vertex  1.126146e+000  4.644363e+001  0.000000e+000
      vertex  1.261463e-001  4.744363e+001  0.000000e+000
      vertex  1.186806e+000  4.788297e+001  0.000000e+000
    endloop
  endfacet
  facet normal  0.000000e+000  -0.000000e+000 -1.000000e+000
    outer loop
      vertex  1.126146e+000  4.644363e+001  0.000000e+000
      vertex  1.186806e+000  4.788297e+001  0.000000e+000
      vertex  1.626146e+000  4.894363e+001  0.000000e+000
    endloop
  endfacet
  facet normal  0.000000e+000  -0.000000e+000 -1.000000e+000
    outer loop
      vertex  1.126146e+000  4.644363e+001  0.000000e+000
      vertex  1.626146e+000  4.894363e+001  0.000000e+000
      vertex  1.362615e+001  4.894363e+001  0.000000e+000
    endloop
  endfacet
  facet normal  0.000000e+000  -0.000000e+000 -1.000000e+000
    outer loop
      vertex  1.126146e+000  4.644363e+001  0.000000e+000
      vertex  1.362615e+001  4.894363e+001  0.000000e+000
      vertex  1.406549e+001  4.788297e+001  0.000000e+000
    endloop
  endfacet
  facet normal  0.000000e+000  -0.000000e+000 -1.000000e+000
    outer loop
      vertex  1.126146e+000  4.644363e+001  0.000000e+000
      vertex  1.406549e+001  4.788297e+001  0.000000e+000
      vertex  1.512615e+001  4.744363e+001  0.000000e+000
    endloop
  endfacet
  facet normal  0.000000e+000  0.000000e+000 -1.000000e+000
    outer loop
      vertex  1.126146e+000  4.644363e+001  0.000000e+000
      vertex  1.512615e+001  4.744363e+001  0.000000e+000
      vertex  1.412615e+001  4.644363e+001  0.000000e+000
    endloop
  endfacet
  facet normal  0.000000e+000  0.000000e+000 -1.000000e+000
    outer loop
      vertex  1.962615e+001  5.344363e+001  0.000000e+000
      vertex  1.962615e+001  2.944363e+001  0.000000e+000
      vertex  1.662615e+001  4.894363e+001  0.000000e+000
    endloop
  endfacet
  facet normal  0.000000e+000  0.000000e+000 -1.000000e+000
    outer loop
      vertex  1.962615e+001  5.344363e+001  0.000000e+000
      vertex  1.662615e+001  4.894363e+001  0.000000e+000
      vertex  1.618681e+001  5.000429e+001  0.000000e+000
    endloop
  endfacet
  facet normal  0.000000e+000  0.000000e+000 -1.000000e+000
    outer loop
      vertex  1.962615e+001  5.344363e+001  0.000000e+000
      vertex  1.618681e+001  5.000429e+001  0.000000e+000
      vertex  1.512615e+001  5.044363e+001  0.000000e+000
    endloop
  endfacet
  facet normal  0.000000e+000  0.000000e+000 -1.000000e+000
    outer loop
      vertex -9.300904e+000  3.779679e+001  0.000000e+000
      vertex -1.080090e+001  3.670698e+001  0.000000e+000
      vertex -9.300904e+000  4.509046e+001  0.000000e+000
    endloop
  endfacet
  facet normal  0.000000e+000  0.000000e+000 -1.000000e+000
    outer loop
      vertex -9.300904e+000  4.509046e+001  0.000000e+000
      vertex -1.080090e+001  3.670698e+001  0.000000e+000
      vertex -1.137385e+001  3.494363e+001  0.000000e+000
    endloop
  endfacet
  facet normal  0.000000e+000  0.000000e+000 -9.999999e-001
    outer loop
      vertex -9.300904e+000  4.509046e+001  0.000000e+000
      vertex -1.137385e+001  3.494363e+001  0.000000e+000
      vertex -1.080090e+001  4.618027e+001  0.000000e+000
    endloop
  endfacet
  facet normal  0.000000e+000  0.000000e+000 -1.000000e+000
    outer loop
      vertex  1.261463e-001  5.044363e+001  0.000000e+000
      vertex  1.406549e+001  5.000429e+001  0.000000e+000
      vertex  1.186806e+000  5.000429e+001  0.000000e+000
    endloop
  endfacet
  facet normal  0.000000e+000  0.000000e+000 -1.000000e+000
    outer loop
      vertex  1.186806e+000  5.000429e+001  0.000000e+000
      vertex  1.406549e+001  5.000429e+001  0.000000e+000
      vertex  1.362615e+001  4.894363e+001  0.000000e+000
    endloop
  endfacet
  facet normal  0.000000e+000  0.000000e+000 -1.000000e+000
    outer loop
      vertex  1.186806e+000  5.000429e+001  0.000000e+000
      vertex  1.362615e+001  4.894363e+001  0.000000e+000
      vertex  1.626146e+000  4.894363e+001  0.000000e+000
    endloop
  endfacet
  facet normal  0.000000e+000  0.000000e+000 -1.000000e+000
    outer loop
      vertex -5.946803e+000  3.670698e+001  0.000000e+000
      vertex -7.446803e+000  3.779679e+001  0.000000e+000
      vertex -7.446803e+000  4.509046e+001  0.000000e+000
    endloop
  endfacet
  facet normal  0.000000e+000  -0.000000e+000 -1.000000e+000
    outer loop
      vertex -7.446803e+000  4.509046e+001  0.000000e+000
      vertex -7.446803e+000  3.779679e+001  0.000000e+000
      vertex -9.300904e+000  3.779679e+001  0.000000e+000
    endloop
  endfacet
  facet normal  0.000000e+000  0.000000e+000 -1.000000e+000
    outer loop
      vertex -7.446803e+000  4.509046e+001  0.000000e+000
      vertex -9.300904e+000  3.779679e+001  0.000000e+000
      vertex -9.300904e+000  4.509046e+001  0.000000e+000
    endloop
  endfacet
  facet normal  0.000000e+000  0.000000e+000 -1.000000e+000
    outer loop
      vertex -1.373854e+000  4.894363e+001  0.000000e+000
      vertex -9.345139e-001  4.788297e+001  0.000000e+000
      vertex -5.373854e+000  4.794363e+001  0.000000e+000
    endloop
  endfacet
  facet normal  0.000000e+000  0.000000e+000 -1.000000e+000
    outer loop
      vertex -5.373854e+000  4.794363e+001  0.000000e+000
      vertex -9.345139e-001  4.788297e+001  0.000000e+000
      vertex  1.261463e-001  4.744363e+001  0.000000e+000
    endloop
  endfacet
  facet normal  -0.000000e+000  0.000000e+000 -9.999999e-001
    outer loop
      vertex -5.373854e+000  4.794363e+001  0.000000e+000
      vertex  1.261463e-001  4.744363e+001  0.000000e+000
      vertex -5.946803e+000  4.618027e+001  0.000000e+000
    endloop
  endfacet
  facet normal  0.000000e+000  0.000000e+000 -1.000000e+000
    outer loop
      vertex -5.946803e+000  4.618027e+001  0.000000e+000
      vertex  1.261463e-001  4.744363e+001  0.000000e+000
      vertex -5.373854e+000  3.494363e+001  0.000000e+000
    endloop
  endfacet
  facet normal  0.000000e+000  0.000000e+000 -1.000000e+000
    outer loop
      vertex -5.946803e+000  4.618027e+001  0.000000e+000
      vertex -5.373854e+000  3.494363e+001  0.000000e+000
      vertex -5.946803e+000  3.670698e+001  0.000000e+000
    endloop
  endfacet
  facet normal  0.000000e+000  0.000000e+000 -9.999999e-001
    outer loop
      vertex  1.261463e-001  5.044363e+001  0.000000e+000
      vertex -9.345139e-001  5.000429e+001  0.000000e+000
      vertex -7.446803e+000  5.079679e+001  0.000000e+000
    endloop
  endfacet
  facet normal  0.000000e+000  0.000000e+000 -1.000000e+000
    outer loop
      vertex -7.446803e+000  5.079679e+001  0.000000e+000
      vertex -9.345139e-001  5.000429e+001  0.000000e+000
      vertex -5.946803e+000  4.970698e+001  0.000000e+000
    endloop
  endfacet
  facet normal  0.000000e+000  0.000000e+000 -1.000000e+000
    outer loop
      vertex -9.345139e-001  5.000429e+001  0.000000e+000
      vertex -1.373854e+000  4.894363e+001  0.000000e+000
      vertex -5.946803e+000  4.970698e+001  0.000000e+000
    endloop
  endfacet
  facet normal  0.000000e+000  0.000000e+000 -1.000000e+000
    outer loop
      vertex -5.946803e+000  4.970698e+001  0.000000e+000
      vertex -1.373854e+000  4.894363e+001  0.000000e+000
      vertex -5.373854e+000  4.794363e+001  0.000000e+000
    endloop
  endfacet
  facet normal  5.877850e-001 -8.090171e-001  0.000000e+000
    outer loop
      vertex -9.300904e+000  3.779679e+001  0.000000e+000
      vertex -1.080090e+001  3.670698e+001  4.000000e+000
      vertex -1.080090e+001  3.670698e+001  0.000000e+000
    endloop
  endfacet
  facet normal  9.510565e-001 -3.090173e-001  0.000000e+000
    outer loop
      vertex -1.080090e+001  3.670698e+001  0.000000e+000
      vertex -1.080090e+001  3.670698e+001  4.000000e+000
      vertex -1.137385e+001  3.494363e+001  4.000000e+000
    endloop
  endfacet
  facet normal  9.510565e-001 -3.090173e-001  0.000000e+000
    outer loop
      vertex -1.080090e+001  3.670698e+001  0.000000e+000
      vertex -1.137385e+001  3.494363e+001  4.000000e+000
      vertex -1.137385e+001  3.494363e+001  0.000000e+000
    endloop
  endfacet
  facet normal  5.877850e-001 -8.090171e-001  0.000000e+000
    outer loop
      vertex -1.080090e+001  3.670698e+001  4.000000e+000
      vertex -9.300904e+000  3.779679e+001  0.000000e+000
      vertex -9.300904e+000  3.779679e+001  4.000000e+000
    endloop
  endfacet
  facet normal  0.000000e+000 -9.999999e-001  0.000000e+000
    outer loop
      vertex -9.300904e+000  3.779679e+001  4.000000e+000
      vertex -9.300904e+000  3.779679e+001  0.000000e+000
      vertex -7.446803e+000  3.779679e+001  0.000000e+000
    endloop
  endfacet
  facet normal  0.000000e+000 -9.999999e-001  0.000000e+000
    outer loop
      vertex -9.300904e+000  3.779679e+001  4.000000e+000
      vertex -7.446803e+000  3.779679e+001  0.000000e+000
      vertex -7.446803e+000  3.779679e+001  4.000000e+000
    endloop
  endfacet
  facet normal -5.877850e-001 -8.090171e-001  -0.000000e+000
    outer loop
      vertex -7.446803e+000  3.779679e+001  4.000000e+000
      vertex -7.446803e+000  3.779679e+001  0.000000e+000
      vertex -5.946803e+000  3.670698e+001  0.000000e+000
    endloop
  endfacet
  facet normal -5.877850e-001 -8.090171e-001  0.000000e+000
    outer loop
      vertex -7.446803e+000  3.779679e+001  4.000000e+000
      vertex -5.946803e+000  3.670698e+001  0.000000e+000
      vertex -5.946803e+000  3.670698e+001  4.000000e+000
    endloop
  endfacet
  facet normal -9.510566e-001 -3.090171e-001  -0.000000e+000
    outer loop
      vertex -5.946803e+000  3.670698e+001  4.000000e+000
      vertex -5.946803e+000  3.670698e+001  0.000000e+000
      vertex -5.373854e+000  3.494363e+001  0.000000e+000
    endloop
  endfacet
  facet normal -9.510566e-001 -3.090171e-001  0.000000e+000
    outer loop
      vertex -5.946803e+000  3.670698e+001  4.000000e+000
      vertex -5.373854e+000  3.494363e+001  0.000000e+000
      vertex -5.373854e+000  3.494363e+001  4.000000e+000
    endloop
  endfacet
  facet normal -5.877850e-001  8.090171e-001  0.000000e+000
    outer loop
      vertex -7.446803e+000  3.209046e+001  0.000000e+000
      vertex -5.946803e+000  3.318027e+001  4.000000e+000
      vertex -5.946803e+000  3.318027e+001  0.000000e+000
    endloop
  endfacet
  facet normal -9.510566e-001  3.090171e-001  0.000000e+000
    outer loop
      vertex -5.946803e+000  3.318027e+001  0.000000e+000
      vertex -5.946803e+000  3.318027e+001  4.000000e+000
      vertex -5.373854e+000  3.494363e+001  4.000000e+000
    endloop
  endfacet
  facet normal -9.510566e-001  3.090171e-001  0.000000e+000
    outer loop
      vertex -5.946803e+000  3.318027e+001  0.000000e+000
      vertex -5.373854e+000  3.494363e+001  4.000000e+000
      vertex -5.373854e+000  3.494363e+001  0.000000e+000
    endloop
  endfacet
  facet normal -5.877850e-001  8.090171e-001  0.000000e+000
    outer loop
      vertex -5.946803e+000  3.318027e+001  4.000000e+000
      vertex -7.446803e+000  3.209046e+001  0.000000e+000
      vertex -7.446803e+000  3.209046e+001  4.000000e+000
    endloop
  endfacet
  facet normal  0.000000e+000  9.999999e-001  0.000000e+000
    outer loop
      vertex -7.446803e+000  3.209046e+001  4.000000e+000
      vertex -7.446803e+000  3.209046e+001  0.000000e+000
      vertex -9.300904e+000  3.209046e+001  0.000000e+000
    endloop
  endfacet
  facet normal  0.000000e+000  9.999999e-001  0.000000e+000
    outer loop
      vertex -7.446803e+000  3.209046e+001  4.000000e+000
      vertex -9.300904e+000  3.209046e+001  0.000000e+000
      vertex -9.300904e+000  3.209046e+001  4.000000e+000
    endloop
  endfacet
  facet normal  5.877850e-001  8.090171e-001  0.000000e+000
    outer loop
      vertex -9.300904e+000  3.209046e+001  4.000000e+000
      vertex -9.300904e+000  3.209046e+001  0.000000e+000
      vertex -1.080090e+001  3.318027e+001  0.000000e+000
    endloop
  endfacet
  facet normal  5.877850e-001  8.090171e-001  -0.000000e+000
    outer loop
      vertex -9.300904e+000  3.209046e+001  4.000000e+000
      vertex -1.080090e+001  3.318027e+001  0.000000e+000
      vertex -1.080090e+001  3.318027e+001  4.000000e+000
    endloop
  endfacet
  facet normal  9.510565e-001  3.090173e-001  0.000000e+000
    outer loop
      vertex -1.080090e+001  3.318027e+001  4.000000e+000
      vertex -1.080090e+001  3.318027e+001  0.000000e+000
      vertex -1.137385e+001  3.494363e+001  0.000000e+000
    endloop
  endfacet
  facet normal  9.510565e-001  3.090173e-001  -0.000000e+000
    outer loop
      vertex -1.080090e+001  3.318027e+001  4.000000e+000
      vertex -1.137385e+001  3.494363e+001  0.000000e+000
      vertex -1.137385e+001  3.494363e+001  4.000000e+000
    endloop
  endfacet
  facet normal  5.877850e-001 -8.090171e-001  0.000000e+000
    outer loop
      vertex -9.300904e+000  5.079679e+001  0.000000e+000
      vertex -1.080090e+001  4.970698e+001  4.000000e+000
      vertex -1.080090e+001  4.970698e+001  0.000000e+000
    endloop
  endfacet
  facet normal  9.510565e-001 -3.090173e-001  0.000000e+000
    outer loop
      vertex -1.080090e+001  4.970698e+001  0.000000e+000
      vertex -1.080090e+001  4.970698e+001  4.000000e+000
      vertex -1.137385e+001  4.794363e+001  4.000000e+000
    endloop
  endfacet
  facet normal  9.510565e-001 -3.090173e-001  0.000000e+000
    outer loop
      vertex -1.080090e+001  4.970698e+001  0.000000e+000
      vertex -1.137385e+001  4.794363e+001  4.000000e+000
      vertex -1.137385e+001  4.794363e+001  0.000000e+000
    endloop
  endfacet
  facet normal  5.877850e-001 -8.090171e-001  0.000000e+000
    outer loop
      vertex -1.080090e+001  4.970698e+001  4.000000e+000
      vertex -9.300904e+000  5.079679e+001  0.000000e+000
      vertex -9.300904e+000  5.079679e+001  4.000000e+000
    endloop
  endfacet
  facet normal  0.000000e+000 -9.999999e-001  0.000000e+000
    outer loop
      vertex -9.300904e+000  5.079679e+001  4.000000e+000
      vertex -9.300904e+000  5.079679e+001  0.000000e+000
      vertex -7.446803e+000  5.079679e+001  0.000000e+000
    endloop
  endfacet
  facet normal  0.000000e+000 -9.999999e-001  0.000000e+000
    outer loop
      vertex -9.300904e+000  5.079679e+001  4.000000e+000
      vertex -7.446803e+000  5.079679e+001  0.000000e+000
      vertex -7.446803e+000  5.079679e+001  4.000000e+000
    endloop
  endfacet
  facet normal -5.877850e-001 -8.090171e-001  -0.000000e+000
    outer loop
      vertex -7.446803e+000  5.079679e+001  4.000000e+000
      vertex -7.446803e+000  5.079679e+001  0.000000e+000
      vertex -5.946803e+000  4.970698e+001  0.000000e+000
    endloop
  endfacet
  facet normal -5.877850e-001 -8.090171e-001  0.000000e+000
    outer loop
      vertex -7.446803e+000  5.079679e+001  4.000000e+000
      vertex -5.946803e+000  4.970698e+001  0.000000e+000
      vertex -5.946803e+000  4.970698e+001  4.000000e+000
    endloop
  endfacet
  facet normal -9.510566e-001 -3.090171e-001  -0.000000e+000
    outer loop
      vertex -5.946803e+000  4.970698e+001  4.000000e+000
      vertex -5.946803e+000  4.970698e+001  0.000000e+000
      vertex -5.373854e+000  4.794363e+001  0.000000e+000
    endloop
  endfacet
  facet normal -9.510566e-001 -3.090171e-001  0.000000e+000
    outer loop
      vertex -5.946803e+000  4.970698e+001  4.000000e+000
      vertex -5.373854e+000  4.794363e+001  0.000000e+000
      vertex -5.373854e+000  4.794363e+001  4.000000e+000
    endloop
  endfacet
  facet normal -5.877850e-001  8.090171e-001  0.000000e+000
    outer loop
      vertex -7.446803e+000  4.509046e+001  0.000000e+000
      vertex -5.946803e+000  4.618027e+001  4.000000e+000
      vertex -5.946803e+000  4.618027e+001  0.000000e+000
    endloop
  endfacet
  facet normal -9.510566e-001  3.090171e-001  0.000000e+000
    outer loop
      vertex -5.946803e+000  4.618027e+001  0.000000e+000
      vertex -5.946803e+000  4.618027e+001  4.000000e+000
      vertex -5.373854e+000  4.794363e+001  4.000000e+000
    endloop
  endfacet
  facet normal -9.510566e-001  3.090171e-001  0.000000e+000
    outer loop
      vertex -5.946803e+000  4.618027e+001  0.000000e+000
      vertex -5.373854e+000  4.794363e+001  4.000000e+000
      vertex -5.373854e+000  4.794363e+001  0.000000e+000
    endloop
  endfacet
  facet normal -5.877850e-001  8.090171e-001  0.000000e+000
    outer loop
      vertex -5.946803e+000  4.618027e+001  4.000000e+000
      vertex -7.446803e+000  4.509046e+001  0.000000e+000
      vertex -7.446803e+000  4.509046e+001  4.000000e+000
    endloop
  endfacet
  facet normal  0.000000e+000  9.999999e-001  0.000000e+000
    outer loop
      vertex -7.446803e+000  4.509046e+001  4.000000e+000
      vertex -7.446803e+000  4.509046e+001  0.000000e+000
      vertex -9.300904e+000  4.509046e+001  0.000000e+000
    endloop
  endfacet
  facet normal  0.000000e+000  9.999999e-001  0.000000e+000
    outer loop
      vertex -7.446803e+000  4.509046e+001  4.000000e+000
      vertex -9.300904e+000  4.509046e+001  0.000000e+000
      vertex -9.300904e+000  4.509046e+001  4.000000e+000
    endloop
  endfacet
  facet normal  5.877850e-001  8.090171e-001  0.000000e+000
    outer loop
      vertex -9.300904e+000  4.509046e+001  4.000000e+000
      vertex -9.300904e+000  4.509046e+001  0.000000e+000
      vertex -1.080090e+001  4.618027e+001  0.000000e+000
    endloop
  endfacet
  facet normal  5.877850e-001  8.090171e-001  -0.000000e+000
    outer loop
      vertex -9.300904e+000  4.509046e+001  4.000000e+000
      vertex -1.080090e+001  4.618027e+001  0.000000e+000
      vertex -1.080090e+001  4.618027e+001  4.000000e+000
    endloop
  endfacet
  facet normal  9.510565e-001  3.090173e-001  0.000000e+000
    outer loop
      vertex -1.080090e+001  4.618027e+001  4.000000e+000
      vertex -1.080090e+001  4.618027e+001  0.000000e+000
      vertex -1.137385e+001  4.794363e+001  0.000000e+000
    endloop
  endfacet
  facet normal  9.510565e-001  3.090173e-001  -0.000000e+000
    outer loop
      vertex -1.080090e+001  4.618027e+001  4.000000e+000
      vertex -1.137385e+001  4.794363e+001  0.000000e+000
      vertex -1.137385e+001  4.794363e+001  4.000000e+000
    endloop
  endfacet
  facet normal  1.000000e+000  0.000000e+000  0.000000e+000
    outer loop
      vertex  1.962615e+001  2.944363e+001  8.000000e+000
      vertex  1.962615e+001  2.944363e+001  0.000000e+000
      vertex  1.962615e+001  5.344363e+001  8.000000e+000
    endloop
  endfacet
  facet normal  1.000000e+000  0.000000e+000  0.000000e+000
    outer loop
      vertex  1.962615e+001  5.344363e+001  8.000000e+000
      vertex  1.962615e+001  2.944363e+001  0.000000e+000
      vertex  1.962615e+001  5.344363e+001  0.000000e+000
    endloop
  endfacet
  facet normal -1.000000e+000  0.000000e+000  0.000000e+000
    outer loop
      vertex -1.237385e+001  5.344363e+001  0.000000e+000
      vertex -1.237385e+001  2.944363e+001  0.000000e+000
      vertex -1.237385e+001  5.344363e+001  4.000000e+000
    endloop
  endfacet
  facet normal -1.000000e+000  -0.000000e+000  0.000000e+000
    outer loop
      vertex -1.237385e+001  5.344363e+001  4.000000e+000
      vertex -1.237385e+001  2.944363e+001  0.000000e+000
      vertex -1.237385e+001  2.944363e+001  4.000000e+000
    endloop
  endfacet
  facet normal  0.000000e+000  1.000000e+000  0.000000e+000
    outer loop
      vertex -1.237385e+001  5.344363e+001  0.000000e+000
      vertex -1.237385e+001  5.344363e+001  4.000000e+000
      vertex  1.962615e+001  5.344363e+001  0.000000e+000
    endloop
  endfacet
  facet normal  0.000000e+000  1.000000e+000  0.000000e+000
    outer loop
      vertex  1.962615e+001  5.344363e+001  0.000000e+000
      vertex -1.237385e+001  5.344363e+001  4.000000e+000
      vertex -4.373854e+000  5.344363e+001  4.000000e+000
    endloop
  endfacet
  facet normal  -0.000000e+000  1.000000e+000  0.000000e+000
    outer loop
      vertex  1.962615e+001  5.344363e+001  0.000000e+000
      vertex -4.373854e+000  5.344363e+001  4.000000e+000
      vertex  1.962615e+001  5.344363e+001  8.000000e+000
    endloop
  endfacet
  facet normal  0.000000e+000  1.000000e+000  0.000000e+000
    outer loop
      vertex  1.962615e+001  5.344363e+001  8.000000e+000
      vertex -4.373854e+000  5.344363e+001  4.000000e+000
      vertex -4.373854e+000  5.344363e+001  8.000000e+000
    endloop
  endfacet
  facet normal  0.000000e+000 -1.000000e+000  0.000000e+000
    outer loop
      vertex  1.962615e+001  2.944363e+001  8.000000e+000
      vertex -4.373854e+000  2.944363e+001  8.000000e+000
      vertex  1.962615e+001  2.944363e+001  0.000000e+000
    endloop
  endfacet
  facet normal  0.000000e+000 -1.000000e+000  0.000000e+000
    outer loop
      vertex  1.962615e+001  2.944363e+001  0.000000e+000
      vertex -4.373854e+000  2.944363e+001  8.000000e+000
      vertex -4.373854e+000  2.944363e+001  4.000000e+000
    endloop
  endfacet
  facet normal  0.000000e+000 -1.000000e+000  -0.000000e+000
    outer loop
      vertex  1.962615e+001  2.944363e+001  0.000000e+000
      vertex -4.373854e+000  2.944363e+001  4.000000e+000
      vertex -1.237385e+001  2.944363e+001  0.000000e+000
    endloop
  endfacet
  facet normal  0.000000e+000 -1.000000e+000  0.000000e+000
    outer loop
      vertex -1.237385e+001  2.944363e+001  0.000000e+000
      vertex -4.373854e+000  2.944363e+001  4.000000e+000
      vertex -1.237385e+001  2.944363e+001  4.000000e+000
    endloop
  endfacet
  facet normal -1.000000e+000  0.000000e+000  0.000000e+000
    outer loop
      vertex -4.373854e+000  5.344363e+001  8.000000e+000
      vertex -4.373854e+000  5.344363e+001  4.000000e+000
      vertex -4.373854e+000  2.944363e+001  8.000000e+000
    endloop
  endfacet
  facet normal -1.000000e+000  0.000000e+000  0.000000e+000
    outer loop
      vertex -4.373854e+000  2.944363e+001  8.000000e+000
      vertex -4.373854e+000  5.344363e+001  4.000000e+000
      vertex -4.373854e+000  2.944363e+001  4.000000e+000
    endloop
  endfacet
  facet normal  0.000000e+000  0.000000e+000  1.000000e+000
    outer loop
      vertex  1.412615e+001  4.644363e+001  3.000000e+000
      vertex  1.412615e+001  3.344363e+001  3.000000e+000
      vertex  1.512615e+001  4.744363e+001  3.000000e+000
    endloop
  endfacet
  facet normal  0.000000e+000  0.000000e+000  1.000000e+000
    outer loop
      vertex  1.762615e+001  3.144363e+001  3.000000e+000
      vertex  1.662615e+001  4.894363e+001  3.000000e+000
      vertex  1.618681e+001  4.788297e+001  3.000000e+000
    endloop
  endfacet
  facet normal  0.000000e+000  0.000000e+000  1.000000e+000
    outer loop
      vertex  1.762615e+001  3.144363e+001  3.000000e+000
      vertex  1.618681e+001  4.788297e+001  3.000000e+000
      vertex  1.512615e+001  4.744363e+001  3.000000e+000
    endloop
  endfacet
  facet normal  0.000000e+000  0.000000e+000  1.000000e+000
    outer loop
      vertex  1.762615e+001  3.144363e+001  3.000000e+000
      vertex  1.512615e+001  4.744363e+001  3.000000e+000
      vertex  1.412615e+001  3.344363e+001  3.000000e+000
    endloop
  endfacet
  facet normal  0.000000e+000  0.000000e+000  1.000000e+000
    outer loop
      vertex -2.373854e+000  3.144363e+001  3.000000e+000
      vertex  1.762615e+001  3.144363e+001  3.000000e+000
      vertex  1.412615e+001  3.344363e+001  3.000000e+000
    endloop
  endfacet
  facet normal  0.000000e+000  0.000000e+000  1.000000e+000
    outer loop
      vertex -2.373854e+000  3.144363e+001  3.000000e+000
      vertex  1.412615e+001  3.344363e+001  3.000000e+000
      vertex  1.126146e+000  3.344363e+001  3.000000e+000
    endloop
  endfacet
  facet normal  0.000000e+000  -0.000000e+000  1.000000e+000
    outer loop
      vertex -2.373854e+000  3.144363e+001  3.000000e+000
      vertex  1.126146e+000  3.344363e+001  3.000000e+000
      vertex  1.126146e+000  4.644363e+001  3.000000e+000
    endloop
  endfacet
  facet normal  0.000000e+000  0.000000e+000  1.000000e+000
    outer loop
      vertex -2.373854e+000  3.144363e+001  3.000000e+000
      vertex  1.126146e+000  4.644363e+001  3.000000e+000
      vertex  1.261463e-001  4.744363e+001  3.000000e+000
    endloop
  endfacet
  facet normal  0.000000e+000  0.000000e+000  9.999999e-001
    outer loop
      vertex -2.373854e+000  3.144363e+001  3.000000e+000
      vertex  1.261463e-001  4.744363e+001  3.000000e+000
      vertex -9.345139e-001  4.788297e+001  3.000000e+000
    endloop
  endfacet
  facet normal  0.000000e+000  0.000000e+000  1.000000e+000
    outer loop
      vertex -2.373854e+000  3.144363e+001  3.000000e+000
      vertex -9.345139e-001  4.788297e+001  3.000000e+000
      vertex -1.373854e+000  4.894363e+001  3.000000e+000
    endloop
  endfacet
  facet normal  0.000000e+000  0.000000e+000  1.000000e+000
    outer loop
      vertex -2.373854e+000  5.144363e+001  3.000000e+000
      vertex -2.373854e+000  3.144363e+001  3.000000e+000
      vertex -1.373854e+000  4.894363e+001  3.000000e+000
    endloop
  endfacet
  facet normal  0.000000e+000  -0.000000e+000  1.000000e+000
    outer loop
      vertex -2.373854e+000  5.144363e+001  3.000000e+000
      vertex -1.373854e+000  4.894363e+001  3.000000e+000
      vertex -9.345139e-001  5.000429e+001  3.000000e+000
    endloop
  endfacet
  facet normal  0.000000e+000  -0.000000e+000  1.000000e+000
    outer loop
      vertex -2.373854e+000  5.144363e+001  3.000000e+000
      vertex -9.345139e-001  5.000429e+001  3.000000e+000
      vertex  1.261463e-001  5.044363e+001  3.000000e+000
    endloop
  endfacet
  facet normal  -0.000000e+000  -0.000000e+000  1.000000e+000
    outer loop
      vertex -2.373854e+000  5.144363e+001  3.000000e+000
      vertex  1.261463e-001  5.044363e+001  3.000000e+000
      vertex  1.406549e+001  5.000429e+001  3.000000e+000
    endloop
  endfacet
  facet normal  0.000000e+000  -0.000000e+000  1.000000e+000
    outer loop
      vertex -2.373854e+000  5.144363e+001  3.000000e+000
      vertex  1.406549e+001  5.000429e+001  3.000000e+000
      vertex  1.512615e+001  5.044363e+001  3.000000e+000
    endloop
  endfacet
  facet normal  0.000000e+000  -0.000000e+000  1.000000e+000
    outer loop
      vertex -2.373854e+000  5.144363e+001  3.000000e+000
      vertex  1.512615e+001  5.044363e+001  3.000000e+000
      vertex  1.762615e+001  5.144363e+001  3.000000e+000
    endloop
  endfacet
  facet normal  0.000000e+000  -0.000000e+000  1.000000e+000
    outer loop
      vertex  1.126146e+000  4.644363e+001  3.000000e+000
      vertex  1.412615e+001  4.644363e+001  3.000000e+000
      vertex  1.512615e+001  4.744363e+001  3.000000e+000
    endloop
  endfacet
  facet normal  0.000000e+000  0.000000e+000  1.000000e+000
    outer loop
      vertex  1.126146e+000  4.644363e+001  3.000000e+000
      vertex  1.512615e+001  4.744363e+001  3.000000e+000
      vertex  1.406549e+001  4.788297e+001  3.000000e+000
    endloop
  endfacet
  facet normal  0.000000e+000  0.000000e+000  1.000000e+000
    outer loop
      vertex  1.126146e+000  4.644363e+001  3.000000e+000
      vertex  1.406549e+001  4.788297e+001  3.000000e+000
      vertex  1.362615e+001  4.894363e+001  3.000000e+000
    endloop
  endfacet
  facet normal  0.000000e+000  0.000000e+000  1.000000e+000
    outer loop
      vertex  1.126146e+000  4.644363e+001  3.000000e+000
      vertex  1.362615e+001  4.894363e+001  3.000000e+000
      vertex  1.626146e+000  4.894363e+001  3.000000e+000
    endloop
  endfacet
  facet normal  0.000000e+000  0.000000e+000  1.000000e+000
    outer loop
      vertex  1.126146e+000  4.644363e+001  3.000000e+000
      vertex  1.626146e+000  4.894363e+001  3.000000e+000
      vertex  1.186806e+000  4.788297e+001  3.000000e+000
    endloop
  endfacet
  facet normal  0.000000e+000  0.000000e+000  1.000000e+000
    outer loop
      vertex  1.126146e+000  4.644363e+001  3.000000e+000
      vertex  1.186806e+000  4.788297e+001  3.000000e+000
      vertex  1.261463e-001  4.744363e+001  3.000000e+000
    endloop
  endfacet
  facet normal  -0.000000e+000  0.000000e+000  1.000000e+000
    outer loop
      vertex  1.762615e+001  5.144363e+001  3.000000e+000
      vertex  1.512615e+001  5.044363e+001  3.000000e+000
      vertex  1.618681e+001  5.000429e+001  3.000000e+000
    endloop
  endfacet
  facet normal  -0.000000e+000  0.000000e+000  1.000000e+000
    outer loop
      vertex  1.762615e+001  5.144363e+001  3.000000e+000
      vertex  1.618681e+001  5.000429e+001  3.000000e+000
      vertex  1.662615e+001  4.894363e+001  3.000000e+000
    endloop
  endfacet
  facet normal  -0.000000e+000  0.000000e+000  1.000000e+000
    outer loop
      vertex  1.762615e+001  5.144363e+001  3.000000e+000
      vertex  1.662615e+001  4.894363e+001  3.000000e+000
      vertex  1.762615e+001  3.144363e+001  3.000000e+000
    endloop
  endfacet
  facet normal  0.000000e+000  0.000000e+000  1.000000e+000
    outer loop
      vertex  1.626146e+000  4.894363e+001  3.000000e+000
      vertex  1.362615e+001  4.894363e+001  3.000000e+000
      vertex  1.186806e+000  5.000429e+001  3.000000e+000
    endloop
  endfacet
  facet normal  -0.000000e+000  0.000000e+000  1.000000e+000
    outer loop
      vertex  1.186806e+000  5.000429e+001  3.000000e+000
      vertex  1.362615e+001  4.894363e+001  3.000000e+000
      vertex  1.406549e+001  5.000429e+001  3.000000e+000
    endloop
  endfacet
  facet normal  0.000000e+000  0.000000e+000  1.000000e+000
    outer loop
      vertex  1.186806e+000  5.000429e+001  3.000000e+000
      vertex  1.406549e+001  5.000429e+001  3.000000e+000
      vertex  1.261463e-001  5.044363e+001  3.000000e+000
    endloop
  endfacet
  facet normal  1.000000e+000  0.000000e+000  0.000000e+000
    outer loop
      vertex  1.126146e+000  4.644363e+001  0.000000e+000
      vertex  1.126146e+000  4.644363e+001  3.000000e+000
      vertex  1.126146e+000  3.344363e+001  0.000000e+000
    endloop
  endfacet
  facet normal  1.000000e+000  0.000000e+000  0.000000e+000
    outer loop
      vertex  1.126146e+000  3.344363e+001  0.000000e+000
      vertex  1.126146e+000  4.644363e+001  3.000000e+000
      vertex  1.126146e+000  3.344363e+001  3.000000e+000
    endloop
  endfacet
  facet normal  0.000000e+000  1.000000e+000  0.000000e+000
    outer loop
      vertex  1.412615e+001  3.344363e+001  0.000000e+000
      vertex  1.126146e+000  3.344363e+001  0.000000e+000
      vertex  1.412615e+001  3.344363e+001  3.000000e+000
    endloop
  endfacet
  facet normal  0.000000e+000  1.000000e+000  0.000000e+000
    outer loop
      vertex  1.412615e+001  3.344363e+001  3.000000e+000
      vertex  1.126146e+000  3.344363e+001  0.000000e+000
      vertex  1.126146e+000  3.344363e+001  3.000000e+000
    endloop
  endfacet
  facet normal -1.000000e+000  0.000000e+000  0.000000e+000
    outer loop
      vertex  1.412615e+001  3.344363e+001  0.000000e+000
      vertex  1.412615e+001  3.344363e+001  3.000000e+000
      vertex  1.412615e+001  4.644363e+001  0.000000e+000
    endloop
  endfacet
  facet normal -1.000000e+000  0.000000e+000  0.000000e+000
    outer loop
      vertex  1.412615e+001  4.644363e+001  0.000000e+000
      vertex  1.412615e+001  3.344363e+001  3.000000e+000
      vertex  1.412615e+001  4.644363e+001  3.000000e+000
    endloop
  endfacet
  facet normal  0.000000e+000 -1.000000e+000  0.000000e+000
    outer loop
      vertex  1.126146e+000  4.644363e+001  0.000000e+000
      vertex  1.412615e+001  4.644363e+001  0.000000e+000
      vertex  1.126146e+000  4.644363e+001  3.000000e+000
    endloop
  endfacet
  facet normal  0.000000e+000 -1.000000e+000  0.000000e+000
    outer loop
      vertex  1.126146e+000  4.644363e+001  3.000000e+000
      vertex  1.412615e+001  4.644363e+001  0.000000e+000
      vertex  1.412615e+001  4.644363e+001  3.000000e+000
    endloop
  endfacet
  facet normal  3.826826e-001 -9.238799e-001  0.000000e+000
    outer loop
      vertex  1.261463e-001  5.044363e+001  0.000000e+000
      vertex -9.345139e-001  5.000429e+001  3.000000e+000
      vertex -9.345139e-001  5.000429e+001  0.000000e+000
    endloop
  endfacet
  facet normal  9.238797e-001 -3.826831e-001  0.000000e+000
    outer loop
      vertex -9.345139e-001  5.000429e+001  0.000000e+000
      vertex -9.345139e-001  5.000429e+001  3.000000e+000
      vertex -1.373854e+000  4.894363e+001  3.000000e+000
    endloop
  endfacet
  facet normal  9.238797e-001 -3.826831e-001  0.000000e+000
    outer loop
      vertex -9.345139e-001  5.000429e+001  0.000000e+000
      vertex -1.373854e+000  4.894363e+001  3.000000e+000
      vertex -1.373854e+000  4.894363e+001  0.000000e+000
    endloop
  endfacet
  facet normal  3.826826e-001 -9.238799e-001  0.000000e+000
    outer loop
      vertex -9.345139e-001  5.000429e+001  3.000000e+000
      vertex  1.261463e-001  5.044363e+001  0.000000e+000
      vertex  1.261463e-001  5.044363e+001  3.000000e+000
    endloop
  endfacet
  facet normal -3.826826e-001 -9.238799e-001  -0.000000e+000
    outer loop
      vertex  1.261463e-001  5.044363e+001  3.000000e+000
      vertex  1.261463e-001  5.044363e+001  0.000000e+000
      vertex  1.186806e+000  5.000429e+001  0.000000e+000
    endloop
  endfacet
  facet normal -3.826826e-001 -9.238799e-001  0.000000e+000
    outer loop
      vertex  1.261463e-001  5.044363e+001  3.000000e+000
      vertex  1.186806e+000  5.000429e+001  0.000000e+000
      vertex  1.186806e+000  5.000429e+001  3.000000e+000
    endloop
  endfacet
  facet normal -9.238796e-001 -3.826831e-001  -0.000000e+000
    outer loop
      vertex  1.186806e+000  5.000429e+001  3.000000e+000
      vertex  1.186806e+000  5.000429e+001  0.000000e+000
      vertex  1.626146e+000  4.894363e+001  0.000000e+000
    endloop
  endfacet
  facet normal -9.238796e-001 -3.826831e-001  0.000000e+000
    outer loop
      vertex  1.186806e+000  5.000429e+001  3.000000e+000
      vertex  1.626146e+000  4.894363e+001  0.000000e+000
      vertex  1.626146e+000  4.894363e+001  3.000000e+000
    endloop
  endfacet
  facet normal -3.826826e-001  9.238799e-001  0.000000e+000
    outer loop
      vertex  1.261463e-001  4.744363e+001  0.000000e+000
      vertex  1.186806e+000  4.788297e+001  3.000000e+000
      vertex  1.186806e+000  4.788297e+001  0.000000e+000
    endloop
  endfacet
  facet normal -9.238796e-001  3.826831e-001  0.000000e+000
    outer loop
      vertex  1.186806e+000  4.788297e+001  0.000000e+000
      vertex  1.186806e+000  4.788297e+001  3.000000e+000
      vertex  1.626146e+000  4.894363e+001  3.000000e+000
    endloop
  endfacet
  facet normal -9.238796e-001  3.826831e-001  0.000000e+000
    outer loop
      vertex  1.186806e+000  4.788297e+001  0.000000e+000
      vertex  1.626146e+000  4.894363e+001  3.000000e+000
      vertex  1.626146e+000  4.894363e+001  0.000000e+000
    endloop
  endfacet
  facet normal -3.826826e-001  9.238799e-001  0.000000e+000
    outer loop
      vertex  1.186806e+000  4.788297e+001  3.000000e+000
      vertex  1.261463e-001  4.744363e+001  0.000000e+000
      vertex  1.261463e-001  4.744363e+001  3.000000e+000
    endloop
  endfacet
  facet normal  3.826826e-001  9.238799e-001  0.000000e+000
    outer loop
      vertex  1.261463e-001  4.744363e+001  3.000000e+000
      vertex  1.261463e-001  4.744363e+001  0.000000e+000
      vertex -9.345139e-001  4.788297e+001  0.000000e+000
    endloop
  endfacet
  facet normal  3.826826e-001  9.238799e-001  -0.000000e+000
    outer loop
      vertex  1.261463e-001  4.744363e+001  3.000000e+000
      vertex -9.345139e-001  4.788297e+001  0.000000e+000
      vertex -9.345139e-001  4.788297e+001  3.000000e+000
    endloop
  endfacet
  facet normal  9.238797e-001  3.826831e-001  0.000000e+000
    outer loop
      vertex -9.345139e-001  4.788297e+001  3.000000e+000
      vertex -9.345139e-001  4.788297e+001  0.000000e+000
      vertex -1.373854e+000  4.894363e+001  0.000000e+000
    endloop
  endfacet
  facet normal  9.238797e-001  3.826831e-001  -0.000000e+000
    outer loop
      vertex -9.345139e-001  4.788297e+001  3.000000e+000
      vertex -1.373854e+000  4.894363e+001  0.000000e+000
      vertex -1.373854e+000  4.894363e+001  3.000000e+000
    endloop
  endfacet
  facet normal  3.826825e-001 -9.238799e-001  0.000000e+000
    outer loop
      vertex  1.512615e+001  5.044363e+001  0.000000e+000
      vertex  1.406549e+001  5.000429e+001  3.000000e+000
      vertex  1.406549e+001  5.000429e+001  0.000000e+000
    endloop
  endfacet
  facet normal  9.238797e-001 -3.826829e-001  0.000000e+000
    outer loop
      vertex  1.406549e+001  5.000429e+001  0.000000e+000
      vertex  1.406549e+001  5.000429e+001  3.000000e+000
      vertex  1.362615e+001  4.894363e+001  3.000000e+000
    endloop
  endfacet
  facet normal  9.238797e-001 -3.826829e-001  0.000000e+000
    outer loop
      vertex  1.406549e+001  5.000429e+001  0.000000e+000
      vertex  1.362615e+001  4.894363e+001  3.000000e+000
      vertex  1.362615e+001  4.894363e+001  0.000000e+000
    endloop
  endfacet
  facet normal  3.826825e-001 -9.238799e-001  0.000000e+000
    outer loop
      vertex  1.406549e+001  5.000429e+001  3.000000e+000
      vertex  1.512615e+001  5.044363e+001  0.000000e+000
      vertex  1.512615e+001  5.044363e+001  3.000000e+000
    endloop
  endfacet
  facet normal -3.826828e-001 -9.238797e-001  -0.000000e+000
    outer loop
      vertex  1.512615e+001  5.044363e+001  3.000000e+000
      vertex  1.512615e+001  5.044363e+001  0.000000e+000
      vertex  1.618681e+001  5.000429e+001  0.000000e+000
    endloop
  endfacet
  facet normal -3.826828e-001 -9.238797e-001  0.000000e+000
    outer loop
      vertex  1.512615e+001  5.044363e+001  3.000000e+000
      vertex  1.618681e+001  5.000429e+001  0.000000e+000
      vertex  1.618681e+001  5.000429e+001  3.000000e+000
    endloop
  endfacet
  facet normal -9.238794e-001 -3.826836e-001  -0.000000e+000
    outer loop
      vertex  1.618681e+001  5.000429e+001  3.000000e+000
      vertex  1.618681e+001  5.000429e+001  0.000000e+000
      vertex  1.662615e+001  4.894363e+001  0.000000e+000
    endloop
  endfacet
  facet normal -9.238794e-001 -3.826836e-001  0.000000e+000
    outer loop
      vertex  1.618681e+001  5.000429e+001  3.000000e+000
      vertex  1.662615e+001  4.894363e+001  0.000000e+000
      vertex  1.662615e+001  4.894363e+001  3.000000e+000
    endloop
  endfacet
  facet normal -3.826828e-001  9.238797e-001  0.000000e+000
    outer loop
      vertex  1.512615e+001  4.744363e+001  0.000000e+000
      vertex  1.618681e+001  4.788297e+001  3.000000e+000
      vertex  1.618681e+001  4.788297e+001  0.000000e+000
    endloop
  endfacet
  facet normal -9.238794e-001  3.826836e-001  0.000000e+000
    outer loop
      vertex  1.618681e+001  4.788297e+001  0.000000e+000
      vertex  1.618681e+001  4.788297e+001  3.000000e+000
      vertex  1.662615e+001  4.894363e+001  3.000000e+000
    endloop
  endfacet
  facet normal -9.238794e-001  3.826836e-001  0.000000e+000
    outer loop
      vertex  1.618681e+001  4.788297e+001  0.000000e+000
      vertex  1.662615e+001  4.894363e+001  3.000000e+000
      vertex  1.662615e+001  4.894363e+001  0.000000e+000
    endloop
  endfacet
  facet normal -3.826828e-001  9.238797e-001  0.000000e+000
    outer loop
      vertex  1.618681e+001  4.788297e+001  3.000000e+000
      vertex  1.512615e+001  4.744363e+001  0.000000e+000
      vertex  1.512615e+001  4.744363e+001  3.000000e+000
    endloop
  endfacet
  facet normal  3.826825e-001  9.238799e-001  0.000000e+000
    outer loop
      vertex  1.512615e+001  4.744363e+001  3.000000e+000
      vertex  1.512615e+001  4.744363e+001  0.000000e+000
      vertex  1.406549e+001  4.788297e+001  0.000000e+000
    endloop
  endfacet
  facet normal  3.826825e-001  9.238799e-001  -0.000000e+000
    outer loop
      vertex  1.512615e+001  4.744363e+001  3.000000e+000
      vertex  1.406549e+001  4.788297e+001  0.000000e+000
      vertex  1.406549e+001  4.788297e+001  3.000000e+000
    endloop
  endfacet
  facet normal  9.238797e-001  3.826829e-001  0.000000e+000
    outer loop
      vertex  1.406549e+001  4.788297e+001  3.000000e+000
      vertex  1.406549e+001  4.788297e+001  0.000000e+000
      vertex  1.362615e+001  4.894363e+001  0.000000e+000
    endloop
  endfacet
  facet normal  9.238797e-001  3.826829e-001  -0.000000e+000
    outer loop
      vertex  1.406549e+001  4.788297e+001  3.000000e+000
      vertex  1.362615e+001  4.894363e+001  0.000000e+000
      vertex  1.362615e+001  4.894363e+001  3.000000e+000
    endloop
  endfacet
  facet normal  0.000000e+000  0.000000e+000  1.000000e+000
    outer loop
      vertex  1.962615e+001  2.944363e+001  8.000000e+000
      vertex  1.762615e+001  3.144363e+001  8.000000e+000
      vertex -4.373854e+000  2.944363e+001  8.000000e+000
    endloop
  endfacet
  facet normal  0.000000e+000  0.000000e+000  1.000000e+000
    outer loop
      vertex -4.373854e+000  2.944363e+001  8.000000e+000
      vertex  1.762615e+001  3.144363e+001  8.000000e+000
      vertex -2.373854e+000  3.144363e+001  8.000000e+000
    endloop
  endfacet
  facet normal  0.000000e+000  0.000000e+000  1.000000e+000
    outer loop
      vertex -4.373854e+000  2.944363e+001  8.000000e+000
      vertex -2.373854e+000  3.144363e+001  8.000000e+000
      vertex -4.373854e+000  5.344363e+001  8.000000e+000
    endloop
  endfacet
  facet normal  0.000000e+000  0.000000e+000  1.000000e+000
    outer loop
      vertex -4.373854e+000  5.344363e+001  8.000000e+000
      vertex -2.373854e+000  3.144363e+001  8.000000e+000
      vertex -2.373854e+000  5.144363e+001  8.000000e+000
    endloop
  endfacet
  facet normal  0.000000e+000  -0.000000e+000  1.000000e+000
    outer loop
      vertex -4.373854e+000  5.344363e+001  8.000000e+000
      vertex -2.373854e+000  5.144363e+001  8.000000e+000
      vertex  1.962615e+001  5.344363e+001  8.000000e+000
    endloop
  endfacet
  facet normal  0.000000e+000  0.000000e+000  1.000000e+000
    outer loop
      vertex  1.962615e+001  5.344363e+001  8.000000e+000
      vertex -2.373854e+000  5.144363e+001  8.000000e+000
      vertex  1.762615e+001  5.144363e+001  8.000000e+000
    endloop
  endfacet
  facet normal  -0.000000e+000  0.000000e+000  1.000000e+000
    outer loop
      vertex  1.962615e+001  5.344363e+001  8.000000e+000
      vertex  1.762615e+001  5.144363e+001  8.000000e+000
      vertex  1.962615e+001  2.944363e+001  8.000000e+000
    endloop
  endfacet
  facet normal  0.000000e+000  0.000000e+000  1.000000e+000
    outer loop
      vertex  1.962615e+001  2.944363e+001  8.000000e+000
      vertex  1.762615e+001  5.144363e+001  8.000000e+000
      vertex  1.762615e+001  3.144363e+001  8.000000e+000
    endloop
  endfacet
  facet normal  0.000000e+000  1.000000e+000  0.000000e+000
    outer loop
      vertex -2.373854e+000  3.144363e+001  8.000000e+000
      vertex  1.762615e+001  3.144363e+001  8.000000e+000
      vertex -2.373854e+000  3.144363e+001  3.000000e+000
    endloop
  endfacet
  facet normal  0.000000e+000  1.000000e+000  0.000000e+000
    outer loop
      vertex -2.373854e+000  3.144363e+001  3.000000e+000
      vertex  1.762615e+001  3.144363e+001  8.000000e+000
      vertex  1.762615e+001  3.144363e+001  3.000000e+000
    endloop
  endfacet
  facet normal -1.000000e+000  -0.000000e+000  0.000000e+000
    outer loop
      vertex  1.762615e+001  3.144363e+001  8.000000e+000
      vertex  1.762615e+001  5.144363e+001  8.000000e+000
      vertex  1.762615e+001  3.144363e+001  3.000000e+000
    endloop
  endfacet
  facet normal -1.000000e+000  0.000000e+000  0.000000e+000
    outer loop
      vertex  1.762615e+001  3.144363e+001  3.000000e+000
      vertex  1.762615e+001  5.144363e+001  8.000000e+000
      vertex  1.762615e+001  5.144363e+001  3.000000e+000
    endloop
  endfacet
  facet normal  0.000000e+000 -1.000000e+000  0.000000e+000
    outer loop
      vertex  1.762615e+001  5.144363e+001  8.000000e+000
      vertex -2.373854e+000  5.144363e+001  8.000000e+000
      vertex  1.762615e+001  5.144363e+001  3.000000e+000
    endloop
  endfacet
  facet normal  0.000000e+000 -1.000000e+000  0.000000e+000
    outer loop
      vertex  1.762615e+001  5.144363e+001  3.000000e+000
      vertex -2.373854e+000  5.144363e+001  8.000000e+000
      vertex -2.373854e+000  5.144363e+001  3.000000e+000
    endloop
  endfacet
  facet normal  1.000000e+000  -0.000000e+000  0.000000e+000
    outer loop
      vertex -2.373854e+000  5.144363e+001  8.000000e+000
      vertex -2.373854e+000  3.144363e+001  8.000000e+000
      vertex -2.373854e+000  5.144363e+001  3.000000e+000
    endloop
  endfacet
  facet normal  1.000000e+000  0.000000e+000  0.000000e+000
    outer loop
      vertex -2.373854e+000  5.144363e+001  3.000000e+000
      vertex -2.373854e+000  3.144363e+001  8.000000e+000
      vertex -2.373854e+000  3.144363e+001  3.000000e+000
    endloop
  endfacet
endsolid CATIA STL
